<?xml version="1.0" encoding="utf-8"?>
<!-- Generator: Adobe Illustrator 19.0.0, SVG Export Plug-In . SVG Version: 6.00 Build 0)  -->
<svg version="1.1" id="圖層_1" xmlns="http://www.w3.org/2000/svg" xmlns:xlink="http://www.w3.org/1999/xlink" x="0px" y="0px"
	 viewBox="-30.5 32 60 60" style="enable-background:new -30.5 32 60 60;" xml:space="preserve">
<style type="text/css">
	.st0{fill:#F75E57;}
</style>
<g id="Path_100_">
	<g id="XMLID_53_">
		<path id="XMLID_54_" class="st0" d="M9.1,39h-19.7c-4.2,0-7.4,3.8-7.4,8.3v36.6c0,0.5,0.2,0.9,0.6,1c0.1,0.1,0.1,0.1,0.2,0.1
			c0.3,0,0.7-0.2,0.9-0.5L-9,74.4H9.1c4.4,0,7.9-3.2,7.9-7.6V47.3C17,42.7,13.3,39,9.1,39z M14.8,66.9c0,3.2-2.5,5.4-5.7,5.4H-9.5
			c-0.4,0-0.5,0.2-0.7,0.5l-5.5,7.9V47.3c0-3,1.9-6.2,5.3-6.2H9.3c3.3,0,5.7,3.2,5.7,6.2v19.6H14.8z M-1.4,49.7
			c-0.6,0-1.1,0.2-1.4,0.6c-0.4,0.4-0.5,0.9-0.5,1.5c0,0.4,0,1,0.1,1.9l0.3,4.4c0.1,0.6,0.2,1.1,0.3,1.4c0.2,0.5,0.6,0.7,1.2,0.7
			c0.5,0,0.9-0.3,1.2-0.7c0.2-0.3,0.3-0.8,0.3-1.4l0.4-4.5c0-0.4,0.1-0.9,0.1-1.3c0-0.8-0.1-1.3-0.3-1.8
			C-0.1,50.2-0.5,49.7-1.4,49.7z M-2.8,61.3c-0.4,0.4-0.6,0.8-0.6,1.3c0,0.6,0.2,1.1,0.6,1.4c0.4,0.3,0.8,0.5,1.3,0.5
			s0.9-0.2,1.3-0.5c0.4-0.3,0.6-0.8,0.6-1.4c0-0.5-0.2-1-0.6-1.3C-0.9,60.6-2.1,60.6-2.8,61.3z"/>
	</g>
</g>
</svg>
