<?xml version="1.0" encoding="utf-8"?>
<!-- Generator: Adobe Illustrator 19.0.0, SVG Export Plug-In . SVG Version: 6.00 Build 0)  -->
<svg version="1.1" id="圖層_1" xmlns="http://www.w3.org/2000/svg" xmlns:xlink="http://www.w3.org/1999/xlink" x="0px" y="0px"
	 viewBox="0 0 60 60" enable-background="new 0 0 60 60" xml:space="preserve">
<g>
	<g id="橢圓_9_拷貝_8_1_">
		<g id="XMLID_124_">
			<ellipse id="XMLID_125_" fill-rule="evenodd" clip-rule="evenodd" fill="#F75E57" cx="30" cy="30" rx="30" ry="30"/>
		</g>
	</g>
	<g id="Path_拷貝_1_">
		<g id="XMLID_158_">
			<path id="XMLID_159_" fill="#FFFFFF" d="M37.9,12.8H22.7c-3.2,0-5.7,2.9-5.7,6.4V47c0,0.4,0.1,0.7,0.5,0.8c0.1,0,0.1,0,0.1,0
				c0.3,0,0.5-0.1,0.7-0.3l5.7-7.7h14c3.4,0,6.1-2.4,6.1-5.7V19.2C44,15.7,41.1,12.8,37.9,12.8z M42.3,34c0,2.4-1.9,4.1-4.4,4.1
				H23.5c-0.3,0-0.4,0.1-0.6,0.3l-4.3,6V19.2c0-2.3,1.5-4.7,4.1-4.7h15.2c2.6,0,4.4,2.4,4.4,4.7V34z M29.8,21
				c-0.5,0-0.8,0.2-1.1,0.4c-0.3,0.3-0.4,0.7-0.4,1.2c0,0.3,0,0.8,0.1,1.4l0.2,3.3c0,0.5,0.1,0.8,0.2,1.1c0.2,0.3,0.5,0.5,0.9,0.5
				c0.4,0,0.7-0.2,0.9-0.5c0.1-0.3,0.2-0.6,0.3-1.1l0.3-3.4c0-0.3,0.1-0.6,0.1-1c0-0.6-0.1-1-0.2-1.4C30.8,21.3,30.5,21,29.8,21z
				 M28.7,29.8c-0.3,0.3-0.4,0.6-0.4,1c0,0.4,0.2,0.8,0.5,1.1c0.3,0.2,0.6,0.4,1,0.4c0.4,0,0.7-0.1,1-0.4c0.3-0.3,0.5-0.6,0.5-1.1
				c0-0.4-0.2-0.7-0.4-1C30.2,29.2,29.3,29.2,28.7,29.8z"/>
		</g>
	</g>
</g>
</svg>
