<?xml version="1.0" encoding="utf-8"?>
<!-- Generator: Adobe Illustrator 19.0.0, SVG Export Plug-In . SVG Version: 6.00 Build 0)  -->
<svg version="1.1" id="圖層_1" xmlns="http://www.w3.org/2000/svg" xmlns:xlink="http://www.w3.org/1999/xlink" x="0px" y="0px"
	 viewBox="0 0 60 60" enable-background="new 0 0 60 60" xml:space="preserve">
<g>
	<g id="橢圓_9_拷貝_6_1_">
		<g id="XMLID_126_">
			<ellipse id="XMLID_127_" fill-rule="evenodd" clip-rule="evenodd" fill="#F75E57" cx="30" cy="30" rx="30" ry="30"/>
		</g>
	</g>
	<g id="Path_26_">
		<g id="XMLID_171_">
			<path id="XMLID_172_" fill="#FFFFFF" d="M42.2,10.8H28.7c-3.1,0-5.8,2.2-6.1,4.9h-5c-3.4,0-5.6,2.3-5.6,5.5v26.6
				c0,0.4,0.1,0.8,0.5,0.9c0.1,0,0.1,0,0.2,0c0.3,0,0.6-0.1,0.8-0.4l5.2-7h13.8c3.4,0,6.8-2.9,6.8-6.1v-0.6h2.3l5.4,6.8
				c0.2,0.2,0.5,0.4,0.8,0.4c0.1,0,0.3,0,0.4,0c0.4-0.1,0.8-0.5,0.8-0.9V16.3C49,13.3,45.8,10.8,42.2,10.8z M37.3,35.3
				c0,2.2-2.5,4.3-4.8,4.3H18.2c-0.3,0-0.5,0.1-0.7,0.4l-3.6,5V21.2c0-2.2,1.3-3.7,3.6-3.7h14.9c2.2,0,4.8,1.4,4.8,3.7V35.3z
				 M47.1,38.1L43,33.2c-0.2-0.2-0.6-0.4-0.9-0.4h-2.8V21.2c0-3.1-3.2-5.5-6.8-5.5h-8c0.3-1.7,2.1-3.1,4.1-3.1h13.6
				c2.2,0,4.8,1.4,4.8,3.7V38.1z M29.9,27c-0.5,0-1,0.4-1,0.9v1.8c0,0.5,0.4,0.9,1,0.9c0.5,0,1-0.4,1-0.9v-1.8
				C30.8,27.4,30.4,27,29.9,27z M26,27c-0.5,0-1,0.4-1,0.9v1.8c0,0.5,0.4,0.9,1,0.9c0.5,0,1-0.4,1-0.9v-1.8C26.9,27.4,26.5,27,26,27
				z M22.1,27c-0.5,0-1,0.4-1,0.9v1.8c0,0.5,0.4,0.9,1,0.9c0.5,0,1-0.4,1-0.9v-1.8C23,27.4,22.6,27,22.1,27z"/>
		</g>
	</g>
</g>
</svg>
