<?xml version="1.0" encoding="utf-8"?>
<!-- Generator: Adobe Illustrator 19.0.0, SVG Export Plug-In . SVG Version: 6.00 Build 0)  -->
<svg version="1.1" id="圖層_1" xmlns="http://www.w3.org/2000/svg" xmlns:xlink="http://www.w3.org/1999/xlink" x="0px" y="0px"
	 viewBox="-32.5 31.5 60 60" style="enable-background:new -32.5 31.5 60 60;" xml:space="preserve">
<style type="text/css">
	.st0{fill:#F75E57;}
</style>
<g id="Composite_Path_12_">
	<g id="XMLID_66_">
		<path id="XMLID_67_" class="st0" d="M10.2,42h-25.9c-2,0-3.3,1.5-3.3,3.5V80c0,0.3,0.1,0.7,0.4,0.8c0.3,0.2,0.6,0.2,0.9,0l15-10.1
			l15,10.1c0.2,0.1,0.4,0.2,0.6,0.2c0.2,0,0.4,0,0.6-0.1c0.3-0.2,0.7-0.5,0.7-0.8V45.5C14,43.5,12.2,42,10.2,42z M12.1,78.3L-2,68.9
			c-0.2-0.1-0.5-0.2-0.7-0.2s-0.3,0.1-0.4,0.2l-14,9.4V49.4h28.8c0.1,0,0.2,0,0.3-0.1v29H12.1z M12.1,47.6c-0.1,0-0.2-0.1-0.3-0.1
			h-28.9v-2c0-1,0.4-1.7,1.3-1.7h25.9c0.9,0,1.9,0.7,1.9,1.7v2.1H12.1z M2.2,58l-2.9-0.4L-2,55.1c-0.2-0.3-0.5-0.5-0.9-0.5
			s-0.7,0.2-0.9,0.5L-5,57.6L-7.8,58c-0.4,0.1-0.7,0.3-0.8,0.6c-0.1,0.3,0,0.7,0.2,1l2.1,1.9l-0.5,2.7c-0.1,0.3,0.1,0.7,0.4,0.9
			c0.3,0.2,0.7,0.2,1,0.1l2.6-1.3l2.6,1.3c0.1,0.1,0.3,0.1,0.5,0.1s0.4-0.1,0.6-0.2c0.3-0.2,0.4-0.6,0.4-0.9l-0.5-2.7l2.1-1.9
			c0.3-0.2,0.4-0.6,0.2-1C2.8,58.3,2.5,58,2.2,58z M-1.1,60.5c-0.2,0.2-0.3,0.5-0.3,0.8l0.2,1.3L-2.4,62c-0.1-0.1-0.3-0.1-0.5-0.1
			c-0.2,0-0.3,0-0.5,0.1l-1.3,0.6l0.2-1.3c0.1-0.3-0.1-0.6-0.3-0.8l-1-1l1.4-0.2c0.3,0,0.6-0.2,0.7-0.5l0.6-1.2l0.6,1.2
			c0.1,0.3,0.4,0.5,0.7,0.5l1.4,0.2L-1.1,60.5z"/>
	</g>
</g>
</svg>
