<?xml version="1.0" encoding="utf-8"?>
<!-- Generator: Adobe Illustrator 19.0.0, SVG Export Plug-In . SVG Version: 6.00 Build 0)  -->
<svg version="1.1" id="圖層_1" xmlns="http://www.w3.org/2000/svg" xmlns:xlink="http://www.w3.org/1999/xlink" x="0px" y="0px"
	 viewBox="0 0 60 60" enable-background="new 0 0 60 60" xml:space="preserve">
<g>
	<g id="橢圓_9_拷貝_7_1_">
		<g id="XMLID_125_">
			<ellipse id="XMLID_126_" fill-rule="evenodd" clip-rule="evenodd" fill="#F75E57" cx="30" cy="30" rx="30" ry="30"/>
		</g>
	</g>
	<g id="Composite_Path_拷貝_1_">
		<g id="XMLID_170_">
			<path id="XMLID_171_" fill="#FFFFFF" d="M40.7,13.8h-22c-1.7,0-2.8,1.3-2.8,3V46c0,0.3,0.1,0.6,0.3,0.7c0.3,0.1,0.5,0.1,0.7-0.1
				l12.7-8.5l12.7,8.5c0.1,0.1,0.3,0.1,0.5,0.1c0.1,0,0.4,0,0.5-0.1c0.3-0.1,0.6-0.4,0.6-0.7V16.8C44,15.1,42.4,13.8,40.7,13.8z
				 M42.4,44.5l-12-8c-0.1-0.1-0.4-0.1-0.6-0.1c-0.2,0-0.2,0-0.4,0.1l-11.8,8V20.1h24.5c0.1,0,0.2,0,0.2,0V44.5z M42.4,18.6
				c-0.1,0-0.2,0-0.2,0H17.6v-1.7c0-0.8,0.3-1.4,1.1-1.4h22c0.8,0,1.6,0.6,1.6,1.4V18.6z M34,27.3L31.6,27l-1.1-2.1
				c-0.1-0.3-0.4-0.4-0.7-0.4c-0.3,0-0.6,0.2-0.7,0.4L27.9,27l-2.4,0.3c-0.3,0-0.6,0.3-0.7,0.5c-0.1,0.3,0,0.6,0.2,0.8l1.8,1.6
				l-0.4,2.3c-0.1,0.3,0.1,0.6,0.3,0.8c0.3,0.2,0.6,0.2,0.9,0.1l2.2-1.1l2.2,1.1c0.1,0.1,0.3,0.1,0.4,0.1c0.2,0,0.3-0.1,0.5-0.1
				c0.3-0.2,0.4-0.5,0.3-0.8l-0.4-2.3l1.8-1.6c0.2-0.2,0.3-0.5,0.2-0.8C34.5,27.6,34.3,27.4,34,27.3z M31.2,29.5
				c-0.2,0.2-0.3,0.4-0.2,0.7l0.2,1.1l-1.1-0.5c-0.1-0.1-0.3-0.1-0.4-0.1c-0.1,0-0.3,0-0.4,0.1l-1.1,0.5l0.2-1.1
				c0-0.3,0-0.5-0.2-0.7l-0.9-0.8l1.2-0.2c0.3,0,0.5-0.2,0.6-0.4l0.5-1l0.5,1c0.1,0.2,0.4,0.4,0.6,0.4l1.2,0.2L31.2,29.5z"/>
		</g>
	</g>
</g>
</svg>
