<?xml version="1.0" encoding="utf-8"?>
<!-- Generator: Adobe Illustrator 19.0.0, SVG Export Plug-In . SVG Version: 6.00 Build 0)  -->
<svg version="1.1" id="圖層_1" xmlns="http://www.w3.org/2000/svg" xmlns:xlink="http://www.w3.org/1999/xlink" x="0px" y="0px"
	 viewBox="0 0 60 60" enable-background="new 0 0 60 60" xml:space="preserve">
<g>
	<g id="橢圓_9_拷貝_9_1_">
		<g id="XMLID_125_">
			<ellipse id="XMLID_126_" fill-rule="evenodd" clip-rule="evenodd" fill="#F75E57" cx="30" cy="30" rx="30" ry="30"/>
		</g>
	</g>
	<g id="Composite_Path_8_">
		<g id="XMLID_164_">
			<path id="XMLID_165_" fill="#FFFFFF" d="M35.9,27.9c1,0,1.9-0.9,1.9-1.9c0-1-0.9-1.9-1.9-1.9c-1,0-1.9,0.9-1.9,1.9
				C34,27,34.9,27.9,35.9,27.9z M25,27.9c1,0,1.9-0.9,1.9-1.9c0-1-0.9-1.9-1.9-1.9c-1,0-1.9,0.9-1.9,1.9C23.1,27,24,27.9,25,27.9z
				 M37.2,33.4c-0.4,0-0.8,0.4-0.8,0.8c0,2.4-2,4.3-4.5,4.3h-2.6c-2.5,0-4.5-1.9-4.5-4.4c0-0.4-0.4-0.8-0.8-0.8
				c-0.4,0-0.8,0.4-0.8,0.8c0,3.3,2.7,6,6.1,6h2.6c3.4,0,6.1-2.6,6.1-5.9C38,33.7,37.7,33.4,37.2,33.4z M30.5,13.8
				c-9.1,0-16.5,7.4-16.5,16.5c0,9.1,7.4,16.5,16.5,16.5c9.1,0,16.5-7.4,16.5-16.5C47,21.2,39.6,13.8,30.5,13.8z M30.5,45.2
				c-8.2,0-14.9-6.7-14.9-14.9c0-8.2,6.7-14.9,14.9-14.9c8.2,0,14.9,6.7,14.9,14.9C45.4,38.5,38.7,45.2,30.5,45.2z"/>
		</g>
	</g>
</g>
</svg>
