<?xml version="1.0" encoding="utf-8"?>
<!-- Generator: Adobe Illustrator 19.0.0, SVG Export Plug-In . SVG Version: 6.00 Build 0)  -->
<svg version="1.1" id="圖層_1" xmlns="http://www.w3.org/2000/svg" xmlns:xlink="http://www.w3.org/1999/xlink" x="0px" y="0px"
	 viewBox="-20.5 32 60 60" style="enable-background:new -20.5 32 60 60;" xml:space="preserve">
<style type="text/css">
	.st0{fill:#F75E57;}
</style>
<g id="Path_30_">
	<g id="XMLID_63_">
		<path id="XMLID_64_" class="st0" d="M24,62c1.7-1.4,2.8-3.5,2.8-5.8c0-4.1-3.6-7.7-7.7-7.7c-0.4,0-0.7,0.2-0.9,0.5
			c-1.6-1.8-3.9-3-6.5-3c-3.1,0-5.8,1.7-7.3,4.2c-1.3-1.2-3.1-1.9-4.9-1.9c-4,0-7.3,3.3-7.3,7.5c0,2.5,1.2,4.7,3.1,6.1
			C-9.6,63.4-13,68-13,73.7c0,0.6,0.5,1.1,1.1,1.1h8.4c0.2,0,0.3,0,0.5-0.1c-0.1,0.7-0.2,1.5-0.2,2.2c0,0.6,0.5,1.1,1.1,1.1
			S-1,77.5-1,76.9C-1,69.8,4.7,64,11.7,64c5.9,0,10.8,4.1,12.2,9.6v0.1c0,0.2,0.1,0.4,0.2,0.6c0.2,0.8,0.3,1.7,0.3,2.6
			c0,0.6,0.5,1.1,1.1,1.1s1.1-0.5,1.1-1.1c0-0.7-0.1-1.4-0.2-2.1h4.5c0.6,0,1.1-0.5,1.1-1.1C32,68.4,28.7,63.8,24,62z M11.7,48.2
			c3.6,0,6.4,2.9,6.4,6.6c0,3.6-2.9,6.6-6.4,6.6c-3.6,0-6.4-2.9-6.4-6.6C5.3,51.2,8.2,48.2,11.7,48.2z M5.9,63
			C5.8,62.9,5.8,62.9,5.9,63c-0.8-0.5-1.5-0.8-2.3-1.1c0.6-0.4,1.1-0.9,1.5-1.4c0.7,0.8,1.4,1.4,2.3,2C6.9,62.6,6.4,62.7,5.9,63z
			 M-0.5,50.5c1.4,0,2.7,0.5,3.6,1.5c0.1,0.1,0.2,0.2,0.3,0.2C3.2,53,3,53.9,3,54.8c0,1.3,0.3,2.6,0.8,3.7c-0.1,0.1-0.1,0.1-0.2,0.2
			c-1,1.4-2.5,2.3-4.2,2.3c-2.8,0-5.1-2.3-5.1-5.2C-5.6,52.8-3.3,50.5-0.5,50.5z M-2.7,73c-0.2-0.2-0.5-0.4-0.8-0.4h-7.3
			c0.5-5.3,4.7-9.3,10.2-9.3c1.4,0,2.8,0.3,4.1,0.9C0.5,66.3-1.7,69.3-2.7,73z M26,72.6c-1.4-4.9-5.2-8.7-10-10.2
			c2.6-1.5,4.4-4.4,4.4-7.6c0-1.4-0.4-2.8-1-4c2.8,0.2,5.2,2.7,5.2,5.4c0,2.5-1.7,4.5-4.2,5c-0.5,0.1-0.9,0.6-0.9,1.1s0.4,1,1,1.1
			c4.9,0.5,8.7,4.4,9.2,9.1L26,72.6L26,72.6z"/>
	</g>
</g>
</svg>
