<?xml version="1.0" encoding="utf-8"?>
<!-- Generator: Adobe Illustrator 19.0.0, SVG Export Plug-In . SVG Version: 6.00 Build 0)  -->
<svg version="1.1" id="圖層_1" xmlns="http://www.w3.org/2000/svg" xmlns:xlink="http://www.w3.org/1999/xlink" x="0px" y="0px"
	 viewBox="0 0 60 60" enable-background="new 0 0 60 60" xml:space="preserve">
<g>
	<g id="橢圓_9_拷貝_10_1_">
		<g id="XMLID_126_">
			<ellipse id="XMLID_127_" fill-rule="evenodd" clip-rule="evenodd" fill="#F75E57" cx="30" cy="30" rx="30" ry="30"/>
		</g>
	</g>
	<g id="Path_102_">
		<g id="XMLID_172_">
			<path id="XMLID_173_" fill="#FFFFFF" d="M42.6,30.3c1.5-1.1,2.4-2.9,2.4-4.9c0-3.4-3.1-6.5-6.7-6.5c-0.3,0-0.6,0.2-0.8,0.4
				c-1.4-1.6-3.4-2.5-5.6-2.5c-2.7,0-5,1.4-6.3,3.5c-1.2-1-2.7-1.6-4.2-1.6c-3.5,0-6.3,2.8-6.3,6.3c0,2.1,1.1,4,2.7,5.1
				c-4.3,1.4-7.2,5.3-7.2,10.1c0,0.5,0.4,0.9,0.9,0.9h7.3c0.1,0,0.3,0,0.4-0.1c-0.1,0.6-0.2,1.2-0.2,1.9c0,0.5,0.4,0.9,0.9,0.9
				c0.5,0,0.9-0.4,0.9-0.9c0-6,4.9-10.9,11-10.9c5.1,0,9.4,3.4,10.6,8.1c0,0,0,0.1,0,0.1c0,0.2,0.1,0.4,0.2,0.5
				c0.1,0.7,0.2,1.4,0.2,2.2c0,0.5,0.4,0.9,0.9,0.9c0.5,0,0.9-0.4,0.9-0.9c0-0.6-0.1-1.2-0.1-1.8h3.9c0.5,0,0.9-0.4,0.9-0.9
				C49.5,35.7,46.7,31.8,42.6,30.3z M31.9,18.7c3.1,0,5.6,2.5,5.6,5.5c0,3-2.5,5.5-5.6,5.5c-3.1,0-5.6-2.5-5.6-5.5
				C26.3,21.2,28.8,18.7,31.9,18.7z M26.9,31.1C26.8,31.1,26.8,31.1,26.9,31.1c-0.7-0.4-1.3-0.7-2-0.9c0.5-0.3,1-0.7,1.3-1.2
				c0.6,0.7,1.2,1.2,2,1.7C27.7,30.8,27.3,30.9,26.9,31.1z M21.3,20.6c1.2,0,2.3,0.5,3.1,1.3c0.1,0.1,0.2,0.1,0.3,0.2
				c-0.2,0.7-0.3,1.4-0.3,2.2c0,1.1,0.3,2.2,0.7,3.1c-0.1,0-0.1,0.1-0.2,0.1c-0.8,1.2-2.2,1.9-3.7,1.9c-2.5,0-4.4-2-4.4-4.4
				C16.9,22.6,18.9,20.6,21.3,20.6z M19.5,39.6c-0.2-0.2-0.4-0.3-0.7-0.3h-6.3c0.4-4.5,4.1-7.8,8.8-7.8c1.2,0,2.4,0.3,3.6,0.8
				C22.2,33.9,20.3,36.5,19.5,39.6z M44.3,39.2c-1.2-4.1-4.5-7.3-8.6-8.6c2.2-1.3,3.8-3.7,3.8-6.4c0-1.2-0.3-2.4-0.8-3.4
				c2.4,0.2,4.5,2.2,4.5,4.5c0,2.1-1.5,3.8-3.6,4.3c-0.5,0.1-0.8,0.5-0.8,1c0,0.5,0.4,0.8,0.8,0.9c4.2,0.5,7.5,3.7,8,7.7H44.3z"/>
		</g>
	</g>
</g>
</svg>
