<?xml version="1.0" encoding="utf-8"?>
<!-- Generator: Adobe Illustrator 19.0.0, SVG Export Plug-In . SVG Version: 6.00 Build 0)  -->
<svg version="1.1" id="圖層_1" xmlns="http://www.w3.org/2000/svg" xmlns:xlink="http://www.w3.org/1999/xlink" x="0px" y="0px"
	 viewBox="-34.5 32 60 60" style="enable-background:new -34.5 32 60 60;" xml:space="preserve">
<style type="text/css">
	.st0{fill:#F75E57;}
</style>
<g id="Path_98_">
	<g id="XMLID_121_">
		<path id="XMLID_122_" class="st0" d="M-7.7,71.1h6.4c4.2,0,7.6-3.4,7.6-7.5v-19c0-4.2-3.4-7.5-7.6-7.5h-6.4
			c-4.1-0.1-7.5,3.3-7.5,7.4v19C-15.2,67.7-11.8,71.1-7.7,71.1z M-12.8,44.5c0-2.8,2.3-5.2,5.2-5.2h6.4c2.9,0,5.2,2.3,5.2,5.2v0.4
			h-16.8V44.5z M-12.8,47.3H3.9v7.1c-0.1,0-0.2-0.1-0.4-0.1c-0.7,0-1.3,0.6-1.3,1.3c0,0.7,0.6,1.3,1.3,1.3c0.1,0,0.3,0,0.4-0.1v4.1
			H1.6c0.4-0.2,0.6-0.6,0.6-1.1c0-0.7-0.6-1.3-1.3-1.3s-1.3,0.6-1.3,1.3c0,0.5,0.3,0.8,0.6,1.1h-3.8c0.4-0.2,0.6-0.6,0.6-1.1
			c0-0.7-0.6-1.3-1.3-1.3s-1.3,0.6-1.3,1.3c0,0.5,0.3,0.8,0.6,1.1h-3.8c0.4-0.2,0.6-0.6,0.6-1.1c0-0.7-0.6-1.3-1.3-1.3
			s-1.3,0.6-1.3,1.3c0,0.5,0.3,0.8,0.6,1.1h-2.6V47.3z M-12.8,63.2H3.9v0.4c0,2.8-2.3,5.2-5.2,5.2h-6.4c-2.9,0-5.2-2.3-5.2-5.2
			L-12.8,63.2L-12.8,63.2z M9.8,55.6c-0.7,0-1.2,0.5-1.2,1.2v10.1c0,4.6-4.3,8.1-9.3,8.1h-8.5c-4.9,0-8.4-3.6-8.4-8.1V56.8
			c0-0.7-0.5-1.2-1.2-1.2c-0.7,0-1.2,0.5-1.2,1.2v10.1c0,5.9,4.6,10.5,10.8,10.5h3.5v7.1h-3.5c-0.7,0-1.2,0.5-1.2,1.2
			c0,0.7,0.5,1.2,1.2,1.2h8.7c0.7,0,1.2-0.5,1.2-1.2c0-0.7-0.5-1.2-1.2-1.2h-2.8v-7.1h2.6c6.4,0,11.7-4.6,11.7-10.5V56.8
			C11,56.2,10.5,55.6,9.8,55.6z M1,52.6c0.7,0,1.3-0.6,1.3-1.3S1.7,50,1,50s-1.3,0.6-1.3,1.3C-0.3,52.1,0.3,52.6,1,52.6z M-4.1,52.6
			c0.7,0,1.3-0.6,1.3-1.3S-3.4,50-4.1,50s-1.3,0.6-1.3,1.3C-5.3,52.1-4.8,52.6-4.1,52.6z M-9.1,52.6c0.7,0,1.3-0.6,1.3-1.3
			S-8.4,50-9.1,50s-1.3,0.6-1.3,1.3C-10.3,52.1-9.8,52.6-9.1,52.6z M-11.6,54.3c-0.7,0-1.3,0.6-1.3,1.3c0,0.7,0.6,1.3,1.3,1.3
			c0.7,0,1.3-0.6,1.3-1.3S-10.9,54.3-11.6,54.3z M-1.5,56.8c0.7,0,1.3-0.6,1.3-1.3c0-0.7-0.6-1.3-1.3-1.3c-0.7,0-1.3,0.6-1.3,1.3
			C-2.8,56.3-2.2,56.8-1.5,56.8z M-6.6,56.8c0.7,0,1.3-0.6,1.3-1.3c0-0.7-0.6-1.3-1.3-1.3s-1.3,0.6-1.3,1.3
			C-7.8,56.3-7.3,56.8-6.6,56.8z"/>
	</g>
</g>
</svg>
