<?xml version="1.0" encoding="utf-8"?>
<!-- Generator: Adobe Illustrator 19.0.0, SVG Export Plug-In . SVG Version: 6.00 Build 0)  -->
<svg version="1.1" id="圖層_1" xmlns="http://www.w3.org/2000/svg" xmlns:xlink="http://www.w3.org/1999/xlink" x="0px" y="0px"
	 viewBox="0 0 60 60" enable-background="new 0 0 60 60" xml:space="preserve">
<g>
	<g id="橢圓_9_拷貝_13_1_">
		<g id="XMLID_137_">
			<ellipse id="XMLID_138_" fill-rule="evenodd" clip-rule="evenodd" fill="#F75E57" cx="30" cy="30" rx="30" ry="30"/>
		</g>
	</g>
	<g id="Path_拷貝_2_1_">
		<g id="XMLID_212_">
			<path id="XMLID_213_" fill="#FFFFFF" d="M28.1,37.1h4.7c3.1,0,5.6-2.5,5.6-5.6V17.4c0-3.1-2.5-5.6-5.6-5.6h-4.7
				c-3.1,0-5.6,2.5-5.6,5.6v14.1C22.5,34.6,25,37.1,28.1,37.1z M24.3,17.4c0-2.1,1.7-3.8,3.8-3.8h4.7c2.1,0,3.8,1.7,3.8,3.8v0.3
				H24.3V17.4z M24.3,19.5h12.4v5.2c-0.1,0-0.2-0.1-0.3-0.1c-0.5,0-0.9,0.4-0.9,0.9s0.4,0.9,0.9,0.9c0.1,0,0.2,0,0.3-0.1v3H35
				c0.3-0.2,0.5-0.4,0.5-0.8c0-0.5-0.4-0.9-0.9-0.9s-0.9,0.4-0.9,0.9c0,0.3,0.2,0.6,0.5,0.8h-2.8c0.3-0.2,0.5-0.4,0.5-0.8
				c0-0.5-0.4-0.9-0.9-0.9c-0.5,0-0.9,0.4-0.9,0.9c0,0.3,0.2,0.6,0.5,0.8h-2.8c0.3-0.2,0.5-0.4,0.5-0.8c0-0.5-0.4-0.9-0.9-0.9
				c-0.5,0-0.9,0.4-0.9,0.9c0,0.3,0.2,0.6,0.5,0.8h-2.3V19.5z M24.3,31.2h12.4v0.3c0,2.1-1.7,3.8-3.8,3.8h-4.7
				c-2.1,0-3.8-1.7-3.8-3.8V31.2z M41.1,25.6c-0.5,0-0.9,0.4-0.9,0.9V34c0,3.4-3.2,6-6.9,6H27c-3.6,0-6.2-2.6-6.2-6v-7.5
				c0-0.5-0.4-0.9-0.9-0.9c-0.5,0-0.9,0.4-0.9,0.9V34c0,4.4,3.4,7.8,8,7.8h2.6v5.3H27c-0.5,0-0.9,0.4-0.9,0.9c0,0.5,0.4,0.9,0.9,0.9
				h6.5c0.5,0,0.9-0.4,0.9-0.9c0-0.5-0.4-0.9-0.9-0.9h-2.1v-5.3h1.9c4.7,0,8.7-3.4,8.7-7.8v-7.5C42,26,41.6,25.6,41.1,25.6z
				 M34.6,23.4c0.5,0,0.9-0.4,0.9-0.9c0-0.5-0.4-0.9-0.9-0.9s-0.9,0.4-0.9,0.9C33.6,23,34,23.4,34.6,23.4z M30.8,23.4
				c0.5,0,0.9-0.4,0.9-0.9c0-0.5-0.4-0.9-0.9-0.9c-0.5,0-0.9,0.4-0.9,0.9C29.9,23,30.3,23.4,30.8,23.4z M27.1,23.4
				c0.5,0,0.9-0.4,0.9-0.9c0-0.5-0.4-0.9-0.9-0.9c-0.5,0-0.9,0.4-0.9,0.9C26.2,23,26.6,23.4,27.1,23.4z M25.2,24.6
				c-0.5,0-0.9,0.4-0.9,0.9s0.4,0.9,0.9,0.9s0.9-0.4,0.9-0.9S25.8,24.6,25.2,24.6z M32.7,26.5c0.5,0,0.9-0.4,0.9-0.9
				s-0.4-0.9-0.9-0.9s-0.9,0.4-0.9,0.9S32.2,26.5,32.7,26.5z M29,26.5c0.5,0,0.9-0.4,0.9-0.9s-0.4-0.9-0.9-0.9
				c-0.5,0-0.9,0.4-0.9,0.9S28.5,26.5,29,26.5z"/>
		</g>
	</g>
</g>
</svg>
