<?xml version="1.0" encoding="utf-8"?>
<!-- Generator: Adobe Illustrator 19.0.0, SVG Export Plug-In . SVG Version: 6.00 Build 0)  -->
<svg version="1.1" id="圖層_1" xmlns="http://www.w3.org/2000/svg" xmlns:xlink="http://www.w3.org/1999/xlink" x="0px" y="0px"
	 viewBox="-34.5 31.5 60 60" style="enable-background:new -34.5 31.5 60 60;" xml:space="preserve">
<style type="text/css">
	.st0{fill:#F75E57;}
</style>
<g id="Path_96_">
	<g id="XMLID_68_">
		<path id="XMLID_69_" class="st0" d="M-4.8,72.6L-4.8,72.6c6.2,0,11.5-5,11.5-11.1V50.1C6.7,44,1.7,39-4.5,39s-11.2,5-11.2,11.1
			v11.4C-15.7,67.6-11,72.6-4.8,72.6z M-13.5,50.1c0-4.9,4-8.9,9-8.9s9,4,9,8.9v0.4h-18V50.1z M-13.5,52.6h18V54h-18V52.6z
			 M-13.5,56.1h18v1.4h-18V56.1z M-13.5,59.7h18v1.8c0,4.9-4.3,8.9-9.3,8.9l0,0c-5,0-8.7-4-8.7-8.9V59.7z M9.9,55.8
			c-0.6,0-1.1,0.5-1.1,1.1v6.4c0,7.5-5.5,12.9-13.1,12.9c-7.7-0.1-13.5-5.6-13.5-12.9v-6.4c0-0.6-0.5-1.1-1.1-1.1s-1.1,0.5-1.1,1.1
			v6.4c0,8.2,6.6,14.7,15.1,15l0,0v3.6h-3.9c-0.6,0-1.1,0.5-1.1,1.1c0,0.6,0.5,1.1,1.1,1.1h8.7C0.5,84.1,1,83.6,1,83
			c0-0.6-0.5-1.1-1.1-1.1h-2.6v-3.6c0,0,0,0,0-0.1C5.2,77.5,11,71.3,11,63.3v-6.4C11,56.3,10.5,55.8,9.9,55.8z"/>
	</g>
</g>
</svg>
