<?xml version="1.0" encoding="utf-8"?>
<!-- Generator: Adobe Illustrator 19.0.0, SVG Export Plug-In . SVG Version: 6.00 Build 0)  -->
<svg version="1.1" id="圖層_1" xmlns="http://www.w3.org/2000/svg" xmlns:xlink="http://www.w3.org/1999/xlink" x="0px" y="0px"
	 viewBox="0 0 60 60" enable-background="new 0 0 60 60" xml:space="preserve">
<g>
	<g id="橢圓_9_拷貝_12_1_">
		<g id="XMLID_128_">
			<ellipse id="XMLID_129_" fill-rule="evenodd" clip-rule="evenodd" fill="#F75E57" cx="30" cy="30" rx="30" ry="30"/>
		</g>
	</g>
	<g id="Path_拷貝_4_1_">
		<g id="XMLID_191_">
			<path id="XMLID_192_" fill="#FFFFFF" d="M44.5,21.4H43V21c0-1.3-0.9-2.4-2.2-2.4h-0.3c-1.3,0-1.9,1.1-1.9,2.4v0.4h-2.2l-0.6-3.1
				c-0.4-1.5-1.7-2.5-3.2-2.5h-4.2c-1.5,0-2.9,1-3.2,2.6l-0.6,3H16c-1.8,0-3,1.5-3,3.4v15.9c0,1.8,1.2,3.1,3,3.1h28.5
				c1.9,0,3.5-1.4,3.5-3.1V24.8C48,23,46.3,21.4,44.5,21.4z M46.3,40.7c0,0.8-0.9,1.5-1.8,1.5H16c-0.9,0-1.4-0.6-1.4-1.5V24.8
				c0-0.9,0.5-1.7,1.4-1.7h9.1c0.4,0,0.7-0.3,0.8-0.7l0.8-3.7c0.2-0.7,0.8-1.2,1.6-1.2h4.2c0.8,0,1.4,0.5,1.6,1.2l0.8,3.7
				c0.1,0.4,0.4,0.7,0.8,0.7h8.8c0.8,0,1.8,0.8,1.8,1.7V40.7z M30.1,26.7c-3.1,0-5.6,2.5-5.6,5.6c0,3.1,2.5,5.6,5.6,5.6
				c3.1,0,5.6-2.5,5.6-5.6C35.6,29.2,33.2,26.7,30.1,26.7z M30.1,36.2c-2.1,0-3.9-1.8-3.9-3.9c0-2.2,1.7-3.9,3.9-3.9
				s3.9,1.8,3.9,3.9C34,34.5,32.2,36.2,30.1,36.2z M30.1,23.7c-4.7,0-8.5,3.9-8.5,8.6c0,4.7,3.8,8.6,8.5,8.6c4.7,0,8.5-3.9,8.5-8.6
				C38.6,27.6,34.8,23.7,30.1,23.7z M30.1,39.2c-3.8,0-6.9-3.1-6.9-6.9c0-3.8,3.1-6.9,6.9-6.9s6.9,3.1,6.9,6.9
				C37,36.1,33.9,39.2,30.1,39.2z M18.3,19.7h4.4c0.5,0,0.8-0.4,0.8-0.8c0-0.5-0.4-0.8-0.8-0.8h-4.4c-0.5,0-0.8,0.4-0.8,0.8
				C17.5,19.4,17.9,19.7,18.3,19.7z"/>
		</g>
	</g>
</g>
</svg>
