<?xml version="1.0" encoding="utf-8"?>
<!-- Generator: Adobe Illustrator 19.0.0, SVG Export Plug-In . SVG Version: 6.00 Build 0)  -->
<svg version="1.1" id="圖層_1" xmlns="http://www.w3.org/2000/svg" xmlns:xlink="http://www.w3.org/1999/xlink" x="0px" y="0px"
	 viewBox="-21 31.5 60 60" style="enable-background:new -21 31.5 60 60;" xml:space="preserve">
<style type="text/css">
	.st0{fill:#F75E57;}
</style>
<g id="Path_88_">
	<g id="XMLID_88_">
		<path id="XMLID_89_" class="st0" d="M26.6,51h-1.9v-0.5c0-1.7-1.1-3-2.8-3h-0.4c-1.7,0-2.4,1.3-2.4,3V51h-2.7l-0.8-3.8
			c-0.5-1.9-2.1-3.2-4-3.2H6.3c-1.9,0-3.6,1.3-4.1,3.2L1.4,51H-9.2c-2.2,0-3.8,1.9-3.8,4.2V75c0,2.3,1.5,4,3.8,4h35.8
			c2.3,0,4.4-1.7,4.4-3.9V55.2C31,52.9,28.8,51,26.6,51z M28.9,75.1c0,1.1-1.1,1.8-2.3,1.8H-9.2c-1.2,0-1.7-0.8-1.7-1.8V55.2
			c0-1.1,0.6-2.1,1.7-2.1H2.2c0.5,0,0.9-0.3,1-0.8l1-4.6c0.2-0.9,1.1-1.6,2-1.6h5.3c1,0,1.8,0.6,2,1.5l1,4.6c0.1,0.5,0.5,0.8,1,0.8
			h11.1c1.1,0,2.3,1,2.3,2.1C28.9,55.1,28.9,75.1,28.9,75.1z M8.5,57.6c-3.8,0-7,3.1-7,7s3.1,7,7,7c3.8,0,7-3.1,7-7
			C15.5,60.8,12.3,57.6,8.5,57.6z M8.5,69.5c-2.7,0-4.9-2.2-4.9-4.9c0-2.7,2.2-4.9,4.9-4.9s4.9,2.2,4.9,4.9
			C13.4,67.3,11.2,69.5,8.5,69.5z M8.5,53.9c-5.9,0-10.7,4.8-10.7,10.7S2.6,75.3,8.5,75.3s10.7-4.8,10.7-10.7S14.4,53.9,8.5,53.9z
			 M8.5,73.3c-4.8,0-8.6-3.9-8.6-8.6c0-4.8,3.9-8.6,8.6-8.6c4.8,0,8.6,3.9,8.6,8.6C17.1,69.4,13.2,73.3,8.5,73.3z M-6.3,48.9h5.6
			c0.6,0,1-0.5,1-1c0-0.6-0.5-1-1-1h-5.6c-0.6,0-1,0.5-1,1C-7.4,48.4-6.9,48.9-6.3,48.9z"/>
	</g>
</g>
</svg>
