<?xml version="1.0" encoding="utf-8"?>
<!-- Generator: Adobe Illustrator 19.0.0, SVG Export Plug-In . SVG Version: 6.00 Build 0)  -->
<svg version="1.1" id="圖層_1" xmlns="http://www.w3.org/2000/svg" xmlns:xlink="http://www.w3.org/1999/xlink" x="0px" y="0px"
	 viewBox="-20.5 31.5 60 60" style="enable-background:new -20.5 31.5 60 60;" xml:space="preserve">
<style type="text/css">
	.st0{fill:#F75E57;}
</style>
<g id="Composite_Path_28_">
	<g id="XMLID_68_">
		<path id="XMLID_69_" class="st0" d="M25.2,44H-6.2c-3.8,0-6.8,3-6.8,6.8v21.4c0,3.8,3,6.8,6.8,6.8h31.4c3.7,0,6.8-3,6.8-6.8V50.8
			C32,47,29,44,25.2,44z M29.9,72.2c0,2.6-2.1,4.6-4.6,4.6H-6.2c-2.6,0-4.6-2.1-4.6-4.6V50.8c0-2.6,2.1-4.6,4.6-4.6h31.4
			c2.6,0,4.6,2.1,4.6,4.6v21.4H29.9z M19.9,57.3c-0.3-0.2-0.9-0.2-1.2,0l-4.5,2.5v-0.4c0-1.4-1.1-2.5-2.5-2.5H3.1
			c-1.4,0-2.5,1.1-2.5,2.5v6.4c0,1.4,1.1,2.5,2.5,2.5h8.6c1.4,0,2.5-1.1,2.5-2.5v-0.3l4.5,2.8c0.2,0.1,0.4,0.2,0.6,0.2
			c0.2,0,0.5,0,0.7-0.1c0.3-0.2,0.7-0.5,0.7-0.9v-9.2C20.6,57.8,20.2,57.4,19.9,57.3z M12,61.3c0,0.1,0,0.2,0,0.3v1v3.1
			c0,0.2-0.2,0.4-0.4,0.4H3c-0.2,0-0.4-0.2-0.4-0.4v-6.4c0-0.2,0.2-0.4,0.4-0.4h8.6c0.2,0,0.4,0.2,0.4,0.4V61.3z M18.4,65.4
			l-4.1-2.5l0.1-0.7l4.1-2.2v5.4H18.4z"/>
	</g>
</g>
</svg>
