<?xml version="1.0" encoding="utf-8"?>
<!-- Generator: Adobe Illustrator 19.0.0, SVG Export Plug-In . SVG Version: 6.00 Build 0)  -->
<svg version="1.1" id="圖層_1" xmlns="http://www.w3.org/2000/svg" xmlns:xlink="http://www.w3.org/1999/xlink" x="0px" y="0px"
	 viewBox="0 0 60 60" enable-background="new 0 0 60 60" xml:space="preserve">
<g id="XMLID_106_">
	<g id="橢圓_9_拷貝_16_1_">
		<g id="XMLID_132_">
			<ellipse id="XMLID_133_" fill-rule="evenodd" clip-rule="evenodd" fill="#F75E57" cx="30" cy="30" rx="30" ry="30"/>
		</g>
	</g>
	<g id="Composite_Path_拷貝_3_1_">
		<g id="XMLID_180_">
			<path id="XMLID_181_" fill="#FFFFFF" d="M42.7,16.8H18.3c-2.9,0-5.3,2.3-5.3,5.2v16.5c0,2.9,2.4,5.2,5.3,5.2h24.4
				c2.9,0,5.3-2.3,5.3-5.2V22C48,19.2,45.6,16.8,42.7,16.8z M46.3,38.6c0,2-1.6,3.6-3.6,3.6H18.3c-2,0-3.6-1.6-3.6-3.6V22
				c0-2,1.6-3.6,3.6-3.6h24.4c2,0,3.6,1.6,3.6,3.6V38.6z M38.6,27c-0.3-0.1-0.7-0.2-0.9,0l-3.5,1.9v-0.3c0-1.1-0.9-1.9-1.9-1.9h-6.7
				c-1.1,0-1.9,0.9-1.9,1.9v5c0,1.1,0.9,1.9,1.9,1.9h6.7c1.1,0,1.9-0.9,1.9-1.9v-0.3l3.5,2.2c0.1,0.1,0.3,0.1,0.4,0.1
				c0.1,0,0.4,0,0.5-0.1c0.3-0.1,0.6-0.4,0.6-0.7v-7.1C39.1,27.5,38.8,27.2,38.6,27z M32.4,30.2c0,0.1,0,0.1,0,0.2l0,0.8v2.4
				c0,0.2-0.1,0.3-0.3,0.3h-6.7c-0.2,0-0.3-0.1-0.3-0.3v-5c0-0.2,0.1-0.3,0.3-0.3h6.7c0.2,0,0.3,0.1,0.3,0.3V30.2z M37.4,33.3
				l-3.2-1.9l0-0.6l3.2-1.7V33.3z"/>
		</g>
	</g>
</g>
</svg>
