<?xml version="1.0" encoding="utf-8"?>
<!-- Generator: Adobe Illustrator 19.0.0, SVG Export Plug-In . SVG Version: 6.00 Build 0)  -->
<svg version="1.1" id="圖層_1" xmlns="http://www.w3.org/2000/svg" xmlns:xlink="http://www.w3.org/1999/xlink" x="0px" y="0px"
	 viewBox="-20.5 31.5 60 60" style="enable-background:new -20.5 31.5 60 60;" xml:space="preserve">
<style type="text/css">
	.st0{fill:#F75E57;}
</style>
<g id="Composite_Path_30_">
	<g id="XMLID_62_">
		<path id="XMLID_63_" class="st0" d="M25.2,44H-6.1c-3.7,0-6.8,3-6.8,6.8v20c0,0-0.2,0.1-0.1,0.1c0,0.3,0.1,0.7,0.1,1v0.3
			c0,3.7,3,6.8,6.8,6.8h31.3c3.7,0,6.8-3,6.8-6.8V50.8C32,47,29,44,25.2,44z M-4.9,76.7c-0.2,0-5.8-0.1-5.8-5.9v-6.9l7.5-4l4.4,2.4
			c0.4,0.2,0.9,0.1,1.2-0.2l6.8-6.5L13,69.2c0.1,0.4,0.4,0.7,0.8,0.7c0.4,0.1,0.8,0,1-0.3l4.9-4.9L24,76.6L-4.9,76.7z M29.9,72.2
			c0,2.2-1.6,4.1-3.7,4.5v-0.1v-0.1l-5-14.1c-0.1-0.3-0.4-0.6-0.8-0.7c-0.4-0.1-0.7,0-1,0.3l-4.8,4.8l-3.8-13.4
			c-0.1-0.4-0.4-0.6-0.7-0.7c-0.4-0.1-0.7,0-1,0.3l-7.6,7.1l-4.4-2.3c-0.3-0.2-0.6-0.2-0.9,0l-6.9,3.6V50.8c0-2.6,2.1-4.6,4.6-4.6
			h31.3c2.6,0,4.6,2.1,4.6,4.6v21.4H29.9z M19.5,51.3c-2.4,0-4.4,2-4.4,4.4s2,4.4,4.4,4.4s4.4-2,4.4-4.4S21.9,51.3,19.5,51.3z
			 M19.5,58c-1.2,0-2.3-1-2.3-2.3s1-2.3,2.3-2.3c1.2,0,2.3,1,2.3,2.3C21.8,56.9,20.8,58,19.5,58z"/>
	</g>
</g>
</svg>
