<?xml version="1.0" encoding="utf-8"?>
<!-- Generator: Adobe Illustrator 19.0.0, SVG Export Plug-In . SVG Version: 6.00 Build 0)  -->
<svg version="1.1" id="圖層_1" xmlns="http://www.w3.org/2000/svg" xmlns:xlink="http://www.w3.org/1999/xlink" x="0px" y="0px"
	 viewBox="0 0 60 60" enable-background="new 0 0 60 60" xml:space="preserve">
<g>
	<g id="橢圓_9_拷貝_17_1_">
		<g id="XMLID_126_">
			<ellipse id="XMLID_127_" fill-rule="evenodd" clip-rule="evenodd" fill="#F75E57" cx="30" cy="30" rx="30" ry="30"/>
		</g>
	</g>
	<g id="Composite_Path_拷貝_2_1_">
		<g id="XMLID_171_">
			<path id="XMLID_172_" fill="#FFFFFF" d="M42.7,16.8H18.4c-2.9,0-5.3,2.3-5.3,5.2v15.4c0,0-0.1,0.1-0.1,0.1c0,0.3,0.1,0.5,0.1,0.8
				v0.2c0,2.9,2.4,5.2,5.3,5.2h24.4c2.9,0,5.3-2.3,5.3-5.2V22C48,19.2,45.6,16.8,42.7,16.8z M19.3,42c-0.2,0-4.5-0.1-4.5-4.6v-5.3
				l5.8-3.1l3.4,1.8c0.3,0.2,0.7,0.1,1-0.1l5.3-5l2.9,10.4c0.1,0.3,0.3,0.5,0.6,0.6c0.3,0.1,0.6,0,0.8-0.2l3.8-3.8l3.3,9.1L19.3,42z
				 M46.3,38.6c0,1.7-1.2,3.2-2.8,3.5l0-0.1c0,0,0-0.1,0-0.1l-3.9-10.9c-0.1-0.3-0.3-0.5-0.6-0.5c-0.3-0.1-0.6,0-0.8,0.2l-3.7,3.7
				l-2.9-10.4c-0.1-0.3-0.3-0.5-0.6-0.6c-0.3-0.1-0.6,0-0.8,0.2l-5.9,5.5l-3.4-1.8c-0.2-0.1-0.5-0.1-0.7,0l-5.4,2.8V22
				c0-2,1.6-3.6,3.6-3.6h24.4c2,0,3.6,1.6,3.6,3.6V38.6z M38.3,22.4c-1.9,0-3.4,1.5-3.4,3.4c0,1.9,1.5,3.4,3.4,3.4
				c1.9,0,3.4-1.5,3.4-3.4C41.7,24,40.2,22.4,38.3,22.4z M38.3,27.6c-1,0-1.8-0.8-1.8-1.8c0-1,0.8-1.8,1.8-1.8c1,0,1.8,0.8,1.8,1.8
				C40.1,26.8,39.3,27.6,38.3,27.6z"/>
		</g>
	</g>
</g>
</svg>
