<?xml version="1.0" encoding="utf-8"?>
<!-- Generator: Adobe Illustrator 19.0.0, SVG Export Plug-In . SVG Version: 6.00 Build 0)  -->
<svg version="1.1" id="圖層_1" xmlns="http://www.w3.org/2000/svg" xmlns:xlink="http://www.w3.org/1999/xlink" x="0px" y="0px"
	 viewBox="-22.5 31.5 60 60" style="enable-background:new -22.5 31.5 60 60;" xml:space="preserve">
<style type="text/css">
	.st0{fill:#F75E57;}
</style>
<g id="Path_84_">
	<g id="XMLID_53_">
		<path id="XMLID_54_" class="st0" d="M28.3,46.4l-5.7-5.7c-0.9-0.9-2.5-0.9-3.3,0l-1.9,1.9c-0.4,0.4-0.7,1-0.7,1.7s0.2,1.2,0.7,1.7
			l0.2,0.2l-2.3,2.3L15,48.3c-0.9-0.9-2.5-0.9-3.3,0L-4,63.9c-0.4,0.4-0.7,1-0.7,1.7c0,0.6,0.2,1.2,0.7,1.7l0.7,0.7L-4,68.7
			c-0.4,0.4-0.7,1-0.7,1.7c0,0.5,0.2,1,0.5,1.4l-9.5,9.5c-0.4,0.4-0.4,1,0,1.4c0.2,0.2,0.5,0.3,0.7,0.3s0.5-0.1,0.7-0.3l9.5-9.5
			c0.4,0.3,0.9,0.5,1.4,0.5c0.6,0,1.2-0.2,1.7-0.7L1,72.3L1.7,73c0.4,0.4,1,0.7,1.7,0.7s1.2-0.2,1.7-0.7l15.7-15.7
			c0.4-0.4,0.7-1,0.7-1.7c0-0.6-0.2-1.2-0.7-1.7l-0.2-0.2l2.3-2.3l0.2,0.2c0.4,0.4,1,0.7,1.7,0.7c0.6,0,1.2-0.2,1.7-0.7l1.9-1.9
			C29.2,48.8,29.2,47.3,28.3,46.4z M-1.1,71.5c-0.2,0.2-0.3,0.2-0.4,0l-0.9-0.9c-0.1-0.1-0.1-0.2-0.1-0.2s0-0.1,0.1-0.2l0.7-0.7
			l0.7,0.7l0.7,0.7L-1.1,71.5z M19.3,55.9L3.6,71.5c-0.2,0.2-0.3,0.2-0.4,0l-1.4-1.4l0,0L-1,67.3l0,0l-1.4-1.4
			c-0.1-0.1-0.1-0.2-0.1-0.2s0-0.1,0.1-0.2l15.5-15.8c0.1-0.1,0.2-0.1,0.2-0.1s0.1,0,0.2,0.1l0.9,0.9l0,0l1.9,1.9l2.8,2.8
			c0.1,0.1,0.1,0.2,0.1,0.2C19.4,55.7,19.3,55.8,19.3,55.9z M19,52.3l-2.3-2.4l2.3-2.3l1.2,1.2l1.2,1.2L19,52.3z M26.9,48.3L25,50.2
			c-0.1,0.1-0.2,0.1-0.2,0.1s-0.1,0-0.2-0.1l-0.9-0.9l0,0L22,47.7l-3.2-3.2c-0.1-0.1-0.1-0.2-0.1-0.2c0-0.1,0-0.1,0.1-0.2l1.9-1.9
			c0.1-0.2,0.2-0.2,0.2-0.2c0.1,0,0.1,0,0.2,0.1l5.7,5.7C27,47.9,27,48.1,26.9,48.3z"/>
	</g>
</g>
</svg>
