<?xml version="1.0" encoding="utf-8"?>
<!-- Generator: Adobe Illustrator 19.0.0, SVG Export Plug-In . SVG Version: 6.00 Build 0)  -->
<svg version="1.1" id="圖層_1" xmlns="http://www.w3.org/2000/svg" xmlns:xlink="http://www.w3.org/1999/xlink" x="0px" y="0px"
	 viewBox="5 -5 60 60" enable-background="new 5 -5 60 60" xml:space="preserve">
<g>
	<g id="橢圓_9_拷貝_14_1_">
		<g>
			<ellipse fill-rule="evenodd" clip-rule="evenodd" fill="#F75E57" cx="35" cy="25" rx="30" ry="30"/>
		</g>
	</g>
	<g id="Path_拷貝_5_1_">
		<g>
			<path fill="#FFFFFF" d="M49.5,14.4l-4.1-4.1c-0.6-0.6-1.8-0.6-2.4,0l-1.4,1.4c-0.3,0.3-0.5,0.8-0.5,1.2s0.2,0.9,0.5,1.2l0.2,0.2
				l-1.7,1.7l-0.2-0.2c-0.6-0.6-1.8-0.6-2.4,0L26.2,27.1c-0.3,0.3-0.5,0.8-0.5,1.2c0,0.5,0.2,0.9,0.5,1.2l0.5,0.5l-0.5,0.5
				c-0.3,0.3-0.5,0.8-0.5,1.2c0,0.4,0.1,0.7,0.3,1l-6.8,6.9c-0.3,0.3-0.3,0.8,0,1c0.1,0.1,0.3,0.2,0.5,0.2c0.2,0,0.4-0.1,0.5-0.2
				l6.8-6.9c0.3,0.2,0.6,0.3,1,0.3c0.5,0,0.9-0.2,1.2-0.5l0.5-0.5l0.5,0.5c0.3,0.3,0.8,0.5,1.2,0.5c0.5,0,0.9-0.2,1.2-0.5L44,22.3
				c0.3-0.3,0.5-0.8,0.5-1.2c0-0.5-0.2-0.9-0.5-1.2l-0.2-0.2l1.7-1.7l0.2,0.2c0.3,0.3,0.8,0.5,1.2,0.5c0.5,0,0.9-0.2,1.2-0.5
				l1.4-1.4C50.2,16.1,50.2,15.1,49.5,14.4z M28.3,32.5c-0.1,0.1-0.2,0.1-0.3,0l-0.7-0.7c-0.1-0.1-0.1-0.1-0.1-0.2
				c0,0,0-0.1,0.1-0.2l0.5-0.5l0.5,0.5l0.5,0.5L28.3,32.5z M43,21.2L31.7,32.5c-0.1,0.1-0.2,0.1-0.3,0l-1-1c0,0,0,0,0,0l-2.1-2.1
				l0,0l-1-1c-0.1-0.1-0.1-0.1-0.1-0.2c0,0,0-0.1,0.1-0.2l11.3-11.3c0.1-0.1,0.1-0.1,0.2-0.1c0,0,0.1,0,0.2,0.1l0.7,0.7l0,0l2.7,2.7
				c0,0,0,0,0,0l0.7,0.7C43,21,43,21,43,21.1C43,21.1,43,21.2,43,21.2z M42.8,18.7L41.1,17l1.7-1.7l0.9,0.9l0.8,0.8L42.8,18.7z
				 M48.4,15.8l-1.4,1.4c-0.1,0.1-0.1,0.1-0.2,0.1c0,0-0.1,0-0.2-0.1l-0.7-0.7c0,0,0,0,0,0l-1.4-1.4L42.7,13
				c-0.1-0.1-0.1-0.1-0.1-0.2s0-0.1,0.1-0.2l1.4-1.4c0.1-0.1,0.1-0.1,0.2-0.1c0,0,0.1,0,0.2,0.1l4.1,4.1
				C48.5,15.5,48.5,15.7,48.4,15.8z"/>
		</g>
	</g>
</g>
</svg>
