<?xml version="1.0" encoding="utf-8"?>
<!-- Generator: Adobe Illustrator 19.0.0, SVG Export Plug-In . SVG Version: 6.00 Build 0)  -->
<svg version="1.1" id="圖層_1" xmlns="http://www.w3.org/2000/svg" xmlns:xlink="http://www.w3.org/1999/xlink" x="0px" y="0px"
	 viewBox="-37 31.5 60 60" style="enable-background:new -37 31.5 60 60;" xml:space="preserve">
<style type="text/css">
	.st0{fill:#F75E57;}
</style>
<g id="Composite_Path_26_">
	<g id="XMLID_32_">
		<path id="XMLID_33_" class="st0" d="M4.2,74.5c1.1-3.1,2.8-8.6,0.5-10.3c-1.7-1.3-4.2,0.3-6,1.6c-1.7,1.3-4.1,2.6-5.8,1.9
			c-1.6-0.7-2.4-3.1-2.7-4.6C-8.1,62.5-5,60-2.7,49.3h0.5c0.5,0,0.9-0.3,1-0.7C-1,48.5,0.5,44.9-1,42c-0.8-1.5-2.3-2.5-4.4-2.9h-0.1
			c-0.2,0-0.4-0.1-0.7-0.1h-1.6c-0.8,0-1.5,0.6-1.5,1.4v0.1c0,0.8,0.7,1.4,1.5,1.4h1.6c0.4,0,0.8-0.2,1-0.4c1,0.3,1.7,0.8,2.1,1.6
			c0.7,1.3,0.4,3.1,0.1,4h-0.6c-0.5,0-1,0.4-1.1,0.9c-2.4,11.9-5.5,13-5.9,13.1c-0.2-0.1-0.1-0.1-0.3,0c-0.4-0.1-3.5-1.2-5.9-13.1
			c-0.1-0.5-0.6-0.9-1.1-0.9h-0.6c-0.2-1-0.5-2.7,0.2-4.1c0.4-0.7,1.1-1.2,2-1.5c0.3,0.3,0.7,0.4,1.1,0.4h1.6c0.8,0,1.5-0.6,1.5-1.4
			v-0.1c-0.1-0.8-0.7-1.4-1.5-1.4h-1.6c-0.2,0-0.3,0-0.4,0.1c-0.1,0-0.2,0-0.3,0c-2.1,0.4-3.6,1.4-4.4,2.9c-1.6,2.9-0.1,6.5,0,6.7
			c0.2,0.4,0.6,0.7,1,0.7h0.4c2.2,10,5.1,12.9,6.9,13.6c0.2,1.5,1.1,5.4,4.1,6.7c2.2,1,4.9,0.3,8.1-2.1C2.7,65.7,3.4,66,3.4,66
			C4,66.4,3.5,70,2,74H1.9c-2.8,0-5.1,2.3-5.1,5c0,2.8,2.3,5,5.1,5S7,81.7,7,79C7,77,5.9,75.4,4.2,74.5z M1.9,81.8
			C0.3,81.8-1,80.5-1,79s1.3-2.8,2.9-2.8s2.9,1.3,2.9,2.8S3.5,81.8,1.9,81.8z"/>
	</g>
</g>
</svg>
