<?xml version="1.0" encoding="utf-8"?>
<!-- Generator: Adobe Illustrator 19.0.0, SVG Export Plug-In . SVG Version: 6.00 Build 0)  -->
<svg version="1.1" id="圖層_1" xmlns="http://www.w3.org/2000/svg" xmlns:xlink="http://www.w3.org/1999/xlink" x="0px" y="0px"
	 viewBox="5 -5 60 60" enable-background="new 5 -5 60 60" xml:space="preserve">
<g>
	<g id="橢圓_9_拷貝_15_1_">
		<g>
			<ellipse fill-rule="evenodd" clip-rule="evenodd" fill="#F75E57" cx="35" cy="25" rx="30" ry="30"/>
		</g>
	</g>
	<g id="Composite_Path_拷貝_4_1_">
		<g>
			<path fill="#FFFFFF" d="M44.7,36c0.9-2.5,2.3-7.1,0.4-8.5c-1.4-1-3.5,0.3-4.9,1.3c-1.4,1-3.4,2.1-4.8,1.5c-1.3-0.6-2-2.5-2.2-3.8
				c1.4-0.5,3.9-2.6,5.8-11.4h0.4c0.4,0,0.7-0.2,0.9-0.6c0.1-0.1,1.3-3.1,0-5.4c-0.7-1.2-1.9-2-3.6-2.4c0,0-0.1,0-0.1,0
				c-0.2-0.1-0.3-0.1-0.5-0.1h-1.3c-0.7,0-1.2,0.5-1.2,1.2v0c0,0.7,0.5,1.2,1.2,1.2h1.3c0.3,0,0.6-0.1,0.9-0.4
				c0.8,0.3,1.4,0.7,1.7,1.3c0.6,1.1,0.3,2.5,0.1,3.3h-0.5c-0.4,0-0.8,0.3-0.9,0.7c-2,9.8-4.5,10.7-4.9,10.7c-0.1-0.1-0.1-0.1-0.3,0
				c-0.3-0.1-2.9-1-4.9-10.7c-0.1-0.4-0.5-0.7-0.9-0.7h-0.4c-0.2-0.8-0.5-2.3,0.1-3.4c0.3-0.6,0.9-1,1.7-1.3
				c0.2,0.2,0.5,0.4,0.9,0.4H30c0.7,0,1.2-0.5,1.2-1.2v0c0-0.7-0.5-1.2-1.2-1.2h-1.3c-0.1,0-0.2,0-0.3,0.1c-0.1,0-0.2,0-0.3,0
				c-1.7,0.3-2.9,1.1-3.6,2.4c-1.3,2.3-0.1,5.3,0,5.5c0.1,0.3,0.5,0.6,0.9,0.6h0.3c1.8,8.3,4.2,10.7,5.6,11.3
				c0.2,1.2,0.9,4.4,3.3,5.5c1.8,0.8,4.1,0.2,6.7-1.7c2.1-1.5,2.7-1.3,2.7-1.3c0.5,0.4,0.1,3.3-1.1,6.6c0,0-0.1,0-0.1,0
				c-2.3,0-4.2,1.9-4.2,4.1s1.9,4.1,4.2,4.1c2.3,0,4.2-1.9,4.2-4.1C47,38.1,46.1,36.7,44.7,36z M42.8,42c-1.3,0-2.3-1-2.3-2.3
				c0-1.3,1.1-2.3,2.3-2.3s2.3,1,2.3,2.3C45.2,41,44.1,42,42.8,42z"/>
		</g>
	</g>
</g>
</svg>
