<?xml version="1.0" encoding="utf-8"?>
<!-- Generator: Adobe Illustrator 19.0.0, SVG Export Plug-In . SVG Version: 6.00 Build 0)  -->
<svg version="1.1" id="圖層_1" xmlns="http://www.w3.org/2000/svg" xmlns:xlink="http://www.w3.org/1999/xlink" x="0px" y="0px"
	 viewBox="-25 32 60 60" style="enable-background:new -25 32 60 60;" xml:space="preserve">
<style type="text/css">
	.st0{fill:#F75E57;}
</style>
<g id="Path_82_">
	<g id="XMLID_72_">
		<path id="XMLID_73_" class="st0" d="M21.5,48.4h-9.2v-3.5c0-0.5-0.7-0.9-1.2-0.9H-2.3C-2.8,44-3,44.4-3,44.9v3.5h-8.5
			c-1.9,0-3.5,1.6-3.5,3.5v24.6c0,1.9,1.6,3.5,3.5,3.5h33c1.9,0,3.5-1.6,3.5-3.5V51.9C25,50,23.4,48.4,21.5,48.4z M-1,45.9h11.4v2.5
			H-1V45.9z M23.1,76.5c0,0.9-0.7,1.6-1.6,1.6h-33c-0.9,0-1.6-0.7-1.6-1.6V64.8h3.8v2.8c0,0.5,0.4,0.9,1,0.9h5.1c0.5,0,1-0.4,1-0.9
			v-2.8h14.6v2.8c0,0.5,0.4,0.9,1,0.9h5.1c0.5,0,1-0.4,1-0.9v-2.8h3.8v11.7H23.1z M-7.4,66.7v-1.3h3.2v1.3H-7.4z M14.2,66.7v-1.3
			h3.2v1.3H14.2z M23.1,62.9h-36.2v-11c0-0.9,0.7-1.6,1.6-1.6h33c0.9,0,1.6,0.7,1.6,1.6V62.9z M8.2,56H5.9v-3.2c0-0.5-0.4-0.9-1-0.9
			c-0.5,0-1,0.4-1,0.9V56H1.1c-0.5,0-1,0.4-1,0.9s0.4,0.9,1,0.9H4v2.5c0,0.5,0.4,0.9,1,0.9c0.5,0,1-0.4,1-0.9v-2.5h2.3
			c0.5,0,1-0.4,1-0.9C9.2,56.4,8.7,56,8.2,56z"/>
	</g>
</g>
</svg>
