<?xml version="1.0" encoding="utf-8"?>
<!-- Generator: Adobe Illustrator 19.0.0, SVG Export Plug-In . SVG Version: 6.00 Build 0)  -->
<svg version="1.1" id="圖層_1" xmlns="http://www.w3.org/2000/svg" xmlns:xlink="http://www.w3.org/1999/xlink" x="0px" y="0px"
	 viewBox="5 -5 60 60" enable-background="new 5 -5 60 60" xml:space="preserve">
<g>
	<g id="橢圓_9_拷貝_18_1_">
		<g>
			<ellipse fill-rule="evenodd" clip-rule="evenodd" fill="#F75E57" cx="35" cy="25" rx="30" ry="30"/>
		</g>
	</g>
	<g id="Path_拷貝_6_1_">
		<g>
			<path fill="#FFFFFF" d="M49.1,13.5h-7.6v-2.9c0-0.4-0.6-0.8-1-0.8h-11c-0.4,0-0.6,0.4-0.6,0.8v2.9h-7.1c-1.6,0-2.9,1.3-2.9,2.9
				v20.5c0,1.6,1.3,2.9,2.9,2.9h27.2c1.6,0,2.9-1.3,2.9-2.9V16.4C52,14.8,50.7,13.5,49.1,13.5z M30.5,11.4H40v2.1h-9.4V11.4z
				 M50.4,36.9c0,0.7-0.6,1.3-1.3,1.3H21.9c-0.7,0-1.3-0.6-1.3-1.3v-9.7h3.1v2.4c0,0.4,0.4,0.8,0.8,0.8h4.2c0.4,0,0.8-0.4,0.8-0.8
				v-2.4h12v2.4c0,0.4,0.4,0.8,0.8,0.8h4.2c0.4,0,0.8-0.4,0.8-0.8v-2.4h3.1V36.9z M25.3,28.8v-1.1h2.6v1.1H25.3z M43.1,28.8v-1.1
				h2.6v1.1H43.1z M50.4,25.6H20.6v-9.2c0-0.7,0.6-1.3,1.3-1.3h27.2c0.7,0,1.3,0.6,1.3,1.3V25.6z M38.2,19.8h-1.9v-2.6
				c0-0.4-0.4-0.8-0.8-0.8c-0.4,0-0.8,0.4-0.8,0.8v2.6h-2.3c-0.4,0-0.8,0.4-0.8,0.8s0.4,0.8,0.8,0.8h2.3v2.1c0,0.4,0.4,0.8,0.8,0.8
				c0.4,0,0.8-0.4,0.8-0.8v-2.1h1.9c0.4,0,0.8-0.4,0.8-0.8S38.6,19.8,38.2,19.8z"/>
		</g>
	</g>
</g>
</svg>
