<?xml version="1.0" encoding="utf-8"?>
<!-- Generator: Adobe Illustrator 19.0.0, SVG Export Plug-In . SVG Version: 6.00 Build 0)  -->
<svg version="1.1" id="圖層_1" xmlns="http://www.w3.org/2000/svg" xmlns:xlink="http://www.w3.org/1999/xlink" x="0px" y="0px"
	 viewBox="-13 31.5 60 60" style="enable-background:new -13 31.5 60 60;" xml:space="preserve">
<style type="text/css">
	.st0{fill:#F75E57;}
</style>
<g id="Path_42_">
	<g id="XMLID_31_">
		<path id="XMLID_32_" class="st0" d="M31.4,48.4c-5.3-1.1-10.7,0.5-14.3,4.3c-1.4-0.5-2.8-0.7-4.2-0.7c-5,0-9.5,2.8-11.6,7.2
			c-2.7-0.3-5.1,0.6-7.3,2.7c-2,1.9-3.1,4.2-3,6.7c0,1.4,0.3,2.7,0.9,3.9c0.3,0.6,1.1,0.9,1.7,0.6c0.6-0.3,0.9-1.1,0.6-1.7
			c-0.4-0.9-0.7-1.8-0.7-2.8c0-1.7,0.8-3.5,2.3-4.8c2.4-2.3,4.5-2.2,6-1.9C2.4,62,3,61.7,3.3,61.1c1.6-4,5.4-6.5,9.7-6.5
			c1.4,0,2.7,0.3,4.1,0.8c0.5,0.2,1.1,0.1,1.5-0.4c3-3.6,7.6-5.1,12.4-4.1c5.7,1.2,9.6,6.3,9.6,12.3c0,3.8-1.4,7.1-4,9.5
			c-0.5,0.5-0.5,1.3,0,1.8c0.3,0.3,0.6,0.4,0.9,0.4c0.3,0,0.6-0.1,0.9-0.4c3-2.9,4.7-6.8,4.7-11.2C43.1,56,38.2,49.8,31.4,48.4z
			 M18.2,58.5c-2.9,2.9-2.9,7.6,0.1,10.4c2.4,2.3,6.3,2.3,8.7,0c1.1-1.1,1.7-2.7,1.5-4.3c-0.2-2-1.4-3.6-3.1-4.1
			c-1.6-0.6-3.4-0.2-4.6,1c-0.5,0.5-0.5,1.3,0,1.8s1.3,0.5,1.8,0c0.5-0.5,1.3-0.7,2-0.4c0.8,0.3,1.3,1,1.4,2.1
			c0.1,0.8-0.2,1.6-0.7,2.2c-1.4,1.4-3.7,1.4-5.2,0c-1.9-1.9-2-5-0.1-6.9c2.5-2.5,6.6-2.5,9.2-0.1c1.1,1.1,1.9,3.3,1.8,5.2
			c-0.1,3.7-3.7,7.2-7.4,7.2H2.8c-0.7,0-1.3,0.5-1.3,1.2c0,0.7,0.6,1.2,1.3,1.2l0,0h20.8c5.1,0,9.8-4.5,9.9-9.6c0.1-2.6-1-5.5-2.6-7
			C27.4,54.9,21.7,55,18.2,58.5z"/>
	</g>
</g>
</svg>
