<?xml version="1.0" encoding="utf-8"?>
<!-- Generator: Adobe Illustrator 19.0.0, SVG Export Plug-In . SVG Version: 6.00 Build 0)  -->
<svg version="1.1" id="圖層_1" xmlns="http://www.w3.org/2000/svg" xmlns:xlink="http://www.w3.org/1999/xlink" x="0px" y="0px"
	 viewBox="5 -5 60 60" enable-background="new 5 -5 60 60" xml:space="preserve">
<g>
	<g id="橢圓_9_拷貝_21_1_">
		<g>
			<ellipse fill-rule="evenodd" clip-rule="evenodd" fill="#F75E57" cx="35" cy="25" rx="30" ry="30"/>
		</g>
	</g>
	<g id="Path_拷貝_7_1_">
		<g>
			<path fill="#FFFFFF" d="M45.5,15.1c-3.9-0.8-7.8,0.4-10.5,3.2c-1-0.3-2-0.5-3.1-0.5c-3.7,0-6.9,2.1-8.5,5.3
				c-1.9-0.2-3.7,0.4-5.3,2c-1.4,1.4-2.2,3.1-2.2,4.9c0,1,0.2,2,0.7,2.9c0.2,0.5,0.8,0.7,1.2,0.4c0.5-0.2,0.7-0.8,0.4-1.2
				c-0.3-0.6-0.5-1.3-0.5-2.1c0-1.3,0.6-2.6,1.6-3.6c1.8-1.7,3.3-1.6,4.4-1.4c0.4,0.1,0.9-0.1,1.1-0.6c1.1-2.9,3.9-4.8,7.1-4.8
				c1,0,2,0.2,3,0.6c0.4,0.2,0.8,0.1,1.1-0.3c2.2-2.7,5.6-3.8,9.1-3c4.2,0.9,7,4.7,7,9.1c0,2.8-1,5.2-2.9,7c-0.4,0.4-0.4,0.9,0,1.3
				c0.2,0.2,0.4,0.3,0.7,0.3c0.2,0,0.5-0.1,0.6-0.3c2.2-2.1,3.4-5,3.5-8.3C54.1,20.8,50.5,16.1,45.5,15.1z M35.9,22.6
				c-2.1,2.1-2.1,5.6,0.1,7.7c1.8,1.7,4.6,1.7,6.4,0c0.8-0.8,1.2-2,1.1-3.2c-0.2-1.5-1-2.6-2.3-3.1c-1.2-0.4-2.5-0.1-3.4,0.8
				c-0.4,0.4-0.4,1,0,1.3c0.4,0.4,1,0.4,1.3,0c0.4-0.4,0.9-0.5,1.4-0.3c0.6,0.2,1,0.8,1,1.5c0.1,0.6-0.1,1.2-0.5,1.6
				c-1,1-2.7,1-3.8,0c-1.4-1.4-1.4-3.7,0-5.1c1.8-1.9,4.8-1.9,6.7-0.1c0.8,0.8,1.4,2.4,1.3,3.8c-0.1,2.7-2.7,5.3-5.4,5.3l-15.2,0
				c-0.5,0-0.9,0.4-0.9,0.9c0,0.5,0.4,0.9,0.9,0.9h0l15.2,0c3.7,0,7.2-3.4,7.3-7.1c0.1-1.9-0.7-4.1-1.9-5.2
				C42.6,19.9,38.5,20,35.9,22.6z"/>
		</g>
	</g>
</g>
</svg>
