<?xml version="1.0" encoding="utf-8"?>
<!-- Generator: Adobe Illustrator 19.0.0, SVG Export Plug-In . SVG Version: 6.00 Build 0)  -->
<svg version="1.1" id="圖層_1" xmlns="http://www.w3.org/2000/svg" xmlns:xlink="http://www.w3.org/1999/xlink" x="0px" y="0px"
	 viewBox="-20.5 31.5 60 60" style="enable-background:new -20.5 31.5 60 60;" xml:space="preserve">
<style type="text/css">
	.st0{fill:#F75E57;}
</style>
<g id="Path_40_">
	<g id="XMLID_77_">
		<path id="XMLID_78_" class="st0" d="M21.2,53.5c0.3,0,0.5-0.1,0.8-0.3l3.9-3.9c0.4-0.4,0.4-1.1,0-1.5c-0.4-0.4-1.1-0.4-1.5,0
			l-3.9,3.9c-0.4,0.4-0.4,1.1,0,1.5C20.7,53.4,20.9,53.5,21.2,53.5z M-2.9,53.2c0.2,0.2,0.5,0.3,0.8,0.3s0.5-0.1,0.8-0.3
			c0.4-0.4,0.4-1.1,0-1.5l-4-3.9c-0.4-0.4-1.1-0.4-1.5,0c-0.4,0.4-0.4,1.1,0,1.5L-2.9,53.2z M30.9,61h-3.6c-0.6,0-1.1,0.5-1.1,1.1
			c0,0.6,0.5,1.1,1.1,1.1h3.6c0.6,0,1.1-0.5,1.1-1.1C32,61.5,31.5,61,30.9,61z M-7.6,63.1c0.6,0,1.1-0.5,1.1-1.1s-0.6-1-1.1-1h-4.3
			c-0.6,0-1.1,0.5-1.1,1.1c0,0.6,0.5,1.1,1.1,1.1h4.3V63.1z M9.4,49.3c0.6,0,1.1-0.5,1.1-1.1v-7.1c0-0.6-0.5-1.1-1.1-1.1
			s-1.1,0.5-1.1,1.1v7.1C8.4,48.8,8.8,49.3,9.4,49.3z M-3.7,65.2c0.6,0,1.1-0.5,1.1-1.1C-2.6,57.4,2.8,52,9.5,52s12.1,5.4,12.1,12.1
			c0,0.6,0.5,1.1,1.1,1.1s1.1-0.5,1.1-1.1c0-7.9-6.4-14.2-14.3-14.2S-4.8,56.3-4.8,64.1C-4.8,64.7-4.3,65.2-3.7,65.2z M6.7,64.3
			c0,0.6,0.5,1.1,1.1,1.1s1.1-0.5,1.1-1.1c0-2.6,2.1-4.7,4.7-4.7s4.7,2.1,4.7,4.7c0,0.6,0.5,1.1,1.1,1.1s1.1-0.5,1.1-1.1
			c0-3.8-3.1-6.8-6.8-6.8C9.8,57.5,6.7,60.5,6.7,64.3z M26.6,74.9c-0.3,0.4-7.9,10.7-18.2,3.3c-11.8-8.5-20.3,0.1-20.4,0.2
			c-0.4,0.4-0.4,1.1,0,1.5s1.1,0.4,1.5,0c0.3-0.3,7.3-7.3,17.7,0.1c3.1,2.2,6,3,8.6,3c7.5,0,12.5-6.8,12.5-6.9
			c0.3-0.5,0.2-1.1-0.2-1.5C27.6,74.3,27,74.4,26.6,74.9z M26.6,68.8c-0.3,0.4-7.9,10.7-18.2,3.3c-11.8-8.4-20.3,0.1-20.4,0.2
			c-0.4,0.4-0.4,1.1,0,1.5c0.4,0.4,1.1,0.4,1.5,0c0.3-0.3,7.3-7.3,17.7,0.1c3.1,2.2,6,3,8.6,3c7.5,0,12.5-6.8,12.5-6.9
			c0.3-0.5,0.2-1.1-0.2-1.5C27.6,68.2,27,68.3,26.6,68.8z"/>
	</g>
</g>
</svg>
