<?xml version="1.0" encoding="utf-8"?>
<!-- Generator: Adobe Illustrator 19.0.0, SVG Export Plug-In . SVG Version: 6.00 Build 0)  -->
<svg version="1.1" id="圖層_1" xmlns="http://www.w3.org/2000/svg" xmlns:xlink="http://www.w3.org/1999/xlink" x="0px" y="0px"
	 viewBox="5 -5 60 60" enable-background="new 5 -5 60 60" xml:space="preserve">
<g>
	<g id="橢圓_9_拷貝_19_1_">
		<g>
			<ellipse fill-rule="evenodd" clip-rule="evenodd" fill="#F75E57" cx="35" cy="25" rx="30" ry="30"/>
		</g>
	</g>
	<g id="Path_拷貝_8_1_">
		<g>
			<path fill="#FFFFFF" d="M44.4,18.8c0.2,0,0.4-0.1,0.6-0.3l3.1-3.2c0.3-0.3,0.3-0.9,0-1.2s-0.9-0.3-1.2,0l-3.1,3.2
				c-0.3,0.3-0.3,0.9,0,1.2C43.9,18.7,44.2,18.8,44.4,18.8z M25.1,18.6c0.2,0.2,0.4,0.3,0.6,0.3s0.4-0.1,0.6-0.3
				c0.3-0.3,0.3-0.9,0-1.2l-3.1-3.2c-0.3-0.3-0.9-0.3-1.2,0s-0.3,0.9,0,1.2L25.1,18.6z M52.2,24.9h-2.9c-0.5,0-0.9,0.4-0.9,0.9
				c0,0.5,0.4,0.9,0.9,0.9h2.9c0.5,0,0.9-0.4,0.9-0.9C53,25.3,52.6,24.9,52.2,24.9z M21.3,26.6c0.5,0,0.9-0.4,0.9-0.9
				c0-0.5-0.4-0.9-0.9-0.9h-3.4c-0.5,0-0.9,0.4-0.9,0.9c0,0.5,0.4,0.9,0.9,0.9H21.3z M35,15.3c0.5,0,0.9-0.4,0.9-0.9V8.7
				c0-0.5-0.4-0.9-0.9-0.9c-0.5,0-0.9,0.4-0.9,0.9v5.8C34.1,15,34.5,15.3,35,15.3z M24.4,28.3c0.5,0,0.9-0.4,0.9-0.9
				c0-5.4,4.4-9.9,9.7-9.9s9.7,4.4,9.7,9.9c0,0.5,0.4,0.9,0.9,0.9c0.5,0,0.9-0.4,0.9-0.9c0-6.4-5.1-11.6-11.4-11.6
				s-11.4,5.2-11.4,11.6C23.6,27.9,23.9,28.3,24.4,28.3z M32.8,27.6c0,0.5,0.4,0.9,0.9,0.9c0.5,0,0.9-0.4,0.9-0.9
				c0-2.1,1.7-3.8,3.7-3.8c2.1,0,3.7,1.7,3.7,3.8c0,0.5,0.4,0.9,0.9,0.9s0.9-0.4,0.9-0.9c0-3.1-2.5-5.5-5.5-5.5
				C35.2,22,32.8,24.5,32.8,27.6z M48.7,36.2c-0.3,0.4-6.3,8.7-14.5,2.7C24.7,32,17.9,39,17.8,39c-0.3,0.3-0.3,0.9,0,1.2
				c0.3,0.3,0.9,0.3,1.2,0c0.2-0.2,5.9-5.9,14.1,0.1c2.5,1.8,4.8,2.5,6.9,2.5c6,0,10-5.5,10-5.6c0.3-0.4,0.2-0.9-0.2-1.2
				C49.5,35.7,49,35.8,48.7,36.2z M48.7,31.3c-0.3,0.4-6.3,8.7-14.5,2.7c-9.5-6.9-16.3,0-16.4,0.1c-0.3,0.3-0.3,0.9,0,1.2
				c0.3,0.3,0.9,0.3,1.2,0c0.2-0.2,5.9-5.9,14.1,0.1c2.5,1.8,4.8,2.5,6.9,2.5c6,0,10-5.5,10-5.6c0.3-0.4,0.2-0.9-0.2-1.2
				C49.5,30.8,49,30.9,48.7,31.3z"/>
		</g>
	</g>
</g>
</svg>
