<?xml version="1.0" encoding="utf-8"?>
<!-- Generator: Adobe Illustrator 19.0.0, SVG Export Plug-In . SVG Version: 6.00 Build 0)  -->
<svg version="1.1" id="圖層_1" xmlns="http://www.w3.org/2000/svg" xmlns:xlink="http://www.w3.org/1999/xlink" x="0px" y="0px"
	 viewBox="-25 32 60 60" style="enable-background:new -25 32 60 60;" xml:space="preserve">
<style type="text/css">
	.st0{fill:#F75E57;}
</style>
<g id="Path_38_">
	<g id="XMLID_119_">
		<path id="XMLID_120_" class="st0" d="M23.3,67.2c-0.3,0.4-7.8,10.8-18,3.4c-11.6-8.4-19.9,0-20,0.1c-0.4,0.4-0.4,1,0,1.4
			s1,0.4,1.3,0c0.3-0.3,7.2-7.4,17.5,0.1c3,2.2,5.9,3,8.4,3c7.3,0,12.2-6.7,12.3-6.8c0.3-0.4,0.2-1-0.2-1.3
			C24.2,66.6,23.6,66.7,23.3,67.2z M23.3,73.1c-0.3,0.4-7.8,10.8-18,3.4c-11.6-8.4-19.9,0-20,0.1c-0.4,0.4-0.4,1,0,1.4s1,0.4,1.3,0
			c0.3-0.3,7.3-7.3,17.5,0.1c3,2.2,5.9,3,8.4,3c7.3,0,12.2-6.7,12.3-6.8c0.3-0.4,0.2-1-0.2-1.3C24.2,72.5,23.6,72.6,23.3,73.1z
			 M-13.4,65.9c0.3-0.3,7.2-7.4,17.5,0.1c3,2.2,5.9,3,8.4,3c7.3,0,12.2-6.7,12.3-6.8c0.3-0.4,0.2-1-0.2-1.3s-1-0.2-1.3,0.2
			c-0.3,0.4-7.8,10.8-18,3.4c-11.6-8.4-19.9,0-20,0.1c-0.4,0.4-0.4,1,0,1.4C-14.3,66.3-13.7,66.3-13.4,65.9z M18.2,46.5
			c0.1,0.1,0.3,0.1,0.4,0.1c0.4,0,0.7-0.2,0.9-0.6l0.7-1.6c0.2-0.5,0-1.1-0.5-1.3c-0.5-0.2-1,0-1.3,0.5l-0.7,1.6
			C17.6,45.7,17.8,46.2,18.2,46.5z M11.9,46.5c0.1,0.1,0.3,0.1,0.4,0.1c0.4,0,0.7-0.2,0.9-0.6l0.7-1.6c0.2-0.5,0-1.1-0.5-1.3
			c-0.5-0.2-1,0-1.3,0.5l-0.7,1.6C11.2,45.7,11.4,46.2,11.9,46.5z M5.5,46.5c0.1,0.1,0.3,0.1,0.4,0.1c0.4,0,0.7-0.2,0.9-0.6l0.7-1.6
			c0.2-0.5,0-1.1-0.5-1.3c-0.5-0.2-1,0-1.3,0.5L5,45.2C4.8,45.7,5,46.2,5.5,46.5z M-0.8,46.5c0.1,0.1,0.3,0.1,0.4,0.1
			c0.4,0,0.7-0.2,0.9-0.6l0.7-1.6c0.2-0.5,0-1.1-0.5-1.3c-0.5-0.2-1,0-1.3,0.5l-0.7,1.6C-1.5,45.7-1.3,46.2-0.8,46.5z M-7.2,46.5
			c0.1,0.1,0.3,0.1,0.4,0.1c0.4,0,0.7-0.2,0.9-0.6l0.7-1.6c0.2-0.5,0-1.1-0.5-1.3c-0.5-0.2-1,0-1.3,0.5l-0.7,1.6
			C-7.9,45.7-7.7,46.2-7.2,46.5z M13.4,50.2l-0.7,1.6c-0.2,0.5,0,1.1,0.5,1.3c0.1,0.1,0.3,0.1,0.4,0.1c0.4,0,0.7-0.2,0.9-0.6
			l0.6-1.6c0.2-0.5,0-1.1-0.5-1.3C14.2,49.5,13.6,49.7,13.4,50.2z M7.1,50.2l-0.7,1.6c-0.2,0.5,0,1.1,0.5,1.3
			c0.1,0.1,0.3,0.1,0.4,0.1c0.4,0,0.7-0.2,0.9-0.6L8.8,51c0.2-0.5,0-1.1-0.5-1.3S7.3,49.7,7.1,50.2z M0.7,50.2L0,51.8
			c-0.2,0.5,0,1.1,0.5,1.3c0.1,0.1,0.3,0.1,0.4,0.1c0.4,0,0.7-0.2,0.9-0.6L2.4,51c0.2-0.5,0-1.1-0.5-1.3C1.5,49.5,0.9,49.7,0.7,50.2
			z M-5.7,50.2l-0.7,1.6c-0.2,0.5,0,1.1,0.5,1.3c0.1,0.1,0.3,0.1,0.4,0.1c0.4,0,0.7-0.2,0.9-0.6l0.7-1.6c0.2-0.5,0-1.1-0.5-1.3
			S-5.5,49.7-5.7,50.2z M7.6,56.1l-0.7,1.6c-0.2,0.5,0,1.1,0.5,1.3c0.1,0.1,0.3,0.1,0.4,0.1c0.4,0,0.7-0.2,0.9-0.6l0.7-1.6
			c0.2-0.5,0-1.1-0.5-1.3C8.4,55.4,7.8,55.6,7.6,56.1z M1.2,56.1l-0.7,1.6c-0.2,0.5,0,1.1,0.5,1.3c0.1,0.1,0.3,0.1,0.4,0.1
			c0.4,0,0.7-0.2,0.9-0.6L3,56.9c0.2-0.5,0-1.1-0.5-1.3C2,55.4,1.5,55.6,1.2,56.1z M-5.1,56.1l-0.7,1.6c-0.2,0.5,0,1.1,0.5,1.3
			c0.1,0.1,0.3,0.1,0.4,0.1c0.4,0,0.7-0.2,0.9-0.6l0.7-1.6c0.2-0.5,0-1.1-0.5-1.3C-4.3,55.4-4.9,55.6-5.1,56.1z"/>
	</g>
</g>
</svg>
