<?xml version="1.0" encoding="utf-8"?>
<!-- Generator: Adobe Illustrator 19.0.0, SVG Export Plug-In . SVG Version: 6.00 Build 0)  -->
<svg version="1.1" id="圖層_1" xmlns="http://www.w3.org/2000/svg" xmlns:xlink="http://www.w3.org/1999/xlink" x="0px" y="0px"
	 viewBox="5 -5 60 60" enable-background="new 5 -5 60 60" xml:space="preserve">
<g>
	<g id="橢圓_9_拷貝_20_1_">
		<g>
			<ellipse fill-rule="evenodd" clip-rule="evenodd" fill="#F75E57" cx="35" cy="25" rx="30" ry="30"/>
		</g>
	</g>
	<g id="Path_拷貝_9_1_">
		<g>
			<path fill="#FFFFFF" d="M50.5,29.2c-0.3,0.4-6.6,9.1-15.3,2.8c-9.9-7.1-16.9,0-17,0.1c-0.3,0.3-0.3,0.8,0,1.1
				c0.3,0.3,0.8,0.3,1.1,0c0.2-0.3,6.1-6.2,14.9,0.1c2.6,1.9,5,2.5,7.1,2.5c6.2,0,10.3-5.7,10.4-5.7c0.3-0.4,0.2-0.9-0.2-1.1
				C51.3,28.7,50.8,28.8,50.5,29.2z M50.5,34.1c-0.3,0.4-6.6,9.1-15.3,2.8c-9.9-7.1-16.9,0-17,0.1c-0.3,0.3-0.3,0.8,0,1.1
				c0.3,0.3,0.8,0.3,1.1,0c0.2-0.3,6.2-6.2,14.9,0.1c2.6,1.9,5,2.5,7.1,2.5c6.2,0,10.3-5.7,10.4-5.7c0.3-0.4,0.2-0.9-0.2-1.1
				C51.3,33.7,50.8,33.8,50.5,34.1z M19.4,28.1c0.2-0.3,6.1-6.2,14.9,0.1c2.6,1.9,5,2.5,7.1,2.5c6.2,0,10.3-5.7,10.4-5.7
				c0.3-0.4,0.2-0.9-0.2-1.1c-0.4-0.3-0.9-0.2-1.1,0.2c-0.3,0.4-6.6,9.1-15.3,2.8c-9.9-7.1-16.9,0-17,0.1c-0.3,0.3-0.3,0.8,0,1.1
				C18.6,28.4,19.1,28.4,19.4,28.1z M46.3,11.7c0.1,0,0.2,0.1,0.3,0.1c0.3,0,0.6-0.2,0.7-0.5l0.6-1.4c0.2-0.4,0-0.9-0.4-1.1
				c-0.4-0.2-0.9,0-1.1,0.4l-0.6,1.4C45.7,11.1,45.8,11.5,46.3,11.7z M40.8,11.7c0.1,0,0.2,0.1,0.3,0.1c0.3,0,0.6-0.2,0.7-0.5
				l0.6-1.4c0.2-0.4,0-0.9-0.4-1.1c-0.4-0.2-0.9,0-1.1,0.4l-0.6,1.4C40.3,11.1,40.4,11.5,40.8,11.7z M35.4,11.7
				c0.1,0,0.2,0.1,0.3,0.1c0.3,0,0.6-0.2,0.7-0.5l0.6-1.4c0.2-0.4,0-0.9-0.4-1.1c-0.4-0.2-0.9,0-1.1,0.4L35,10.7
				C34.9,11.1,35,11.5,35.4,11.7z M30,11.7c0.1,0,0.2,0.1,0.3,0.1c0.3,0,0.6-0.2,0.7-0.5l0.6-1.4c0.2-0.4,0-0.9-0.4-1.1
				c-0.4-0.2-0.9,0-1.1,0.4l-0.6,1.4C29.5,11.1,29.6,11.5,30,11.7z M24.6,11.7c0.1,0,0.2,0.1,0.3,0.1c0.3,0,0.6-0.2,0.7-0.5l0.6-1.4
				c0.2-0.4,0-0.9-0.4-1.1c-0.4-0.2-0.9,0-1.1,0.4l-0.6,1.4C24.1,11.1,24.2,11.5,24.6,11.7z M42.1,14.9l-0.6,1.4
				c-0.2,0.4,0,0.9,0.4,1.1c0.1,0,0.2,0.1,0.3,0.1c0.3,0,0.6-0.2,0.7-0.5l0.6-1.4c0.2-0.4,0-0.9-0.4-1.1
				C42.8,14.3,42.3,14.5,42.1,14.9z M36.7,14.9l-0.6,1.4c-0.2,0.4,0,0.9,0.4,1.1c0.1,0,0.2,0.1,0.3,0.1c0.3,0,0.6-0.2,0.7-0.5
				l0.6-1.4c0.2-0.4,0-0.9-0.4-1.1C37.4,14.3,36.9,14.5,36.7,14.9z M31.3,14.9l-0.6,1.4c-0.2,0.4,0,0.9,0.4,1.1
				c0.1,0,0.2,0.1,0.3,0.1c0.3,0,0.6-0.2,0.7-0.5l0.6-1.4c0.2-0.4,0-0.9-0.4-1.1C32,14.3,31.5,14.5,31.3,14.9z M25.9,14.9l-0.6,1.4
				c-0.2,0.4,0,0.9,0.4,1.1c0.1,0,0.2,0.1,0.3,0.1c0.3,0,0.6-0.2,0.7-0.5l0.6-1.4c0.2-0.4,0-0.9-0.4-1.1
				C26.6,14.3,26.1,14.5,25.9,14.9z M37.2,19.8l-0.6,1.4c-0.2,0.4,0,0.9,0.4,1.1c0.1,0,0.2,0.1,0.3,0.1c0.3,0,0.6-0.2,0.7-0.5
				l0.6-1.4c0.2-0.4,0-0.9-0.4-1.1C37.9,19.2,37.4,19.4,37.2,19.8z M31.8,19.8l-0.6,1.4c-0.2,0.4,0,0.9,0.4,1.1
				c0.1,0,0.2,0.1,0.3,0.1c0.3,0,0.6-0.2,0.7-0.5l0.6-1.4c0.2-0.4,0-0.9-0.4-1.1C32.5,19.2,32,19.4,31.8,19.8z M26.4,19.8l-0.6,1.4
				c-0.2,0.4,0,0.9,0.4,1.1c0.1,0,0.2,0.1,0.3,0.1c0.3,0,0.6-0.2,0.7-0.5l0.6-1.4c0.2-0.4,0-0.9-0.4-1.1
				C27.1,19.2,26.6,19.4,26.4,19.8z"/>
		</g>
	</g>
</g>
</svg>
