<?xml version="1.0" encoding="utf-8"?>
<!-- Generator: Adobe Illustrator 19.0.0, SVG Export Plug-In . SVG Version: 6.00 Build 0)  -->
<svg version="1.1" id="圖層_1" xmlns="http://www.w3.org/2000/svg" xmlns:xlink="http://www.w3.org/1999/xlink" x="0px" y="0px"
	 viewBox="-25 32 60 60" style="enable-background:new -25 32 60 60;" xml:space="preserve">
<style type="text/css">
	.st0{fill:#F75E57;}
</style>
<g id="Path_32_">
	<g id="XMLID_49_">
		<path id="XMLID_50_" class="st0" d="M5,40L5,40C4.9,40,4.9,40,5,40C4.9,40,4.9,40,5,40C4.9,40,4.9,40,5,40c-11.3,0-20,8.8-20,19.9
			c0,0.3,0.1,0.6,0.4,0.8c0.5,0.4,1.2,0.4,2.4,0.2c0.5-0.1,1-0.1,1.3-0.1c1.9,0,3.4,1.5,3.4,3.4c0,0.6,0.5,1,1.1,1s1.1-0.5,1.1-1
			c0-0.1,0-0.1,0-0.2c0,0,0,0,0-0.1c0.1-1.7,1.6-3.1,3.4-3.1c1,0,2,0.5,2.7,1.3l0.8,1.1l0.8-1.1c0.4-0.5,0.8-0.8,1.4-1v19.7
			c0,1.8,1.3,3.1,3.3,3.1c2.1,0,3.4-1.8,3.4-3.5c0-0.6-0.5-1-1.1-1s-1,0.5-1,1c0,0.7-0.5,1.4-1.3,1.4c-0.5,0-1.2-0.1-1.2-1V61
			c0.7,0.2,1.4,0.6,1.9,1.2l0.8,1.1l0.8-1.1c0.6-0.8,1.6-1.3,2.7-1.3c1.8,0,3.2,1.4,3.4,3.1v0.1c0,0,0,0,0,0.1
			c0,0.2,0.1,0.4,0.2,0.6v5.4c0,0.6,0.5,1,1.1,1s1.1-0.5,1.1-1v-5.6c0-0.2-0.1-0.4-0.2-0.6c0.1-1.8,1.6-3.2,3.4-3.2
			c0.4,0,0.9,0.1,1.3,0.1c1.3,0.1,1.9,0.2,2.5-0.2c0.2-0.2,0.4-0.5,0.4-0.9C25,48.7,16.2,40,5,40z M-10.9,58.8c-0.5,0-1,0.1-1.5,0.1
			c-0.1,0-0.3,0-0.4,0c0.3-7.6,5.4-13.8,12.4-16C-5.9,47.7-7.2,55.6-7.5,60C-8.4,59.3-9.6,58.8-10.9,58.8z M11.9,58.8
			c-1.3,0-2.5,0.4-3.5,1.3c-0.9-0.8-2.1-1.2-3.3-1.2c-0.1-0.1-0.3-0.1-0.5-0.1S4.2,58.9,4.1,59c-1,0.1-1.9,0.5-2.7,1.2
			c-1-0.8-2.2-1.3-3.5-1.3c-1.2,0-2.4,0.4-3.3,1.1C-5,54.9-3.2,45.2,4.9,42.2C13,45.3,14.8,55,15.2,60
			C14.3,59.3,13.2,58.8,11.9,58.8z M22.4,58.9c-0.5-0.1-1.1-0.1-1.6-0.1c-1.3,0-2.5,0.5-3.5,1.2c-0.3-4.4-1.6-12.4-7.1-17.2
			c7.1,2.1,12.3,8.4,12.7,16.1C22.7,59,22.5,58.9,22.4,58.9z"/>
	</g>
</g>
</svg>
