<?xml version="1.0" encoding="utf-8"?>
<!-- Generator: Adobe Illustrator 19.0.0, SVG Export Plug-In . SVG Version: 6.00 Build 0)  -->
<svg version="1.1" id="圖層_1" xmlns="http://www.w3.org/2000/svg" xmlns:xlink="http://www.w3.org/1999/xlink" x="0px" y="0px"
	 viewBox="5 -5 60 60" enable-background="new 5 -5 60 60" xml:space="preserve">
<g>
	<g id="橢圓_9_拷貝_24_1_">
		<g>
			<ellipse fill-rule="evenodd" clip-rule="evenodd" fill="#F75E57" cx="35" cy="25" rx="30" ry="30"/>
		</g>
	</g>
	<g id="Path_拷貝_12_1_">
		<g>
			<path fill="#FFFFFF" d="M35,7.8C35,7.8,35,7.8,35,7.8C35,7.8,34.9,7.8,35,7.8C34.9,7.8,34.9,7.8,35,7.8C34.9,7.8,34.9,7.8,35,7.8
				c-9,0-16,7-16,15.8c0,0.3,0.1,0.5,0.3,0.7c0.4,0.4,0.9,0.3,1.9,0.2c0.4,0,0.8-0.1,1-0.1c1.5,0,2.7,1.2,2.7,2.7
				c0,0.5,0.4,0.8,0.8,0.8c0.5,0,0.8-0.4,0.8-0.8c0,0,0-0.1,0-0.1c0,0,0,0,0-0.1c0.1-1.4,1.3-2.5,2.7-2.5c0.8,0,1.6,0.4,2.1,1
				l0.7,0.8l0.7-0.8c0.3-0.4,0.7-0.6,1.1-0.8v15.7c0,1.4,1,2.5,2.6,2.5c1.7,0,2.7-1.5,2.7-2.8c0-0.5-0.4-0.8-0.9-0.8
				c-0.5,0-0.8,0.4-0.8,0.8c0,0.6-0.4,1.2-1,1.2c-0.4,0-0.9-0.1-0.9-0.8V24.6c0.6,0.1,1.1,0.5,1.5,1l0.7,0.8l0.7-0.8
				c0.5-0.7,1.3-1,2.1-1c1.4,0,2.6,1.1,2.7,2.5c0,0,0,0.1,0,0.1c0,0,0,0,0,0c0,0.2,0.1,0.4,0.2,0.5v4.3c0,0.5,0.4,0.8,0.8,0.8
				c0.5,0,0.8-0.4,0.8-0.8v-4.4c0-0.2-0.1-0.3-0.2-0.5c0.1-1.4,1.2-2.5,2.7-2.5c0.3,0,0.7,0,1.1,0.1c1,0.1,1.6,0.2,2-0.2
				c0.2-0.2,0.3-0.4,0.3-0.7C51,14.8,44,7.8,35,7.8z M22.2,22.8c-0.4,0-0.8,0-1.2,0.1c-0.1,0-0.2,0-0.3,0c0.3-6.1,4.4-11.1,10-12.8
				c-4.4,3.8-5.4,10.1-5.7,13.6C24.3,23.2,23.3,22.8,22.2,22.8z M40.5,22.8c-1,0-2,0.4-2.8,1c-0.7-0.6-1.7-0.9-2.6-1
				c-0.1-0.1-0.2-0.1-0.4-0.1c-0.2,0-0.3,0.1-0.4,0.1c-0.8,0.1-1.5,0.4-2.2,0.9c-0.8-0.6-1.8-1-2.8-1c-1,0-1.9,0.3-2.6,0.9
				c0.3-4,1.7-11.7,8.2-14.2c6.5,2.4,7.9,10.1,8.2,14.2C42.4,23.1,41.5,22.8,40.5,22.8z M48.9,22.9c-0.4,0-0.9-0.1-1.3-0.1
				c-1.1,0-2,0.4-2.8,1c-0.2-3.5-1.2-9.9-5.7-13.7c5.7,1.7,9.8,6.7,10.1,12.8C49.2,22.9,49,22.9,48.9,22.9z"/>
		</g>
	</g>
</g>
</svg>
