<?xml version="1.0" encoding="utf-8"?>
<!-- Generator: Adobe Illustrator 19.0.0, SVG Export Plug-In . SVG Version: 6.00 Build 0)  -->
<svg version="1.1" id="圖層_1" xmlns="http://www.w3.org/2000/svg" xmlns:xlink="http://www.w3.org/1999/xlink" x="0px" y="0px"
	 viewBox="-41 32 60 60" style="enable-background:new -41 32 60 60;" xml:space="preserve">
<style type="text/css">
	.st0{fill:#F75E57;}
</style>
<g id="Path_36_">
	<g id="XMLID_69_">
		<path id="XMLID_70_" class="st0" d="M-4.3,65.1V39c0-1.1-1.2-2-2.3-2h-8.7c-1.1,0-1.6,0.9-1.6,2v25.6c-2.4,0.9-3.7,2.4-4.7,4.4
			c-1.9,3.7-1.9,8.2,0.1,11.8c2,3.5,5.3,5.8,9.3,6.1c0.4,0,0.8,0.1,1.2,0.1l0,0c3.2,0,6.2-1.2,8.5-3.5c2.2-2.2,3.6-5.2,3.6-8.4
			C1,70.5-1.1,67-4.3,65.1z M-4.3,82.1c-1.8,1.8-4.2,3-6.7,3l0,0l0,0l0,0c-0.3,0-0.6-0.2-0.9-0.2c-3.2-0.3-5.9-2.3-7.4-5.1
			c-1.7-3-1.7-6.6-0.2-9.6c0.8-1.7,2.2-2.8,4.1-3.5c0.5-0.2,0.9-0.6,0.9-1.1v-26h7.9V66c0,0.5,0.1,0.9,0.5,1.1
			c3.2,1.5,4.6,4.3,4.6,8.3C-1.5,77.8-2.5,80.3-4.3,82.1z M-20.7,45c0.9,0,1.6-0.7,1.6-1.6c0-0.9-0.7-1.6-1.6-1.6
			c-0.9,0-1.6,0.7-1.6,1.6C-22.3,44.3-21.6,45-20.7,45z M-20.7,50.2c0.9,0,1.6-0.7,1.6-1.6c0-0.9-0.7-1.6-1.6-1.6
			c-0.9,0-1.6,0.7-1.6,1.6S-21.6,50.2-20.7,50.2z M-20.7,55.4c0.9,0,1.6-0.7,1.6-1.6s-0.7-1.6-1.6-1.6c-0.9,0-1.6,0.7-1.6,1.6
			S-21.6,55.4-20.7,55.4z M-20.7,60.7c0.9,0,1.6-0.7,1.6-1.6c0-0.9-0.7-1.6-1.6-1.6c-0.9,0-1.6,0.7-1.6,1.6
			C-22.3,60-21.6,60.7-20.7,60.7z M-9,69.3V42.5h-3.2v26.8c-3.9,0.9-4.9,3.4-4.9,6.4c0,3.7,2.9,6.7,6.6,6.7s6.4-3,6.4-6.7
			C-4,72.7-5.1,70.1-9,69.3z"/>
	</g>
</g>
</svg>
