<?xml version="1.0" encoding="utf-8"?>
<!-- Generator: Adobe Illustrator 19.0.0, SVG Export Plug-In . SVG Version: 6.00 Build 0)  -->
<svg version="1.1" id="圖層_1" xmlns="http://www.w3.org/2000/svg" xmlns:xlink="http://www.w3.org/1999/xlink" x="0px" y="0px"
	 viewBox="5 -5 60 60" enable-background="new 5 -5 60 60" xml:space="preserve">
<g>
	<g id="橢圓_9_拷貝_25_1_">
		<g>
			<ellipse fill-rule="evenodd" clip-rule="evenodd" fill="#F75E57" cx="35" cy="25" rx="30" ry="30"/>
		</g>
	</g>
	<g id="Path_拷貝_10_1_">
		<g>
			<path fill="#FFFFFF" d="M40,27.7V7.3c0-0.8-0.9-1.5-1.7-1.5h-6.5c-0.8,0-1.2,0.7-1.2,1.5v20c-1.8,0.7-2.8,1.8-3.5,3.4
				c-1.4,2.9-1.5,6.4,0.1,9.2c1.5,2.7,4,4.5,7,4.8c0.3,0,0.6,0,0.9,0h0c2.4,0,4.7-1,6.4-2.7C43,40.4,44,38,44,35.6
				C44,31.9,42.4,29.2,40,27.7z M40,41c-1.3,1.4-3.1,2.3-5,2.3c0,0,0,0,0,0h0c0,0,0,0,0,0c-0.2,0-0.5-0.2-0.7-0.2
				c-2.4-0.2-4.4-1.8-5.6-4c-1.2-2.3-1.3-5.1-0.1-7.5c0.6-1.3,1.6-2.2,3-2.7c0.3-0.1,0.7-0.5,0.7-0.9V7.7h5.9v20.6
				c0,0.4,0.1,0.7,0.4,0.9c2.4,1.2,3.5,3.4,3.5,6.5C42.1,37.6,41.4,39.6,40,41z M27.7,12c0.6,0,1.2-0.5,1.2-1.2
				c0-0.7-0.5-1.2-1.2-1.2s-1.2,0.5-1.2,1.2C26.5,11.5,27,12,27.7,12z M27.7,16.1c0.6,0,1.2-0.5,1.2-1.2c0-0.7-0.5-1.2-1.2-1.2
				s-1.2,0.5-1.2,1.2C26.5,15.6,27,16.1,27.7,16.1z M27.7,20.2c0.6,0,1.2-0.5,1.2-1.2c0-0.7-0.5-1.2-1.2-1.2s-1.2,0.5-1.2,1.2
				C26.5,19.6,27,20.2,27.7,20.2z M27.7,24.3c0.6,0,1.2-0.5,1.2-1.2c0-0.7-0.5-1.2-1.2-1.2s-1.2,0.5-1.2,1.2
				C26.5,23.7,27,24.3,27.7,24.3z M36.5,31V10.1h-2.4V31c-3,0.7-3.7,2.7-3.7,5c0,2.9,2.2,5.3,5,5.3c2.8,0,4.8-2.4,4.8-5.3
				C40.2,33.6,39.4,31.7,36.5,31z"/>
		</g>
	</g>
</g>
</svg>
