<?xml version="1.0" encoding="utf-8"?>
<!-- Generator: Adobe Illustrator 19.0.0, SVG Export Plug-In . SVG Version: 6.00 Build 0)  -->
<svg version="1.1" id="圖層_1" xmlns="http://www.w3.org/2000/svg" xmlns:xlink="http://www.w3.org/1999/xlink" x="0px" y="0px"
	 viewBox="-41 32 60 60" style="enable-background:new -41 32 60 60;" xml:space="preserve">
<style type="text/css">
	.st0{fill:#F75E57;}
</style>
<g id="Path_34_">
	<g id="XMLID_112_">
		<path id="XMLID_113_" class="st0" d="M-4.2,65.1V39c0-1.1-1.2-2-2.3-2h-8.7c-1.1,0-1.6,0.9-1.6,2v25.7c-2.4,1.2-4.4,3.1-5.2,5.3
			c-1.4,3.6-1.3,7.6,0.6,11c1.8,3.1,4.9,5.3,8.4,5.8c0.6,0.1,1.3,0.1,1.9,0.1c3.2,0,6.2-1.2,8.5-3.5C-0.3,81.2,1,78.2,1,75
			C1,70.5-1.1,67-4.2,65.1z M-4.3,81.9c-2.2,2.2-5.2,3.1-8.3,2.7c-2.9-0.5-5.3-2.1-6.7-4.7c-1.6-2.7-1.7-6-0.6-8.9
			c0.7-1.9,2.5-3.5,4.6-4.4c0.4-0.2,0.9-0.6,0.9-1.1v-26h7.9v26.4c0,0.5,0.1,0.9,0.5,1.1c3.1,1.5,4.6,4.2,4.6,8.3
			C-1.5,77.7-2.5,80.1-4.3,81.9z M-20.8,45c0.8,0,1.5-0.7,1.5-1.6c0-0.9-0.7-1.6-1.6-1.6s-1.6,0.7-1.6,1.6
			C-22.4,44.3-21.7,45-20.8,45z M-20.8,50.2c0.9,0,1.6-0.7,1.6-1.6c0-0.9-0.7-1.6-1.6-1.6s-1.6,0.7-1.6,1.6S-21.7,50.2-20.8,50.2z
			 M-20.8,55.4c0.9,0,1.6-0.7,1.6-1.6s-0.7-1.6-1.6-1.6s-1.6,0.7-1.6,1.6S-21.7,55.4-20.8,55.4z M-20.8,60.7c0.9,0,1.6-0.7,1.6-1.6
			c0-0.9-0.7-1.6-1.6-1.6s-1.6,0.7-1.6,1.6C-22.4,60-21.7,60.7-20.8,60.7z M-8.9,69.3V63H-12v6.3c-3.9,0.9-5,3.4-5,6.4
			c0,3.7,2.8,6.7,6.6,6.7s6.5-3,6.5-6.7C-4,72.7-5,70.1-8.9,69.3z"/>
	</g>
</g>
</svg>
