<?xml version="1.0" encoding="utf-8"?>
<!-- Generator: Adobe Illustrator 19.0.0, SVG Export Plug-In . SVG Version: 6.00 Build 0)  -->
<svg version="1.1" id="圖層_1" xmlns="http://www.w3.org/2000/svg" xmlns:xlink="http://www.w3.org/1999/xlink" x="0px" y="0px"
	 viewBox="5 -5 60 60" enable-background="new 5 -5 60 60" xml:space="preserve">
<g>
	<g id="橢圓_9_拷貝_27_1_">
		<g>
			<ellipse fill-rule="evenodd" clip-rule="evenodd" fill="#F75E57" cx="35" cy="25" rx="30" ry="30"/>
		</g>
	</g>
	<g id="Path_拷貝_11_1_">
		<g>
			<path fill="#FFFFFF" d="M40.1,27.2V7.3c0-0.8-0.9-1.5-1.7-1.5h-6.5c-0.8,0-1.2,0.7-1.2,1.5v19.5c-1.8,0.9-3.3,2.4-3.9,4.1
				c-1.1,2.8-1,5.8,0.4,8.3c1.4,2.4,3.7,4,6.3,4.4c0.5,0.1,1,0.1,1.4,0.1c2.4,0,4.7-0.9,6.4-2.6c1.7-1.7,2.7-4,2.7-6.4
				C44,31.3,42.4,28.6,40.1,27.2z M40,39.9c-1.6,1.6-3.9,2.4-6.2,2c-2.2-0.3-4-1.6-5.1-3.5c-1.2-2.1-1.3-4.5-0.4-6.8
				c0.6-1.4,1.8-2.7,3.5-3.4c0.3-0.1,0.7-0.5,0.7-0.8V7.6h5.9v20.1c0,0.3,0.1,0.7,0.4,0.8c2.3,1.1,3.4,3.2,3.4,6.3
				C42.1,36.7,41.4,38.5,40,39.9z M27.6,11.9c0.6,0,1.2-0.5,1.2-1.2c0-0.7-0.5-1.2-1.2-1.2c-0.6,0-1.2,0.5-1.2,1.2
				C26.4,11.3,27,11.9,27.6,11.9z M27.6,15.8c0.6,0,1.2-0.5,1.2-1.2c0-0.7-0.5-1.2-1.2-1.2c-0.6,0-1.2,0.5-1.2,1.2
				C26.4,15.3,27,15.8,27.6,15.8z M27.6,19.8c0.6,0,1.2-0.5,1.2-1.2c0-0.7-0.5-1.2-1.2-1.2c-0.6,0-1.2,0.5-1.2,1.2
				C26.4,19.3,27,19.8,27.6,19.8z M27.6,23.8c0.6,0,1.2-0.5,1.2-1.2c0-0.7-0.5-1.2-1.2-1.2c-0.6,0-1.2,0.5-1.2,1.2
				C26.4,23.3,27,23.8,27.6,23.8z M36.5,30.3v-4.8h-2.4v4.8c-3,0.7-3.7,2.6-3.7,4.9c0,2.8,2.1,5.1,4.9,5.1c2.8,0,4.9-2.3,4.9-5.1
				C40.2,32.9,39.5,31,36.5,30.3z"/>
		</g>
	</g>
</g>
</svg>
