<?xml version="1.0" encoding="utf-8"?>
<!-- Generator: Adobe Illustrator 19.0.0, SVG Export Plug-In . SVG Version: 6.00 Build 0)  -->
<svg version="1.1" id="圖層_1" xmlns="http://www.w3.org/2000/svg" xmlns:xlink="http://www.w3.org/1999/xlink" x="0px" y="0px"
	 viewBox="-25 32 60 60" style="enable-background:new -25 32 60 60;" xml:space="preserve">
<style type="text/css">
	.st0{fill:#F75E57;}
</style>
<g id="Composite_Path_14_">
	<g id="XMLID_96_">
		<path id="XMLID_97_" class="st0" d="M24.7,67.7c-0.3-0.3-0.7-0.3-1-0.2c-2.1,0.8-4.4,1.2-6.7,1.2c-5,0-9.7-1.9-13.2-5.5
			c-5.2-5.2-6.9-13-4.3-19.9c0.1-0.4,0-0.7-0.2-1C-1,42-1.4,42-1.7,42.1c-2.8,1-5.2,2.6-7.3,4.7c-3.9,3.9-6,9.1-6,14.6
			c0,5.5,2.1,10.7,6,14.6s9.1,6,14.6,6s10.7-2.1,14.6-6c2.1-2.1,3.6-4.5,4.7-7.3C25.1,68.3,25,67.9,24.7,67.7z M18.9,74.6
			c-3.5,3.5-8.2,5.5-13.3,5.5c-5,0-9.7-1.9-13.3-5.5s-5.5-8.2-5.5-13.3c0-5,2-9.7,5.5-13.3c1.4-1.4,3-2.5,4.7-3.4
			c-1.9,7.1,0.1,14.7,5.4,19.9c3.9,3.9,9.1,6,14.6,6c1.8,0,3.6-0.2,5.3-0.7C21.4,71.6,20.3,73.2,18.9,74.6z"/>
	</g>
</g>
</svg>
