<?xml version="1.0" encoding="utf-8"?>
<!-- Generator: Adobe Illustrator 19.0.0, SVG Export Plug-In . SVG Version: 6.00 Build 0)  -->
<svg version="1.1" id="圖層_1" xmlns="http://www.w3.org/2000/svg" xmlns:xlink="http://www.w3.org/1999/xlink" x="0px" y="0px"
	 viewBox="5 -5 60 60" enable-background="new 5 -5 60 60" xml:space="preserve">
<g>
	<g id="橢圓_9_拷貝_28_1_">
		<g>
			<ellipse fill-rule="evenodd" clip-rule="evenodd" fill="#F75E57" cx="35" cy="25" rx="30" ry="30"/>
		</g>
	</g>
	<g id="Composite_Path_拷貝_5_1_">
		<g>
			<path fill-rule="evenodd" clip-rule="evenodd" fill="#FFFFFF" d="M51.8,30c-0.2-0.2-0.5-0.3-0.8-0.2c-1.8,0.7-3.6,1-5.5,1
				c-4.1,0-8-1.6-10.9-4.5C30.2,22,28.8,15.6,31,9.9c0.1-0.3,0-0.6-0.2-0.8c-0.2-0.2-0.5-0.3-0.8-0.2c-2.3,0.9-4.3,2.2-6,3.9
				c-3.2,3.2-5,7.5-5,12c0,4.6,1.8,8.8,5,12c3.2,3.2,7.5,5,12,5c4.5,0,8.8-1.8,12-5c1.7-1.7,3-3.7,3.9-6C52,30.5,52,30.2,51.8,30z
				 M47,35.7c-2.9,2.9-6.8,4.5-10.9,4.5c-4.1,0-8-1.6-10.9-4.5c-2.9-2.9-4.5-6.8-4.5-10.9c0-4.1,1.6-8,4.5-10.9
				c1.1-1.1,2.4-2.1,3.9-2.8c-1.5,5.8,0.1,12.1,4.4,16.4c3.2,3.2,7.5,5,12,5c1.5,0,2.9-0.2,4.4-0.6C49,33.3,48.1,34.6,47,35.7z"/>
		</g>
	</g>
</g>
</svg>
