<?xml version="1.0" encoding="utf-8"?>
<!-- Generator: Adobe Illustrator 19.0.0, SVG Export Plug-In . SVG Version: 6.00 Build 0)  -->
<svg version="1.1" id="圖層_1" xmlns="http://www.w3.org/2000/svg" xmlns:xlink="http://www.w3.org/1999/xlink" x="0px" y="0px"
	 viewBox="-15 31.5 60 60" style="enable-background:new -15 31.5 60 60;" xml:space="preserve">
<style type="text/css">
	.st0{fill:#F75E57;}
</style>
<g id="Path_46_">
	<g id="XMLID_204_">
		<path id="XMLID_205_" class="st0" d="M30.1,54.4h-31c-1.5,0-2.8,1.3-2.8,2.8V62c0,1.5,1.2,2.8,2.8,2.8h31c1.5,0,2.8-1.3,2.8-2.8
			v-4.8C32.9,55.6,31.6,54.4,30.1,54.4z M1.1,62.4h-2c-0.2,0-0.4-0.2-0.4-0.4v-4.8c0-0.2,0.2-0.4,0.4-0.4h2V62.4z M7.5,62.4h-4v-5.6
			h4V62.4z M12.2,62.4H9.8v-5.6h2.4V62.4z M17.8,62.4h-3.2v-5.6h3.2V62.4z M23.3,62.4h-3.2v-5.6h3.2V62.4z M30.5,62
			c0,0.2-0.2,0.4-0.4,0.4h-4.4v-5.6h4.4c0.2,0,0.4,0.2,0.4,0.4V62z M35.3,48.8H-6c-2.4,0-4,2-4,4.4v16c0,2.4,1.6,4.4,4,4.4h1.6
			c0,0.3-0.1,0.5-0.1,0.8c0,2.5,2.1,4.6,4.6,4.6s4.6-2.1,4.6-4.6c0-0.3,0-0.6-0.1-0.8h19.7c0,0.3-0.1,0.5-0.1,0.8
			c0,2.5,2.1,4.6,4.6,4.6s4.6-2.1,4.6-4.6c0-0.3,0-0.6-0.1-0.8h1.9c2.4,0,4.7-2,4.7-4.4v-16C40,50.8,37.7,48.8,35.3,48.8z M0.1,76.6
			c-1.2,0-2.2-1-2.2-2.2c0-1.2,1-2.2,2.2-2.2s2.2,1,2.2,2.2C2.3,75.6,1.3,76.6,0.1,76.6z M28.8,76.6c-1.2,0-2.2-1-2.2-2.2
			c0-1.2,1-2.2,2.2-2.2s2.2,1,2.2,2.2C31,75.6,30.1,76.6,28.8,76.6z M37.6,64.8c-0.1,0-0.2-0.1-0.3-0.1h-2.4c-0.7,0-1.2,0.5-1.2,1.2
			c0,0.7,0.5,1.2,1.2,1.2h2.4c0.1,0,0.2,0,0.3-0.1v2.1c0,1.1-1.2,2-2.3,2h-2.8c-0.1,0-0.2,0-0.3,0.1c-0.8-0.9-2-1.5-3.3-1.5
			s-2.5,0.5-3.3,1.4c-0.1,0-0.1,0-0.2,0h-22c-0.8-0.9-2-1.4-3.3-1.4s-2.4,0.5-3.3,1.4l0,0H-6c-1.1,0-1.6-0.9-1.6-2v-16
			c0-1.1,0.6-2,1.6-2h41.3c1.1,0,2.3,0.9,2.3,2V64.8z M6.3,46.4H23c0.7,0,1.2-0.5,1.2-1.2S23.7,44,23,44H6.3c-0.7,0-1.2,0.5-1.2,1.2
			C5.1,45.9,5.7,46.4,6.3,46.4z"/>
	</g>
</g>
</svg>
