<?xml version="1.0" encoding="utf-8"?>
<!-- Generator: Adobe Illustrator 19.0.0, SVG Export Plug-In . SVG Version: 6.00 Build 0)  -->
<svg version="1.1" id="圖層_1" xmlns="http://www.w3.org/2000/svg" xmlns:xlink="http://www.w3.org/1999/xlink" x="0px" y="0px"
	 viewBox="5 -5 60 60" enable-background="new 5 -5 60 60" xml:space="preserve">
<g>
	<g id="橢圓_9_拷貝_22_1_">
		<g>
			<ellipse fill-rule="evenodd" clip-rule="evenodd" fill="#F75E57" cx="35" cy="25" rx="30" ry="30"/>
		</g>
	</g>
	<g id="Path_拷貝_15_1_">
		<g>
			<path fill="#FFFFFF" d="M46.5,19.5H22.9c-1.2,0-2.1,0.9-2.1,2.1v3.6c0,1.1,0.9,2.1,2.1,2.1h23.5c1.2,0,2.1-0.9,2.1-2.1v-3.6
				C48.6,20.5,47.6,19.5,46.5,19.5z M24.4,25.5h-1.5c-0.2,0-0.3-0.1-0.3-0.3v-3.6c0-0.2,0.1-0.3,0.3-0.3h1.5V25.5z M29.3,25.5h-3
				v-4.2h3V25.5z M32.9,25.5h-1.8v-4.2h1.8V25.5z M37.1,25.5h-2.4v-4.2h2.4V25.5z M41.3,25.5h-2.4v-4.2h2.4V25.5z M46.8,25.2
				c0,0.2-0.1,0.3-0.3,0.3h-3.3v-4.2h3.3c0.2,0,0.3,0.1,0.3,0.3V25.2z M50.4,15.4H19.1c-1.8,0-3.1,1.5-3.1,3.3v11.9
				c0,1.8,1.2,3.3,3.1,3.3h1.2c0,0.2-0.1,0.4-0.1,0.6c0,1.9,1.6,3.4,3.5,3.4c1.9,0,3.5-1.5,3.5-3.4c0-0.2,0-0.4-0.1-0.6h15
				c0,0.2-0.1,0.4-0.1,0.6c0,1.9,1.6,3.4,3.5,3.4c1.9,0,3.5-1.5,3.5-3.4c0-0.2,0-0.4-0.1-0.6h1.5c1.8,0,3.6-1.5,3.6-3.3V18.6
				C54,16.8,52.3,15.4,50.4,15.4z M23.7,36c-0.9,0-1.7-0.7-1.7-1.6c0-0.9,0.8-1.6,1.7-1.6c0.9,0,1.7,0.7,1.7,1.6
				C25.4,35.3,24.6,36,23.7,36z M45.5,36c-0.9,0-1.7-0.7-1.7-1.6c0-0.9,0.8-1.6,1.7-1.6c0.9,0,1.7,0.7,1.7,1.6
				C47.2,35.3,46.4,36,45.5,36z M52.2,27.3c-0.1,0-0.2-0.1-0.3-0.1h-1.8c-0.5,0-0.9,0.4-0.9,0.9c0,0.5,0.4,0.9,0.9,0.9h1.8
				c0.1,0,0.2,0,0.3-0.1v1.5c0,0.8-0.9,1.5-1.8,1.5h-2.1c-0.1,0-0.2,0-0.3,0.1c-0.6-0.7-1.5-1.1-2.5-1.1c-1,0-1.9,0.4-2.5,1.1
				c0,0-0.1,0-0.1,0H26.2c-0.6-0.6-1.5-1-2.5-1c-1,0-1.9,0.4-2.5,1c0,0,0,0,0,0h-2.1c-0.8,0-1.3-0.7-1.3-1.5V18.6
				c0-0.8,0.4-1.5,1.3-1.5h31.4c0.8,0,1.8,0.7,1.8,1.5V27.3z M28.4,13.6h12.7c0.5,0,0.9-0.4,0.9-0.9c0-0.5-0.4-0.9-0.9-0.9H28.4
				c-0.5,0-0.9,0.4-0.9,0.9C27.5,13.2,27.9,13.6,28.4,13.6z"/>
		</g>
	</g>
</g>
</svg>
