<?xml version="1.0" encoding="utf-8"?>
<!-- Generator: Adobe Illustrator 19.0.0, SVG Export Plug-In . SVG Version: 6.00 Build 0)  -->
<svg version="1.1" id="圖層_1" xmlns="http://www.w3.org/2000/svg" xmlns:xlink="http://www.w3.org/1999/xlink" x="0px" y="0px"
	 viewBox="-37 31.5 60 60" style="enable-background:new -37 31.5 60 60;" xml:space="preserve">
<style type="text/css">
	.st0{fill:#F75E57;}
</style>
<g id="Path_86_">
	<g id="XMLID_146_">
		<path id="XMLID_147_" class="st0" d="M7,50.6C5.2,44.4-0.4,40-6.8,40C-14.6,40-21,46.5-21,54.6c0,1.5,0.7,3.3,1.2,4.7
			c0.1,0.3,0.2,0.6,0.3,0.8v0.1l10.4,21.3c0.4,0.9,1.3,1.5,2.3,1.5l0,0c1,0,1.9-0.6,2.3-1.5L6,60.2c0.2-0.5,0-1.1-0.4-1.4
			c-0.5-0.3-1.1-0.1-1.3,0.5L-6.3,80.5c-0.1,0.3-0.4,0.3-0.5,0.3l0,0c-0.1,0-0.4,0-0.5-0.3l-10.4-21.1c-0.1-0.2-0.2-0.5-0.3-0.8
			c-0.5-1.3-1.1-2.9-1.1-4C-19,47.7-13.5,42-6.8,42c5.5,0,10.3,3.8,11.8,9.1c0.2,0.5,0.7,0.9,1.2,0.7C6.8,51.7,7.1,51.2,7,50.6z
			 M-4.3,50.1c-1-1-2.3-1.6-3.8-1.6c-1.4,0-2.8,0.6-3.8,1.6c-2.1,2.1-2.1,5.6,0,7.7c1,1,2.3,1.6,3.8,1.6c1.2,0,2.3-0.4,3.2-1.1
			c0,0.2,0.1,0.4,0.3,0.6l2.9,3c0.2,0.2,0.5,0.3,0.7,0.3s0.5-0.1,0.7-0.3c0.4-0.4,0.4-1,0-1.4l-2.9-3c-0.2-0.2-0.4-0.3-0.6-0.3
			C-2.2,55.1-2.4,52-4.3,50.1z M-5.7,56.4c-0.6,0.6-1.5,1-2.4,1c-0.9,0-1.7-0.4-2.4-1c-1.3-1.3-1.3-3.5,0-4.8c0.6-0.6,1.5-1,2.4-1
			s1.7,0.4,2.4,1C-4.4,52.9-4.4,55-5.7,56.4z"/>
	</g>
</g>
</svg>
