<?xml version="1.0" encoding="utf-8"?>
<!-- Generator: Adobe Illustrator 19.0.0, SVG Export Plug-In . SVG Version: 6.00 Build 0)  -->
<svg version="1.1" id="圖層_1" xmlns="http://www.w3.org/2000/svg" xmlns:xlink="http://www.w3.org/1999/xlink" x="0px" y="0px"
	 viewBox="5 -5 60 60" enable-background="new 5 -5 60 60" xml:space="preserve">
<g>
	<g id="橢圓_9_拷貝_23_1_">
		<g>
			<ellipse fill-rule="evenodd" clip-rule="evenodd" fill="#F75E57" cx="35" cy="25" rx="30" ry="30"/>
		</g>
	</g>
	<g id="Path_拷貝_13_1_">
		<g>
			<path fill="#FFFFFF" d="M46,16.2c-1.4-4.9-5.8-8.4-10.8-8.4C29,7.8,24,13,24,19.3c0,1.2,0.5,2.6,0.9,3.7c0.1,0.2,0.2,0.5,0.2,0.7
				c0,0,0,0.1,0,0.1l8.2,16.8c0.3,0.7,1,1.2,1.8,1.2h0c0.8,0,1.5-0.5,1.8-1.2l8.2-16.8c0.2-0.4,0-0.9-0.3-1.1
				c-0.4-0.2-0.9,0-1.1,0.4l-8.2,16.8c-0.1,0.2-0.3,0.3-0.4,0.3h0c-0.1,0-0.3,0-0.4-0.3l-8.1-16.7c-0.1-0.2-0.1-0.4-0.2-0.6
				c-0.4-1-0.8-2.3-0.8-3.1c0-5.5,4.3-9.9,9.6-9.9c4.3,0,8.1,3,9.3,7.2c0.1,0.4,0.6,0.7,1,0.6C45.8,17.1,46.1,16.6,46,16.2z
				 M37.2,15.8c-0.8-0.8-1.8-1.3-3-1.3c-1.1,0-2.2,0.4-3,1.3c-1.6,1.7-1.6,4.4,0,6.1c0.8,0.8,1.8,1.3,3,1.3c0.9,0,1.8-0.3,2.5-0.9
				c0,0.2,0.1,0.3,0.2,0.5l2.3,2.3c0.2,0.2,0.4,0.2,0.6,0.2c0.2,0,0.4-0.1,0.6-0.2c0.3-0.3,0.3-0.8,0-1.1L38,21.6
				c-0.1-0.1-0.3-0.2-0.5-0.2C38.8,19.7,38.6,17.3,37.2,15.8z M36,20.8c-0.5,0.5-1.2,0.8-1.9,0.8c-0.7,0-1.4-0.3-1.9-0.8
				c-1-1.1-1-2.8,0-3.8c0.5-0.5,1.2-0.8,1.9-0.8c0.7,0,1.4,0.3,1.9,0.8C37.1,18,37.1,19.7,36,20.8z"/>
		</g>
	</g>
</g>
</svg>
