<?xml version="1.0" encoding="utf-8"?>
<!-- Generator: Adobe Illustrator 19.0.0, SVG Export Plug-In . SVG Version: 6.00 Build 0)  -->
<svg version="1.1" id="圖層_1" xmlns="http://www.w3.org/2000/svg" xmlns:xlink="http://www.w3.org/1999/xlink" x="0px" y="0px"
	 viewBox="-36.5 31.5 60 60" style="enable-background:new -36.5 31.5 60 60;" xml:space="preserve">
<style type="text/css">
	.st0{fill:#F75E57;}
</style>
<g id="Path_48_">
	<g id="XMLID_179_">
		<path id="XMLID_180_" class="st0" d="M-2.4,45.6c-0.5-0.2-1.1,0-1.3,0.5c-0.2,0.5,0,1.1,0.5,1.4c2.8,1.3,4.6,4.1,4.6,7.2
			c0,4.3-3.5,7.9-7.8,7.9s-7.8-3.5-7.8-7.9c0-3,1.8-5.8,4.5-7.1c0.5-0.2,0.7-0.9,0.5-1.4s-0.8-0.7-1.4-0.5c-3.4,1.6-5.7,5.1-5.7,9
			c0,5.5,4.4,9.9,9.8,9.9s9.8-4.4,9.8-9.9C3.3,50.7,1.1,47.2-2.4,45.6z M-6.5,40c-8,0-14.5,6.6-14.5,14.6c0,1.5,0.7,3.3,1.2,4.7
			c0.1,0.3,0.2,0.6,0.3,0.8v0.1l10.6,21.3c0.4,0.9,1.3,1.5,2.3,1.5s1.9-0.6,2.3-1.5L6.3,60.2c0,0,0-0.1,0.1-0.1
			c0.1-0.3,0.2-0.5,0.3-0.8c0.5-1.4,1.2-3.2,1.2-4.7C8,46.6,1.5,40-6.5,40z M4.9,58.6c-0.1,0.3-0.2,0.6-0.3,0.8L-6,80.6
			c-0.1,0.3-0.4,0.3-0.5,0.3s-0.4,0-0.5-0.3l-10.6-21.2c-0.1-0.3-0.2-0.5-0.3-0.8c-0.5-1.3-1.1-2.9-1.1-4C-19,47.7-13.4,42-6.5,42
			S6,47.7,6,54.6C6,55.7,5.4,57.3,4.9,58.6z M-4.9,66.7h-3c-1.2,0-2,1.5-1.4,2.6l1.5,4.9c0.6,1.2,2.3,1.3,2.9,0.1l1.5-5
			C-2.9,68.3-3.7,66.7-4.9,66.7z"/>
	</g>
</g>
</svg>
