<?xml version="1.0" encoding="utf-8"?>
<!-- Generator: Adobe Illustrator 19.0.0, SVG Export Plug-In . SVG Version: 6.00 Build 0)  -->
<svg version="1.1" id="圖層_1" xmlns="http://www.w3.org/2000/svg" xmlns:xlink="http://www.w3.org/1999/xlink" x="0px" y="0px"
	 viewBox="5 -5 60 60" enable-background="new 5 -5 60 60" xml:space="preserve">
<g>
	<g id="橢圓_9_拷貝_26_1_">
		<g>
			<ellipse fill-rule="evenodd" clip-rule="evenodd" fill="#F75E57" cx="35" cy="25" rx="30" ry="30"/>
		</g>
	</g>
	<g id="Path_拷貝_14_1_">
		<g>
			<path fill="#FFFFFF" d="M38.7,12.2c-0.4-0.2-0.9,0-1.1,0.4c-0.2,0.4,0,0.9,0.4,1.1c2.2,1,3.6,3.2,3.6,5.7c0,3.4-2.8,6.2-6.2,6.2
				c-3.4,0-6.2-2.8-6.2-6.2c0-2.4,1.4-4.6,3.6-5.6c0.4-0.2,0.6-0.7,0.4-1.1c-0.2-0.4-0.7-0.6-1.1-0.4c-2.7,1.3-4.5,4.1-4.5,7.1
				c0,4.3,3.5,7.8,7.8,7.8c4.3,0,7.8-3.5,7.8-7.8C43.3,16.3,41.5,13.5,38.7,12.2z M35.5,7.8C29.2,7.8,24,13,24,19.4
				c0,1.2,0.5,2.6,1,3.7c0.1,0.2,0.2,0.5,0.2,0.7c0,0,0,0.1,0,0.1l8.4,16.8c0.4,0.7,1.1,1.2,1.9,1.2c0.8,0,1.5-0.4,1.9-1.1l8.4-16.8
				c0,0,0-0.1,0-0.1c0.1-0.2,0.2-0.4,0.2-0.7c0.4-1.1,1-2.5,1-3.7C47,13,41.8,7.8,35.5,7.8z M44.5,22.5c-0.1,0.2-0.2,0.4-0.2,0.6
				l-8.4,16.8c-0.1,0.2-0.3,0.3-0.4,0.3c-0.1,0-0.3,0-0.4-0.3l-8.4-16.8c-0.1-0.2-0.2-0.4-0.2-0.6c-0.4-1-0.8-2.3-0.8-3.1
				c0-5.5,4.4-9.9,9.9-9.9c5.5,0,9.9,4.5,9.9,9.9C45.4,20.2,44.9,21.5,44.5,22.5z M36.8,29h-2.4c-0.9,0-1.6,1.2-1.1,2.1l1.2,3.8
				c0.5,1,1.8,1.1,2.3,0.1l1.2-4C38.3,30.2,37.7,29,36.8,29z"/>
		</g>
	</g>
</g>
</svg>
