<?xml version="1.0" encoding="utf-8"?>
<!-- Generator: Adobe Illustrator 19.0.0, SVG Export Plug-In . SVG Version: 6.00 Build 0)  -->
<svg version="1.1" id="圖層_1" xmlns="http://www.w3.org/2000/svg" xmlns:xlink="http://www.w3.org/1999/xlink" x="0px" y="0px"
	 viewBox="-25 32 60 60" style="enable-background:new -25 32 60 60;" xml:space="preserve">
<style type="text/css">
	.st0{fill:#F75E57;}
</style>
<g id="Path_44_">
	<g id="XMLID_249_">
		<path id="XMLID_250_" class="st0" d="M-4.6,50.8v0.1l5.3,10.7c0.3,0.6,0.9,1,1.6,1c0.7,0,1.3-0.4,1.6-1L9.4,51c0,0,0-0.1,0.1-0.1
			c0-0.1,0.1-0.3,0.2-0.4c0.3-0.8,0.6-1.7,0.6-2.5c0-4.3-3.5-7.9-7.8-7.9s-7.8,3.5-7.8,7.9c0,0.8,0.4,1.8,0.6,2.6
			C-4.7,50.6-4.6,50.7-4.6,50.8z M2.4,42.1c3.2,0,5.8,2.6,5.8,5.8c0,0.5-0.3,1.2-0.5,1.8c-0.1,0.1-0.1,0.3-0.1,0.4L2.5,60.4
			l-5.1-10.3c0-0.1-0.1-0.3-0.1-0.4c-0.2-0.6-0.5-1.4-0.5-1.8C-3.3,44.7-0.8,42.1,2.4,42.1z M2.4,52.5c2.5,0,4.6-2.1,4.6-4.6
			c0-1.8-1.1-3.5-2.7-4.2c-0.5-0.2-1.1,0-1.4,0.5c-0.2,0.5,0,1.1,0.5,1.4C4.4,46,5,46.9,5,47.9c0,1.4-1.1,2.6-2.5,2.6S0,49.3,0,47.9
			c0-1,0.6-1.9,1.5-2.3C2,45.4,2.2,44.7,2,44.2s-0.8-0.7-1.4-0.5C-1,44.5-2,46.1-2,47.9C-2.2,50.5-0.1,52.5,2.4,52.5z M20.6,75.2
			c-1.5,0-2.9,0.8-3.7,2L6.6,72.8v-0.1c0-2.1-1.4-3.8-3.3-4.3l0.1-3.3c0-0.6-0.4-1-1-1.1c-0.6,0-1,0.4-1.1,1l-0.1,3.3
			c-1.9,0.5-3.4,2.2-3.4,4.3c0,0.2,0,0.3,0.1,0.5l-5.4,2.6c-0.8-0.8-1.9-1.4-3.2-1.4c-2.4,0-4.4,2-4.4,4.4c0,2.4,2,4.4,4.4,4.4
			s4.4-2,4.4-4.4c0-0.4-0.1-0.9-0.2-1.3l5.1-2.5c0.8,1.2,2.1,2,3.6,2c1.7,0,3.1-0.9,3.8-2.3l10.2,4.3c0,0.1,0,0.3,0,0.4
			c0,2.4,2,4.4,4.4,4.4s4.4-2,4.4-4.4S23,75.2,20.6,75.2z M-10.6,81.3c-1.3,0-2.3-1.1-2.3-2.4c0-1.3,1.1-2.4,2.3-2.4
			c1.3,0,2.3,1.1,2.3,2.4S-9.3,81.3-10.6,81.3z M2.3,75.1C1,75.1,0,74,0,72.7c0-1.2,0.8-2.1,1.9-2.3c0.1,0.1,0.3,0.1,0.4,0.1l0,0
			c0.2,0,0.3,0,0.4-0.1c1.1,0.2,1.9,1.2,1.9,2.3C4.6,74,3.6,75.1,2.3,75.1z M20.6,81.9c-1.3,0-2.3-1.1-2.3-2.4s1.1-2.4,2.3-2.4
			s2.3,1.1,2.3,2.4S21.9,81.9,20.6,81.9z"/>
	</g>
</g>
</svg>
