<?xml version="1.0" encoding="utf-8"?>
<!-- Generator: Adobe Illustrator 19.0.0, SVG Export Plug-In . SVG Version: 6.00 Build 0)  -->
<svg version="1.1" id="圖層_1" xmlns="http://www.w3.org/2000/svg" xmlns:xlink="http://www.w3.org/1999/xlink" x="0px" y="0px"
	 viewBox="5 -5 60 60" enable-background="new 5 -5 60 60" xml:space="preserve">
<g>
	<g id="橢圓_9_拷貝_29_1_">
		<g>
			<ellipse fill-rule="evenodd" clip-rule="evenodd" fill="#F75E57" cx="35" cy="25" rx="30" ry="30"/>
		</g>
	</g>
	<g id="Path_拷貝_16_1_">
		<g>
			<path fill="#FFFFFF" d="M27.6,15.7C27.6,15.7,27.6,15.7,27.6,15.7l4.4,8.9c0.3,0.5,0.8,0.8,1.3,0.8c0.6,0,1.1-0.3,1.3-0.8
				l4.4-8.8c0,0,0-0.1,0-0.1c0-0.1,0.1-0.2,0.1-0.3c0.2-0.6,0.5-1.4,0.5-2.1c0-3.6-2.9-6.4-6.4-6.4c-3.5,0-6.4,2.9-6.4,6.4
				c0,0.7,0.3,1.5,0.5,2.1C27.5,15.5,27.6,15.6,27.6,15.7z M33.4,8.5c2.6,0,4.7,2.1,4.7,4.8c0,0.4-0.2,1-0.4,1.5
				c0,0.1-0.1,0.2-0.1,0.3l-4.2,8.4l-4.2-8.4c0-0.1-0.1-0.2-0.1-0.3c-0.2-0.5-0.4-1.1-0.4-1.5C28.6,10.6,30.8,8.5,33.4,8.5z
				 M33.4,17.1c2.1,0,3.8-1.7,3.8-3.8c0-1.5-0.9-2.8-2.2-3.5c-0.4-0.2-0.9,0-1.1,0.4c-0.2,0.4,0,0.9,0.4,1.1
				c0.7,0.3,1.2,1.1,1.2,1.9c0,1.2-0.9,2.1-2.1,2.1c-1.2,0-2.1-0.9-2.1-2.1c0-0.8,0.5-1.6,1.2-1.9c0.4-0.2,0.6-0.7,0.4-1.1
				s-0.7-0.6-1.1-0.4c-1.3,0.6-2.2,2-2.2,3.4C29.6,15.4,31.3,17.1,33.4,17.1z M48.4,35.6c-1.3,0-2.4,0.7-3,1.7l-8.5-3.6
				c0,0,0-0.1,0-0.1c0-1.7-1.2-3.1-2.7-3.5l0.1-2.7c0-0.5-0.3-0.8-0.8-0.9c-0.5,0-0.9,0.4-0.9,0.8l-0.1,2.7
				c-1.6,0.4-2.8,1.8-2.8,3.5c0,0.1,0,0.3,0,0.4l-4.5,2.1c-0.7-0.7-1.6-1.1-2.6-1.1c-2,0-3.6,1.6-3.6,3.6c0,2,1.6,3.6,3.6,3.6
				c2,0,3.6-1.6,3.6-3.6c0-0.4-0.1-0.7-0.2-1l4.2-2c0.6,1,1.8,1.6,3,1.6c1.4,0,2.5-0.8,3.2-1.9l8.4,3.5c0,0.1,0,0.2,0,0.4
				c0,2,1.6,3.6,3.6,3.6c2,0,3.6-1.6,3.6-3.6C52,37.2,50.4,35.6,48.4,35.6z M22.6,40.6c-1.1,0-1.9-0.9-1.9-1.9s0.9-1.9,1.9-1.9
				c1.1,0,1.9,0.9,1.9,1.9S23.7,40.6,22.6,40.6z M33.3,35.5c-1.1,0-1.9-0.9-1.9-1.9c0-0.9,0.7-1.7,1.6-1.9c0.1,0.1,0.2,0.1,0.3,0.1
				h0c0.1,0,0.2,0,0.3-0.1c0.9,0.2,1.6,1,1.6,1.9C35.2,34.6,34.3,35.5,33.3,35.5z M48.4,41.1c-1.1,0-1.9-0.9-1.9-1.9
				c0-1.1,0.9-1.9,1.9-1.9c1.1,0,1.9,0.9,1.9,1.9C50.3,40.3,49.4,41.1,48.4,41.1z"/>
		</g>
	</g>
</g>
</svg>
