<?xml version="1.0" encoding="utf-8"?>
<!-- Generator: Adobe Illustrator 19.0.0, SVG Export Plug-In . SVG Version: 6.00 Build 0)  -->
<svg version="1.1" id="圖層_1" xmlns="http://www.w3.org/2000/svg" xmlns:xlink="http://www.w3.org/1999/xlink" x="0px" y="0px"
	 viewBox="-25 31.5 60 60" style="enable-background:new -25 31.5 60 60;" xml:space="preserve">
<style type="text/css">
	.st0{fill:#F75E57;}
</style>
<g id="Path_50_">
	<g id="XMLID_82_">
		<path id="XMLID_83_" class="st0" d="M10.1,45.8C10.1,45.8,10.2,45.8,10.1,45.8v-6.7C10.2,38.5,9.7,38,9,38H0.9
			c-0.6,0-1.1,0.5-1.1,1.1v6.6l0,0C-8.7,48.1-15,55.8-15,65c0,11,9,20,20,20s20-9,20-20C25,55.8,18.7,48.1,10.1,45.8z M2,40.2h5.9
			v4.4H2V40.2z M5,82.8c-9.8,0-17.8-8-17.8-17.7c0-9.8,8-17.7,17.8-17.7s17.8,8,17.8,17.7S14.8,82.8,5,82.8z M5,53.3
			c-6.5,0-11.8,5.3-11.8,11.8S-1.5,76.8,5,76.8S16.8,71.5,16.8,65S11.5,53.3,5,53.3z M5,74.6c-5.3,0-9.6-4.3-9.6-9.5
			c0-5.3,4.3-9.5,9.6-9.5s9.6,4.3,9.6,9.5S10.3,74.6,5,74.6z M10.6,67.6l-4.9-2.8v-4.6c0-0.6-0.5-1.1-1.1-1.1s-1.1,0.5-1.1,1.1v5.3
			c0,0.4,0.1,0.8,0.4,1l5.4,3.1c0.2,0.1,0.4,0.1,0.5,0.1c0.4,0,0.9-0.2,1.1-0.6C11.2,68.5,11.1,67.8,10.6,67.6z"/>
	</g>
</g>
</svg>
