<?xml version="1.0" encoding="utf-8"?>
<!-- Generator: Adobe Illustrator 19.0.0, SVG Export Plug-In . SVG Version: 6.00 Build 0)  -->
<svg version="1.1" id="圖層_1" xmlns="http://www.w3.org/2000/svg" xmlns:xlink="http://www.w3.org/1999/xlink" x="0px" y="0px"
	 viewBox="5 -5 60 60" enable-background="new 5 -5 60 60" xml:space="preserve">
<g>
	<g id="橢圓_9_拷貝_31_1_">
		<g>
			<ellipse fill-rule="evenodd" clip-rule="evenodd" fill="#F75E57" cx="35" cy="25" rx="30" ry="30"/>
		</g>
	</g>
	<g id="Path_拷貝_17_1_">
		<g>
			<path fill="#FFFFFF" d="M38.9,13.6C38.9,13.6,38.9,13.6,38.9,13.6l0-5c0-0.5-0.4-0.8-0.8-0.8h-6.1c-0.5,0-0.8,0.4-0.8,0.8v4.9
				c0,0,0,0,0,0C24.7,15.3,20,21.1,20,28c0,8.2,6.7,14.9,15,14.9c8.3,0,15-6.7,15-14.9C50,21.1,45.3,15.3,38.9,13.6z M32.8,9.5h4.4
				v3.3h-4.4V9.5z M35,41.2c-7.4,0-13.3-5.9-13.3-13.2c0-7.3,6-13.2,13.3-13.2c7.4,0,13.3,5.9,13.3,13.2
				C48.3,35.2,42.4,41.2,35,41.2z M35,19.2c-4.9,0-8.8,3.9-8.8,8.8c0,4.8,4,8.8,8.8,8.8c4.9,0,8.8-3.9,8.8-8.8
				C43.8,23.1,39.9,19.2,35,19.2z M35,35.1c-4,0-7.2-3.2-7.2-7.1c0-3.9,3.2-7.1,7.2-7.1c4,0,7.2,3.2,7.2,7.1
				C42.2,31.9,39,35.1,35,35.1z M39.2,29.8l-3.6-2.1v-3.5c0-0.5-0.4-0.8-0.8-0.8s-0.8,0.4-0.8,0.8v3.9c0,0.3,0,0.6,0.3,0.7l4.1,2.3
				c0.1,0.1,0.3,0.1,0.4,0.1c0.3,0,0.6-0.2,0.8-0.4C39.7,30.5,39.6,30,39.2,29.8z"/>
		</g>
	</g>
</g>
</svg>
