<?xml version="1.0" encoding="utf-8"?>
<!-- Generator: Adobe Illustrator 19.0.0, SVG Export Plug-In . SVG Version: 6.00 Build 0)  -->
<svg version="1.1" id="圖層_1" xmlns="http://www.w3.org/2000/svg" xmlns:xlink="http://www.w3.org/1999/xlink" x="0px" y="0px"
	 viewBox="-25 32 60 60" style="enable-background:new -25 32 60 60;" xml:space="preserve">
<style type="text/css">
	.st0{fill:#F75E57;}
</style>
<g id="Composite_Path_24_">
	<g id="XMLID_102_">
		<path id="XMLID_103_" class="st0" d="M6.3,47.1v-2.2H9c1.5,0,2.8-1.2,2.8-2.8v-2.3c0-1.6-1.2-2.8-2.8-2.8H1
			c-1.5,0-2.8,1.2-2.8,2.8v2.4c0,1.5,1.2,2.8,2.8,2.8h2.8v2.2C-6.6,47.7-15,56.4-15,67c0,11,9,20,20,20s20-9,20-20
			C25,56.5,16.7,47.8,6.3,47.1z M1.1,42.6c-0.2,0-0.4-0.2-0.4-0.4v-2.4c0-0.2,0.2-0.4,0.4-0.4h8c0.2,0,0.4,0.2,0.4,0.4v2.4
			c0,0.2-0.2,0.4-0.4,0.4H1.1z M5,84.6c-9.7,0-17.6-7.9-17.6-17.6S-4.7,49.4,5,49.4S22.6,57.3,22.6,67S14.7,84.6,5,84.6z M5,53.2
			c-7.7,0-13.9,6.2-13.9,13.9S-2.7,81,5,81s13.9-6.2,13.9-13.9S12.7,53.2,5,53.2z M5,78.6c-6.4,0-11.5-5.2-11.5-11.5
			S-1.3,55.6,5,55.6c6.4,0,11.5,5.2,11.5,11.5S11.4,78.6,5,78.6z M2.9,67.6c-0.4,1.1,0.2,2.2,1.3,2.6c1.1,0.4,2.2-0.2,2.6-1.3
			L9.9,60l-6.5,6.9C3.1,67.1,3,67.3,2.9,67.6z"/>
	</g>
</g>
</svg>
