<?xml version="1.0" encoding="utf-8"?>
<!-- Generator: Adobe Illustrator 19.0.0, SVG Export Plug-In . SVG Version: 6.00 Build 0)  -->
<svg version="1.1" id="圖層_1" xmlns="http://www.w3.org/2000/svg" xmlns:xlink="http://www.w3.org/1999/xlink" x="0px" y="0px"
	 viewBox="5 -5 60 60" enable-background="new 5 -5 60 60" xml:space="preserve">
<g>
	<g id="橢圓_9_拷貝_30_1_">
		<g>
			<ellipse fill-rule="evenodd" clip-rule="evenodd" fill="#F75E57" cx="35" cy="25" rx="30" ry="30"/>
		</g>
	</g>
	<g id="Composite_Path_拷貝_6_1_">
		<g>
			<path fill="#FFFFFF" d="M35.9,14.9v-1.6h1.9c1.1,0,1.9-0.9,1.9-1.9V9.8c0-1.1-0.9-1.9-1.9-1.9h-5.6c-1.1,0-1.9,0.9-1.9,1.9v1.7
				c0,1.1,0.9,1.9,1.9,1.9h1.9v1.5C26.8,15.3,21,21.4,21,28.8c0,7.7,6.3,14,14,14s14-6.3,14-14C49,21.4,43.2,15.4,35.9,14.9z
				 M32.3,11.7c-0.2,0-0.3-0.1-0.3-0.3V9.8c0-0.2,0.1-0.3,0.3-0.3h5.6c0.2,0,0.3,0.1,0.3,0.3v1.7c0,0.2-0.1,0.3-0.3,0.3H32.3z
				 M35,41.1c-6.8,0-12.3-5.5-12.3-12.3c0-6.8,5.5-12.3,12.3-12.3s12.3,5.5,12.3,12.3C47.3,35.6,41.8,41.1,35,41.1z M35,19.1
				c-5.4,0-9.7,4.4-9.7,9.7c0,5.4,4.4,9.7,9.7,9.7c5.4,0,9.7-4.4,9.7-9.7C44.7,23.5,40.4,19.1,35,19.1z M35,36.9
				c-4.5,0-8.1-3.6-8.1-8.1c0-4.4,3.6-8.1,8.1-8.1c4.5,0,8.1,3.6,8.1,8.1C43.1,33.3,39.5,36.9,35,36.9z M33.5,29.2
				c-0.3,0.7,0.1,1.5,0.9,1.8c0.7,0.3,1.6-0.1,1.8-0.9l2.1-6.3l-4.5,4.8C33.7,28.9,33.6,29,33.5,29.2z"/>
		</g>
	</g>
</g>
</svg>
