<?xml version="1.0" encoding="utf-8"?>
<!-- Generator: Adobe Illustrator 19.0.0, SVG Export Plug-In . SVG Version: 6.00 Build 0)  -->
<svg version="1.1" id="圖層_1" xmlns="http://www.w3.org/2000/svg" xmlns:xlink="http://www.w3.org/1999/xlink" x="0px" y="0px"
	 viewBox="-25 32 60 60" style="enable-background:new -25 32 60 60;" xml:space="preserve">
<style type="text/css">
	.st0{fill:#F75E57;}
</style>
<g id="Path_78_">
	<g id="XMLID_149_">
		<path id="XMLID_150_" class="st0" d="M24.9,60.3c0-0.2,0-0.4-0.1-0.6c0-0.3-0.1-0.7-0.2-1.1c-0.2-1-0.4-2-0.7-2.9
			c-0.1-0.3-0.2-0.6-0.3-0.9c-0.1-0.2-0.2-0.5-0.3-0.7c-0.2-0.4-0.3-0.8-0.5-1.1C19.5,46.5,12.7,42,5,42c-6.2,0-11.7,2.8-15.4,7.2
			c-5,5-4.6,12.5-4.6,12.8l0,0c0,11,9,19.9,20,19.9s20-8.9,20-19.9l0,0C25,61.9,25,61.3,24.9,60.3z M15.2,62.3H23
			c-0.4,6.1-3.7,10.2-5.3,11.8C15.7,70.3,15.1,66.2,15.2,62.3z M15.4,60.3c0.5-4.6,1.8-8.5,2.5-10.4c3.7,3.1,4.7,7.9,5,10.4H15.4z
			 M13.3,60.3H6V44c4,0.2,7.6,1.7,10.5,4.1C16,49.3,13.9,54.3,13.3,60.3z M4,60.3h-7.6c-0.6-5.8-2.5-10.6-3.1-12
			C-3.8,46-0.1,44.3,4,44V60.3z M-8.2,50c0.7,1.8,2.1,5.8,2.5,10.4h-7.2c0.3-3.7,1.8-7,4-9.7C-8.7,50.4-8.5,50.2-8.2,50z M-8,74.1
			c-1.5-1.6-4.6-5.6-5-11.7h7.4C-5.4,66.2-5.9,70.3-8,74.1z M-3.5,62.3H4v17.7c-4-0.2-7.7-1.8-10.6-4.3C-4.1,71.4-3.3,66.7-3.5,62.3
			z M6,62.3h7.2c-0.2,4.4,0.6,9.2,3.3,13.6C13.6,78.4,10,79.9,6,80.1V62.3z"/>
	</g>
</g>
</svg>
