<?xml version="1.0" encoding="utf-8"?>
<!-- Generator: Adobe Illustrator 19.0.0, SVG Export Plug-In . SVG Version: 6.00 Build 0)  -->
<svg version="1.1" id="圖層_1" xmlns="http://www.w3.org/2000/svg" xmlns:xlink="http://www.w3.org/1999/xlink" x="0px" y="0px"
	 viewBox="5 -5 60 60" enable-background="new 5 -5 60 60" xml:space="preserve">
<g>
	<g id="橢圓_9_拷貝_32_1_">
		<g>
			<ellipse fill-rule="evenodd" clip-rule="evenodd" fill="#F75E57" cx="35" cy="25" rx="30" ry="30"/>
		</g>
	</g>
	<g id="Path_拷貝_22_1_">
		<g>
			<path fill="#FFFFFF" d="M51.4,23.8c0-0.2,0-0.3-0.1-0.5c0-0.3-0.1-0.6-0.1-0.9c-0.1-0.8-0.4-1.6-0.6-2.4
				c-0.1-0.2-0.2-0.5-0.3-0.7c-0.1-0.2-0.1-0.4-0.2-0.6c-0.1-0.3-0.3-0.6-0.4-0.9c-2.7-5.3-8.3-9-14.7-9c-5.1,0-9.7,2.3-12.7,6
				c-4.1,4.1-3.8,10.3-3.8,10.6c0,0,0,0,0,0c0,9.1,7.4,16.4,16.5,16.4c9.1,0,16.5-7.4,16.5-16.4c0,0,0,0,0,0
				C51.5,25.3,51.5,24.7,51.4,23.8z M43.4,25.6h6.4c-0.3,5-3,8.4-4.3,9.7C43.8,32.2,43.3,28.7,43.4,25.6z M43.6,23.9
				c0.4-3.8,1.5-7,2.1-8.6c3.1,2.6,3.9,6.5,4.1,8.6H43.6z M41.9,23.9h-6.1V10.5c3.3,0.2,6.3,1.4,8.7,3.4
				C44.1,14.8,42.4,18.9,41.9,23.9z M34.1,23.9h-6.3c-0.5-4.8-2-8.7-2.5-9.9c2.4-2.1,5.5-3.4,8.8-3.6V23.9z M24.1,15.4
				c0.6,1.5,1.7,4.8,2.1,8.6h-6c0.3-3,1.5-5.8,3.3-8C23.7,15.7,23.9,15.5,24.1,15.4z M24.3,35.2c-1.3-1.3-3.8-4.7-4.1-9.7h6.1
				C26.4,28.7,26,32.1,24.3,35.2z M28,25.6h6.2v14.6c-3.3-0.2-6.4-1.5-8.8-3.5C27.5,33.1,28.1,29.1,28,25.6z M35.8,25.6h6
				c-0.1,3.6,0.5,7.6,2.7,11.2c-2.4,2-5.4,3.2-8.7,3.4V25.6z"/>
		</g>
	</g>
</g>
</svg>
