<?xml version="1.0" encoding="utf-8"?>
<!-- Generator: Adobe Illustrator 19.0.0, SVG Export Plug-In . SVG Version: 6.00 Build 0)  -->
<svg version="1.1" id="圖層_1" xmlns="http://www.w3.org/2000/svg" xmlns:xlink="http://www.w3.org/1999/xlink" x="0px" y="0px"
	 viewBox="-25 32 60 60" style="enable-background:new -25 32 60 60;" xml:space="preserve">
<style type="text/css">
	.st0{fill:#F75E57;}
</style>
<g id="Path_80_">
	<g id="XMLID_176_">
		<path id="XMLID_177_" class="st0" d="M24.8,64.4c0.1-0.8,0.2-1.6,0.2-2.4c0-7.5-4.1-14-10.2-17.4l-0.1-0.1c0,0,0,0-0.1,0
			C11.7,42.9,8.5,42,5,42s-6.7,0.9-9.6,2.5l0,0l-0.1,0.1C-10.9,48-15,54.5-15,62l0,0l0,0l0,0c0,6.4,3,12,7.7,15.7l0,0l0.1,0.1
			C-3.8,80.4,0.4,82,5,82l0,0c3.3,0,6.4-0.8,9.1-2.2c0,0,0,0,0.1,0l0,0c5.7-3,9.8-8.6,10.6-15.2C24.8,64.5,24.8,64.5,24.8,64.4
			L24.8,64.4z M23.1,62c0,0.4,0,0.8-0.1,1.2l-9.7-1.7l-3.5-6l4.8-8.7C19.6,49.9,23.1,55.6,23.1,62z M8.4,68.7L8.4,68.7
			C8.2,68.8,8.1,68.9,8,69H1.3c0,0,0-0.1-0.1-0.1c-0.1-0.1-0.2-0.1-0.3-0.2l-3.4-5.9l3.6-6.2h7.1l3.6,6.1L8.4,68.7z M5,44
			c2.8,0,5.5,0.7,7.8,1.8L8,54.7H1.4l-4.3-8.9C-0.5,44.6,2.2,44,5,44z M-4.6,46.8l4.2,8.7l-3.5,6l-9-0.3
			C-12.6,55.1-9.4,49.8-4.6,46.8z M-12.9,63.2l8.7,0.5l3.4,5.9l-5.8,6.1C-10.2,72.6-12.6,68.2-12.9,63.2z M5.1,81v-1l0,0
			C1.4,80-2.1,78.8-5,76.8l5.7-6h7.8l4,7.5c-2.2,1-4.7,1.6-7.3,1.6l0,0V81H5.1z M14.2,77.5L10,69.8l3.6-6.2l9.1,1.6
			C21.9,70.4,18.6,74.9,14.2,77.5z"/>
	</g>
</g>
</svg>
