<?xml version="1.0" encoding="utf-8"?>
<!-- Generator: Adobe Illustrator 19.0.0, SVG Export Plug-In . SVG Version: 6.00 Build 0)  -->
<svg version="1.1" id="圖層_1" xmlns="http://www.w3.org/2000/svg" xmlns:xlink="http://www.w3.org/1999/xlink" x="0px" y="0px"
	 viewBox="5 -5 60 60" enable-background="new 5 -5 60 60" xml:space="preserve">
<g>
	<g id="橢圓_9_拷貝_33_1_">
		<g>
			<ellipse fill-rule="evenodd" clip-rule="evenodd" fill="#F75E57" cx="35" cy="25" rx="30" ry="30"/>
		</g>
	</g>
	<g id="Path_拷貝_21_1_">
		<g>
			<path fill="#FFFFFF" d="M51.4,27.3c0.1-0.6,0.1-1.3,0.1-2c0-6.2-3.4-11.5-8.4-14.4c0,0,0,0-0.1-0.1c0,0,0,0-0.1,0
				c-2.4-1.3-5.1-2-7.9-2c-2.9,0-5.6,0.7-7.9,2c0,0,0,0,0,0c0,0-0.1,0-0.1,0.1c-5,2.8-8.5,8.2-8.5,14.4c0,0,0,0,0,0c0,0,0,0,0,0
				c0,0,0,0,0,0c0,5.3,2.5,9.9,6.3,12.9c0,0,0,0,0,0c0,0,0.1,0,0.1,0.1c2.8,2.1,6.3,3.4,10,3.4h0c2.7,0,5.3-0.7,7.6-1.9c0,0,0,0,0,0
				c0,0,0,0,0,0C47.3,37.5,50.7,32.8,51.4,27.3C51.4,27.4,51.4,27.3,51.4,27.3C51.4,27.3,51.4,27.3,51.4,27.3z M49.9,25.3
				c0,0.3,0,0.6,0,1l-8-1.4l-2.9-5l3.9-7.2C47.1,15.3,49.9,20,49.9,25.3z M37.8,30.8C37.8,30.8,37.8,30.8,37.8,30.8
				c-0.2,0.1-0.2,0.1-0.3,0.2L32,31c0,0,0-0.1-0.1-0.1c-0.1-0.1-0.1-0.1-0.2-0.1L28.9,26l2.9-5.1l5.9,0l2.9,5.1L37.8,30.8z M35,10.4
				c2.3,0,4.5,0.5,6.5,1.5l-4,7.3l-5.5,0L28.5,12C30.4,11,32.7,10.4,35,10.4z M27.1,12.7l3.4,7.1l-2.9,4.9l-7.5-0.3
				C20.4,19.6,23.1,15.3,27.1,12.7z M20.2,26.3l7.2,0.4l2.8,4.8l-4.8,5C22.5,34,20.5,30.4,20.2,26.3z M35.1,41l0-0.8c0,0,0,0,0,0
				c-3.1,0-6-1-8.4-2.6l4.7-4.9l6.4,0l3.3,6.2c-1.8,0.8-3.9,1.3-6.1,1.3c0,0,0,0,0,0V41z M42.6,38.1l-3.4-6.4l3-5.2l7.5,1.3
				C48.9,32.2,46.2,35.9,42.6,38.1z"/>
		</g>
	</g>
</g>
</svg>
