<?xml version="1.0" encoding="utf-8"?>
<!-- Generator: Adobe Illustrator 19.0.0, SVG Export Plug-In . SVG Version: 6.00 Build 0)  -->
<svg version="1.1" id="圖層_1" xmlns="http://www.w3.org/2000/svg" xmlns:xlink="http://www.w3.org/1999/xlink" x="0px" y="0px"
	 viewBox="-15 32 60 60" style="enable-background:new -15 32 60 60;" xml:space="preserve">
<style type="text/css">
	.st0{fill:#F75E57;}
</style>
<g id="Path_92_">
	<g id="XMLID_58_">
		<path id="XMLID_59_" class="st0" d="M34.7,53.2c-1.6-0.2-2.9-0.4-4.2-0.4c-3.2,0-5.3,0.8-7.1,1.5c-2.5,1-16.9,8.9-17.5,9.2
			c-0.1,0-0.1,0.1-0.2,0.1c-1.3,1.1-1.3,2.2-1.1,2.8c0.5,1.8,3.3,2.4,4.1,2.5c0.2,0,0.4,0,0.6,0c2.5-0.9,4.3-1.1,5.4-1.1
			c-0.9,1.1-1.6,1.7-2,2c-2,0-4.9-0.1-7.4-0.2c0-0.3-0.1-0.5-0.3-0.8c-1.8-2.1-1-9.2,0.1-14.2c0.6,0.4,1.3,0.7,2.1,0.7
			c0.9,0,1.9-0.4,3-1c1.3-0.9,2-1,2.4-1c0.1,0,0.2,0,0.3,0.1c0,0.3,0.5,0.6,0.9,0.6c0.7,0,1.2-0.5,1.2-1.2c0-0.2,0-0.3-0.1-0.4
			c-0.5-2.1-2-5.4-4.9-5.4c-1.1,0-2.3,0.5-3.5,1.5c-0.1,0.1-1.6,1.4-2.8,2.6c-0.1,0.1-0.2,0.3-0.3,0.5c-0.1,0.1-0.1,0.2-0.2,0.3
			c0,0.1-0.1,0.2-0.1,0.4c-1.3-1.3-2.7-2.4-2.7-2.5c-1.5-1.1-3-1.7-4.3-1.7c-4.5,0-6,6.6-6,6.9c-0.1,0.6,0.2,1.3,0.9,1.5
			c0.6,0.1,1.2-0.2,1.4-0.8c0-0.1,0.2-0.3,0.6-0.3s1.4,0.2,3.2,1.4c1.3,0.9,2.5,1.3,3.6,1.3c1,0,1.7-0.3,2.4-0.7
			c-0.7,4-1.1,9.3,0.4,12.2c-1.2-0.1-2-0.1-2-0.1c-0.5,0-0.9,0.3-1.1,0.7c-0.9,2-0.5,3.4,0.1,4.2c1.5,2.2,5.1,2.4,5.8,2.4
			c2.4,0.2,4.5,0.3,6.4,0.3c10.2,0,12.5-3.3,14.8-6.4l0.4-0.6c2.4-3.3,7.9-4.8,8-4.8c0.5-0.1,0.9-0.6,0.9-1.1v-9.8
			C35.7,53.7,35.2,53.3,34.7,53.2z M8,50.3c0.8-0.6,1.4-1,2-1c0.8,0,1.4,0.7,1.9,1.6C11,51,10,51.5,8.8,52.3C8.2,52.7,7.6,53,7.1,53
			s-0.9-0.4-1.2-0.7C7,51.2,8,50.3,8,50.3z M-0.3,55.7c-0.7,0-1.4-0.3-2.3-0.9c-1.6-1.1-3-1.7-4.2-1.7c0.6-1.3,1.6-2.6,2.9-2.6
			c0.8,0,1.7,0.4,2.7,1.3c0,0,1.5,1.3,2.9,2.7C1.4,55,0.7,55.7-0.3,55.7z M24.9,68.7l-0.4,0.6c-2.1,2.9-3.9,5.4-12.9,5.4
			c-1.8,0-3.9-0.1-6.2-0.3H5.3c-0.8,0-3.2-0.3-3.8-1.3c-0.2-0.3-0.2-0.7-0.1-1.2C3.7,72,9.7,72.3,13,72.3c0.2,0,0.4-0.1,0.6-0.2
			s1.9-1.1,4.2-4.4c0.2-0.3,0.3-0.7,0.2-1c-0.1-0.3-0.4-0.6-0.7-0.8c-0.1-0.1-0.9-0.3-2.5-0.3c-1.8,0-3.8,0.4-6,1.1
			c-0.8-0.2-1.6-0.5-1.9-0.8c0-0.1,0.1-0.2,0.3-0.4c5.2-2.8,15.2-8.3,17.2-9c1.7-0.7,3.4-1.3,6.2-1.3c0.9,0,1.8,0.1,2.8,0.2v7.9
			C31.5,63.8,27.2,65.5,24.9,68.7z M38.8,52.3c-0.7,0-1.2,0.5-1.2,1.2v10.2c0,0.7,0.5,1.2,1.2,1.2s1.2-0.5,1.2-1.2V53.4
			C40,52.8,39.5,52.3,38.8,52.3z"/>
	</g>
</g>
</svg>
