<?xml version="1.0" encoding="utf-8"?>
<!-- Generator: Adobe Illustrator 19.0.0, SVG Export Plug-In . SVG Version: 6.00 Build 0)  -->
<svg version="1.1" id="圖層_1" xmlns="http://www.w3.org/2000/svg" xmlns:xlink="http://www.w3.org/1999/xlink" x="0px" y="0px"
	 viewBox="5 -5 60 60" enable-background="new 5 -5 60 60" xml:space="preserve">
<g>
	<g id="橢圓_9_拷貝_35_1_">
		<g>
			<ellipse fill-rule="evenodd" clip-rule="evenodd" fill="#F75E57" cx="35" cy="25" rx="30" ry="30"/>
		</g>
	</g>
	<g id="Path_拷貝_19_1_">
		<g>
			<path fill="#FFFFFF" d="M49.1,19.1c-1.1-0.2-2.1-0.3-3-0.3c-2.3,0-3.8,0.6-5.1,1.1c-1.8,0.7-12.2,6.2-12.6,6.4
				c-0.1,0-0.1,0.1-0.2,0.1c-0.9,0.8-1,1.5-0.8,2c0.4,1.3,2.3,1.7,2.9,1.8c0.1,0,0.3,0,0.4,0c1.8-0.6,3.1-0.8,3.9-0.8
				c-0.7,0.8-1.2,1.2-1.4,1.4c-1.5,0-3.5-0.1-5.3-0.2c0-0.2-0.1-0.4-0.2-0.5c-1.3-1.5-0.7-6.4,0.1-10c0.4,0.3,0.9,0.5,1.5,0.5
				c0.7,0,1.4-0.2,2.1-0.7c1-0.6,1.5-0.7,1.7-0.7c0.1,0,0.2,0,0.2,0c0.1,0.3,0.5,0.5,0.8,0.5c0.5,0,0.8-0.4,0.8-0.8
				c0-0.1,0-0.2-0.1-0.3c-0.4-1.5-1.5-3.8-3.5-3.8c-0.8,0-1.7,0.4-2.5,1.1c0,0-1.1,1-2,1.9c-0.1,0.1-0.2,0.2-0.2,0.4
				c-0.1,0.1-0.1,0.2-0.1,0.2c0,0.1,0,0.2-0.1,0.3c-1-0.9-1.9-1.7-2-1.8c-1.1-0.9-2.1-1.3-3.1-1.3c-3.3,0-4.3,4.6-4.3,4.8
				c-0.1,0.4,0.2,0.9,0.6,1c0.5,0.1,0.9-0.1,1-0.6c0,0,0.1-0.2,0.5-0.2c0.3,0,1,0.1,2.3,1c0.9,0.6,1.8,0.9,2.6,0.9
				c0.7,0,1.3-0.2,1.7-0.5c-0.5,2.8-0.8,6.5,0.3,8.5c-0.9,0-1.4-0.1-1.5-0.1c-0.3,0-0.7,0.2-0.8,0.5c-0.6,1.4-0.3,2.4,0,2.9
				c1.1,1.6,3.7,1.7,4.2,1.7c1.7,0.2,3.3,0.2,4.6,0.2c7.3,0,9-2.3,10.6-4.5l0.3-0.4c1.8-2.3,5.7-3.4,5.7-3.4
				c0.4-0.1,0.6-0.4,0.6-0.8l0-6.8C49.9,19.5,49.6,19.2,49.1,19.1z M30,17.1c0.5-0.4,1-0.7,1.4-0.7c0.6,0,1,0.5,1.3,1.1
				c-0.7,0.1-1.4,0.4-2.2,1c-0.4,0.3-0.8,0.4-1.2,0.4c-0.4,0-0.7-0.3-0.9-0.5C29.2,17.8,30,17.1,30,17.1z M24,20.9
				c-0.5,0-1-0.2-1.6-0.6c-1.2-0.8-2.2-1.2-3.1-1.2c0.4-0.9,1.1-1.8,2.1-1.8c0.6,0,1.2,0.3,2,0.9c0,0,1.1,0.9,2.1,1.9
				C25.2,20.4,24.7,20.9,24,20.9z M42.1,30l-0.3,0.4c-1.5,2-2.8,3.8-9.3,3.8c-1.3,0-2.8-0.1-4.5-0.2c0,0-0.1,0-0.1,0
				c-0.6,0-2.3-0.2-2.8-0.9c-0.1-0.2-0.2-0.5-0.1-0.8c1.6,0.1,6,0.2,8.4,0.3c0.1,0,0.3,0,0.4-0.1c0.1-0.1,1.4-0.8,3-3.1
				c0.2-0.2,0.2-0.5,0.1-0.7c-0.1-0.2-0.3-0.4-0.5-0.5c-0.1,0-0.7-0.2-1.8-0.2c-1.3,0-2.7,0.3-4.3,0.8c-0.6-0.1-1.2-0.4-1.4-0.5
				c0,0,0.1-0.1,0.2-0.3c3.7-2,11-5.8,12.4-6.3c1.3-0.5,2.4-0.9,4.5-0.9c0.6,0,1.3,0,2,0.1l0,5.5C46.8,26.6,43.8,27.8,42.1,30z
				 M52.1,18.5c-0.5,0-0.9,0.4-0.9,0.8v7.1c0,0.5,0.4,0.8,0.9,0.8c0.5,0,0.9-0.4,0.9-0.8v-7.1C53,18.9,52.6,18.5,52.1,18.5z"/>
		</g>
	</g>
</g>
</svg>
