<?xml version="1.0" encoding="utf-8"?>
<!-- Generator: Adobe Illustrator 19.0.0, SVG Export Plug-In . SVG Version: 6.00 Build 0)  -->
<svg version="1.1" id="圖層_1" xmlns="http://www.w3.org/2000/svg" xmlns:xlink="http://www.w3.org/1999/xlink" x="0px" y="0px"
	 viewBox="-18.5 31.5 60 60" style="enable-background:new -18.5 31.5 60 60;" xml:space="preserve">
<style type="text/css">
	.st0{fill:#F75E57;}
</style>
<g id="Path_94_">
	<g id="XMLID_106_">
		<path id="XMLID_107_" class="st0" d="M-9.1,73.5c0,0.6,0.2,1.1,0.8,1.1H32c0.6,0,1.4-0.5,1.4-1.1v-6c0-2.9-3-5.4-6.1-5.4h-0.6
			v-1.4c0-2.7-2.4-5.6-5.3-6c-0.2-1.9-1.8-3.7-4-3.7H17v-4.4c0-0.6-0.5-1.1-1.1-1.1s-1.1,0.5-1.1,1.1V51h-2.2v-5.9
			c0-0.6-0.5-1.1-1.1-1.1s-1.1,0.5-1.1,1.1V51H8.2v-4.4c0-0.6-0.5-1.1-1.1-1.1S6,46,6,46.6V51c-2,0.1-3.5,1.8-3.7,3.7
			c-2.8,0.3-4.5,3.3-4.5,6v1.4h-1.7c-2.8,0-4.8,2-5.1,4.6l-0.1,0.1c-0.3,0.4-0.3,0.9,0,1.3C-9.1,68.1-9.1,73.5-9.1,73.5z M5.9,53.2
			h11.6c0.7,0,1.3,0.7,1.4,1.5H4.1C4.3,53.9,5.2,53.2,5.9,53.2z M-0.1,60.7c0-1.8,1-3.8,2.7-3.8h18.3c1.8,0,3.6,2.1,3.6,3.8v0.6
			H-0.1V60.7z M-3.9,64.3h31.3c1.8,0,3.7,1.4,3.8,2.9c-1.9-0.5-6.2-1.4-8.6,0.4c-1.5,1.1-5.9,0.2-8.3-0.6c-0.3-0.1-7.7-2.3-12.2,1.4
			C-0.6,70.6-5,68.2-6.8,67C-6.6,65.5-5.5,64.3-3.9,64.3z M-6.8,69.6c1.6,0.9,4,1.9,6.3,1.9c1.4,0,2.8-0.4,4.1-1.4
			c3.5-2.9,10-1,10.1-1c0.7,0.3,7.4,2.4,10.3,0.3c1.5-1.1,5.2-0.5,7.3,0.1v2.9h-38L-6.8,69.6L-6.8,69.6z M33.9,76.8h-44.8
			c-0.6,0-1.1,0.5-1.1,1.1c0,0.6,0.5,1.1,1.1,1.1h44.8c0.6,0,1.1-0.5,1.1-1.1C35,77.3,34.5,76.8,33.9,76.8z"/>
	</g>
</g>
</svg>
