<?xml version="1.0" encoding="utf-8"?>
<!-- Generator: Adobe Illustrator 19.0.0, SVG Export Plug-In . SVG Version: 6.00 Build 0)  -->
<svg version="1.1" id="圖層_1" xmlns="http://www.w3.org/2000/svg" xmlns:xlink="http://www.w3.org/1999/xlink" x="0px" y="0px"
	 viewBox="5 -5 60 60" enable-background="new 5 -5 60 60" xml:space="preserve">
<g>
	<g id="橢圓_9_拷貝_36_1_">
		<g>
			<ellipse fill="#F75E57" cx="35" cy="25" rx="30" ry="30"/>
		</g>
	</g>
	<g id="Path_拷貝_18_1_">
		<g>
			<path fill="#FFFFFF" d="M20.2,33.7c0,0.5,0.1,0.8,0.6,0.8h30c0.5,0,1.1-0.4,1.1-0.8v-4.5c0-2.1-2.2-4-4.5-4h-0.5v-1
				c0-2-1.8-4.1-3.9-4.4c-0.1-1.4-1.4-2.8-3-2.8h-0.4v-3.3c0-0.5-0.4-0.8-0.8-0.8c-0.5,0-0.8,0.4-0.8,0.8V17h-1.7v-4.4
				c0-0.5-0.4-0.8-0.8-0.8c-0.5,0-0.8,0.4-0.8,0.8V17H33v-3.3c0-0.5-0.4-0.8-0.8-0.8c-0.5,0-0.8,0.4-0.8,0.8V17
				c-1.5,0-2.6,1.3-2.8,2.8c-2.1,0.2-3.4,2.4-3.4,4.4v1H24c-2.1,0-3.6,1.5-3.8,3.4c0,0-0.1,0-0.1,0.1c-0.2,0.3-0.2,0.7,0,1v4H20.2z
				 M31.4,18.7H40c0.5,0,0.9,0.5,1,1.1H30C30.2,19.2,30.8,18.7,31.4,18.7z M26.9,24.2c0-1.3,0.7-2.8,2-2.8h13.6
				c1.3,0,2.7,1.5,2.7,2.8v0.5H26.9V24.2z M24,26.9h23.3c1.3,0,2.7,1,2.9,2.2c-1.4-0.4-4.6-1-6.4,0.3c-1.1,0.8-4.4,0.2-6.2-0.4
				c-0.2-0.1-5.7-1.7-9.1,1c-2,1.6-5.3-0.2-6.6-1C22,27.8,22.8,26.9,24,26.9z M21.9,30.8c1.2,0.7,2.9,1.4,4.7,1.4c1.1,0,2.1-0.3,3-1
				c2.6-2.2,7.5-0.7,7.5-0.7c0.6,0.2,5.5,1.8,7.7,0.2c1.1-0.8,3.9-0.4,5.5,0.1v2.1H21.9V30.8z M52.2,36.2H18.8
				c-0.5,0-0.8,0.4-0.8,0.8c0,0.5,0.4,0.8,0.8,0.8h33.3c0.5,0,0.8-0.4,0.8-0.8C53,36.5,52.6,36.2,52.2,36.2z"/>
		</g>
	</g>
</g>
</svg>
