<?xml version="1.0" encoding="utf-8"?>
<!-- Generator: Adobe Illustrator 19.0.0, SVG Export Plug-In . SVG Version: 6.00 Build 0)  -->
<svg version="1.1" id="圖層_1" xmlns="http://www.w3.org/2000/svg" xmlns:xlink="http://www.w3.org/1999/xlink" x="0px" y="0px"
	 viewBox="-33 31.5 60 60" style="enable-background:new -33 31.5 60 60;" xml:space="preserve">
<style type="text/css">
	.st0{fill:#F75E57;}
</style>
<g id="Path_90_">
	<g id="XMLID_146_">
		<path id="XMLID_147_" class="st0" d="M-3.1,39c-0.8,0-1.6,0.1-2.4,0.2c-7.8,1.2-13.6,8.2-13.5,16c0.1,5.4,2.2,10.2,7.2,13v3.5
			c0,1.3,0.9,2.3,2.6,2.3H2.9c1.7,0,3.3-0.9,3.3-2.2v-3.5c4.3-2.9,6.9-7.8,6.9-13.3C13,46.1,5.7,39-3.1,39z M4.3,66.7
			c-0.3,0.2-0.4,0.5-0.4,0.9v4c-0.7,0.1-0.7,0.2-1.1,0.2h-12c-0.3,0-0.4-0.1-0.4-0.1v-4c0-0.4-0.3-0.7-0.7-0.9
			c-4-2.5-6.6-6.8-6.7-11.7c-0.1-6.7,5-12.8,11.7-13.8c0.7-0.1,1.5-0.2,2.2-0.2c7.6,0,13.8,6.2,13.8,13.7
			C10.8,59.8,8.4,64.2,4.3,66.7z M2.9,74.7H-9.3c-1.4,0-2.5,1.1-2.5,2.5v4.3c0,1.4,1.1,2.5,2.5,2.5H2.8c1.4,0,2.5-1.1,2.5-2.5v-4.3
			C5.4,75.8,4.2,74.7,2.9,74.7z M3.2,81.5c0,0.2-0.2,0.4-0.4,0.4H-9.3c-0.2,0-0.4-0.2-0.4-0.4v-4.3c0-0.2,0.2-0.4,0.4-0.4H2.8
			c0.2,0,0.4,0.2,0.4,0.4C3.2,77.2,3.2,81.5,3.2,81.5z M0.1,45.9c-0.4-0.4-1-0.3-1.4,0c-0.4,0.4-0.4,1-0.1,1.5c0,0,0.3,0.5,0.2,1.1
			c-0.2,0.8-1,2.3-4.8,4.2c-2.7,1.3-4.3,3.1-4.7,5.2c-0.6,3.2,1.8,5.9,1.9,6.1c0,0,0.1,0,0.1,0.1l0.1,0.1h0.1h0.1
			c0.1,0,0.3,0.1,0.4,0.1l0,0l0,0l0,0c0.1,0,0.2,0,0.3,0l0,0c3.2-0.9,7-2.1,7.1-2.2c3.5-1.3,5.5-3.2,6-5.8
			C6.2,51.3,0.4,46.1,0.1,45.9z M3.2,56c-0.3,1.7-1.9,3.1-4.6,4.1c0,0-1.8,0.6-3.9,1.3c1.1-1.3,2.6-2.8,4.1-3.6
			c0.5-0.3,0.7-0.9,0.4-1.5c-0.3-0.5-0.9-0.7-1.5-0.4c-2.4,1.3-4.6,4-5.8,5.6c-0.4-0.8-0.8-1.9-0.6-3c0.3-1.4,1.5-2.7,3.6-3.7
			c3.1-1.6,5.1-3.2,5.8-5C2.1,51.4,3.6,53.9,3.2,56z"/>
	</g>
</g>
</svg>
