<?xml version="1.0" encoding="utf-8"?>
<!-- Generator: Adobe Illustrator 19.0.0, SVG Export Plug-In . SVG Version: 6.00 Build 0)  -->
<svg version="1.1" id="圖層_1" xmlns="http://www.w3.org/2000/svg" xmlns:xlink="http://www.w3.org/1999/xlink" x="0px" y="0px"
	 viewBox="5 -5 60 60" enable-background="new 5 -5 60 60" xml:space="preserve">
<g>
	<g id="橢圓_9_拷貝_37_6_">
		<g>
			<ellipse fill-rule="evenodd" clip-rule="evenodd" fill="#F75E57" cx="35" cy="25" rx="30" ry="30"/>
		</g>
	</g>
	<g id="Path_拷貝_20_1_">
		<g>
			<path fill="#FFFFFF" d="M35.4,7.8c-0.6,0-1.3,0-1.9,0.1c-6,0.9-10.6,6.4-10.5,12.4c0.1,4.2,1.7,7.9,5.6,10.1v2.7
				c0,1,0.7,1.7,2,1.7H40c1.4,0,2.5-0.7,2.5-1.7v-2.7c3.3-2.3,5.4-6.1,5.4-10.4C48,13.4,42.3,7.8,35.4,7.8z M41.2,29.4
				c-0.3,0.2-0.3,0.4-0.3,0.7v3.1c-0.6,0.1-0.6,0.1-0.9,0.1h-9.4c-0.3,0-0.3-0.1-0.3-0.1v-3.1c0-0.3-0.3-0.6-0.5-0.7
				c-3.1-1.8-5.2-5.2-5.2-9c-0.1-5.2,3.9-10,9.2-10.8c0.6-0.1,1.1-0.1,1.7-0.1c5.9,0,10.8,4.8,10.8,10.7
				C46.2,24,44.4,27.4,41.2,29.4z M40.1,35.6h-9.5c-1.1,0-2,0.9-2,2v3.3c0,1.1,0.9,2,2,2h9.5c1.1,0,2-0.9,2-2v-3.3
				C42,36.4,41.2,35.6,40.1,35.6z M40.4,40.9c0,0.2-0.1,0.3-0.3,0.3h-9.5c-0.2,0-0.3-0.1-0.3-0.3v-3.3c0-0.2,0.1-0.3,0.3-0.3h9.5
				c0.2,0,0.3,0.1,0.3,0.3V40.9z M38,13.2c-0.3-0.3-0.8-0.3-1.1,0c-0.3,0.3-0.3,0.8-0.1,1.1c0,0,0.3,0.4,0.1,0.9
				c-0.1,0.6-0.8,1.8-3.8,3.2c-2.1,1-3.4,2.4-3.7,4.1c-0.5,2.5,1.4,4.6,1.5,4.7c0,0,0.1,0,0.1,0.1c0,0,0,0.1,0.1,0.1
				c0,0,0.1,0,0.1,0c0,0,0.1,0,0.1,0c0.1,0,0.2,0.1,0.3,0.1c0,0,0,0,0,0s0,0,0,0c0.1,0,0.1,0,0.2,0c2.5-0.7,5.4-1.7,5.6-1.7
				c2.7-1,4.3-2.5,4.7-4.5C42.7,17.4,38.1,13.3,38,13.2z M40.3,21c-0.2,1.3-1.5,2.4-3.6,3.2c0,0-1.4,0.5-3,1c0.9-1,2-2.2,3.2-2.8
				c0.4-0.2,0.6-0.7,0.3-1.1c-0.2-0.4-0.7-0.6-1.1-0.3c-1.9,1-3.6,3.1-4.6,4.3c-0.3-0.6-0.6-1.5-0.5-2.4c0.2-1.1,1.2-2.1,2.8-2.9
				c2.5-1.2,4-2.5,4.5-3.9C39.5,17.5,40.6,19.4,40.3,21z"/>
		</g>
	</g>
</g>
</svg>
