<?xml version="1.0" encoding="utf-8"?> <svg version="1.1" xmlns="http://www.w3.org/2000/svg" viewBox="-24.5 32 60 60"> <path d="M18.5,40h-15c-3.5,0-6.4,2.5-6.8,5.7h-5.5c-3.8,0-6.2,2.7-6.2,6.4V83c0,0.5,0.2,0.9,0.6,1 c0.1,0,0.1,0,0.2,0c0.3,0,0.7-0.2,0.9-0.5l5.8-8.1H7.8c3.8,0,7.5-3.4,7.5-7v-0.7h2.6l6,7.9c0.2,0.3,0.5,0.4,0.9,0.4 c0.1,0,0.4,0,0.5-0.1c0.4-0.1,0.9-0.6,0.9-1V46.4C26,42.9,22.5,40,18.5,40z M13.1,68.4c0,2.5-2.7,4.9-5.3,4.9h-16 c-0.4,0-0.5,0.2-0.7,0.5l-4,5.8V52.1c0-2.6,1.4-4.3,4-4.3H7.6c2.4,0,5.3,1.6,5.3,4.3v16.3H13.1z M23.8,71.6l-4.5-5.7 c-0.2-0.3-0.7-0.4-1-0.4h-3.1V52.1c0-3.5-3.5-6.4-7.5-6.4h-8.8c0.4-2,2.3-3.5,4.6-3.5h15c2.4,0,5.3,1.6,5.3,4.3V71.6z M4.8,58.8 c-0.6,0-1.1,0.5-1.1,1.1V62c0,0.6,0.5,1.1,1.1,1.1s1.1-0.5,1.1-1.1v-2.1C5.9,59.2,5.4,58.8,4.8,58.8z M0.5,58.8 c-0.6,0-1.1,0.5-1.1,1.1V62c0,0.6,0.5,1.1,1.1,1.1s1.1-0.5,1.1-1.1v-2.1C1.5,59.2,1.1,58.8,0.5,58.8z M-3.9,58.8 c-0.6,0-1.1,0.5-1.1,1.1V62c0,0.6,0.5,1.1,1.1,1.1s1.1-0.5,1.1-1.1v-2.1C-2.8,59.2-3.3,58.8-3.9,58.8z"/> </svg> 