<?xml version="1.0" encoding="utf-8"?> <svg version="1.1" xmlns="http://www.w3.org/2000/svg" viewBox="-25 32 60 60"> <path d="M11.6,59.1c1.3,0,2.3-1,2.3-2.3s-1-2.3-2.3-2.3s-2.3,1-2.3,2.3C9.3,58,10.3,59.1,11.6,59.1z  M-1.7,59.1c1.3,0,2.3-1,2.3-2.3s-1-2.3-2.3-2.3s-2.3,1-2.3,2.3C-4,58-2.9,59.1-1.7,59.1z M13.2,65.7c-0.5,0-0.9,0.4-0.9,0.9 c0,3-2.4,5.3-5.5,5.3H3.6c-3.1,0-5.5-2.4-5.5-5.4c0-0.5-0.4-0.9-0.9-0.9s-0.9,0.4-0.9,0.9c0,4,3.3,7.3,7.4,7.3h3.2 c4.1,0,7.4-3.1,7.4-7.2C14.1,66.1,13.7,65.7,13.2,65.7z M5,42c-11,0-20,9-20,20s9,20,20,20s20-9,20-20S16,42,5,42z M5,80.1 C-5,80.1-13.1,72-13.1,62S-5,43.9,5,43.9S23.1,52,23.1,62S15,80.1,5,80.1z"/> </svg> 