<?xml version="1.0" encoding="utf-8"?>
<!-- Generator: Adobe Illustrator 19.0.0, SVG Export Plug-In . SVG Version: 6.00 Build 0)  -->
<svg version="1.1" id="圖層_1" xmlns="http://www.w3.org/2000/svg" xmlns:xlink="http://www.w3.org/1999/xlink" x="0px" y="0px"
	 viewBox="5 -5 60 60" enable-background="new 5 -5 60 60" xml:space="preserve">
<g>
	<g id="橢圓_9_拷貝_37_4_">
		<g>
			<ellipse fill-rule="evenodd" clip-rule="evenodd" fill="#B4DB3F" cx="35" cy="25" rx="30" ry="30"/>
		</g>
	</g>
	<g id="news2.psd_1_">
		<defs>
			<rect id="SVGID_1_" x="18" y="11.2" width="34" height="27.6"/>
		</defs>
		<clipPath id="SVGID_2_">
			<use xlink:href="#SVGID_1_"  overflow="visible"/>
		</clipPath>
		<g id="Forma_1_47_" clip-path="url(#SVGID_2_)">
			<g>
				<path fill="#FFFFFF" d="M47.8,15.4v-4.3H18v23.4c0,0,0,4.3,4.3,4.3h26.6c0,0,3.2-0.1,3.2-4.3V15.4H47.8z M22.2,36.7
					c-2.1,0-2.1-2.1-2.1-2.1V13.3h25.5v21.3c0,1,0.3,1.7,0.7,2.1H22.2z M22.2,19.7h21.3v-2.1H22.2V19.7z M33.9,32.4h7.4v-2.1h-7.4
					V32.4z M33.9,28.2h9.6V26h-9.6V28.2z M33.9,23.9h9.6v-2.1h-9.6V23.9z M22.2,32.4h9.6V21.8h-9.6V32.4z"/>
			</g>
		</g>
	</g>
</g>
</svg>
