<?xml version="1.0" encoding="utf-8"?>
<svg version="1.1" xmlns="http://www.w3.org/2000/svg" viewBox="0 0 25 25">
<circle cx="12.5" cy="12.5" r="12.5"/>
<path fill-rule="evenodd" clip-rule="evenodd" d="M18.9,6.9c-0.1-0.1-0.2-0.1-0.3-0.1
	c-0.1,0-0.2,0.1-0.4,0.2c-0.2,0.1-0.4,0.2-0.7,0.4c-0.2,0.1-0.5,0.3-0.8,0.4c-0.3,0.1-0.6,0.2-0.9,0.2c-0.3,0-0.5,0-0.7-0.1
	c-0.6-0.3-1.2-0.5-1.7-0.7c-0.5-0.1-1-0.2-1.5-0.2c-0.9,0-2,0.3-3.2,0.9C8.4,7.8,8.2,7.9,8.1,8L8,7.1c0.3-0.2,0.4-0.6,0.4-0.9
	C8.4,5.5,7.9,5,7.2,5S6,5.5,6,6.2c0,0.4,0.2,0.8,0.6,1l1.6,12.1c0,0.4,0.4,0.6,0.7,0.6C9,20,9,20,9,20c0.4-0.1,0.7-0.4,0.6-0.8
	L9,14.3c1.2-0.6,2.2-0.9,3.1-0.9c0.4,0,0.7,0.1,1.1,0.2c0.4,0.1,0.6,0.2,0.9,0.4c0.2,0.1,0.5,0.3,0.8,0.4
	c0.3,0.1,0.6,0.2,0.9,0.2c0.8,0,1.7-0.3,2.8-0.9c0.1-0.1,0.2-0.1,0.3-0.2c0.1-0.1,0.1-0.2,0.1-0.3V7.3C19,7.1,19,7,18.9,6.9z"/>
</svg>
