<?xml version="1.0" encoding="utf-8"?>
<!-- Generator: Adobe Illustrator 19.0.0, SVG Export Plug-In . SVG Version: 6.00 Build 0)  -->
<svg version="1.1" id="圖層_1" xmlns="http://www.w3.org/2000/svg" xmlns:xlink="http://www.w3.org/1999/xlink" x="0px" y="0px"
	 viewBox="0 0 26 26" enable-background="new 0 0 26 26" xml:space="preserve">
<g id="XMLID_84_">
	<circle id="XMLID_109_" fill-rule="evenodd" clip-rule="evenodd" fill="#DC2A25" cx="13" cy="13" r="13"/>
	<g id="icon_88_">
		<g id="XMLID_51_">
			<path id="XMLID_52_" fill="#FFFFFF" d="M20,10.5h-1.7l0-1.8h-0.6v1.8h-1.8v0.6h1.8v1.8l0.6,0l0-1.8H20V10.5z M13.8,14.8
				L13.8,14.8c-0.3-0.2-0.9-0.8-0.9-1.1c0-0.4,0.1-0.6,0.7-1c0.6-0.4,1-1.1,1-1.8c0-0.9-0.4-1.7-1.1-2h1.1L15,8.8
				c0,0-2.3-0.4-3.2-0.4c-1.6,0-3,1.2-3,2.5c0,1.4,1.1,2.5,2.7,2.5c0.1,0,0.2,0,0.3,0c-0.1,0.2-0.2,0.4-0.2,0.6c0,0.4,0.2,0.7,0.5,1
				c-0.2,0-0.4,0-0.6,0c-1.9,0-3.4,1.2-3.4,2.5c0,1.2,1.6,2,3.6,2c2.2,0,3.4-1.2,3.4-2.5C15,16.1,14.7,15.5,13.8,14.8z M11.9,13.1
				c-0.9,0-1.8-1-1.9-2.2c-0.2-1.2,0.4-2.1,1.3-2s1.8,1,1.9,2.1C13.4,12.2,12.8,13.1,11.9,13.1z M11.6,19c-1.3,0-2.3-0.8-2.3-1.8
				c0-1,1.2-1.8,2.5-1.8c0.3,0,0.6,0.1,0.9,0.1c0.7,0.5,1.3,0.8,1.4,1.4c0,0.1,0,0.2,0,0.4C14.1,18.2,13.5,19,11.6,19z"/>
		</g>
	</g>
</g>
</svg>
