<?xml version="1.0" encoding="utf-8"?>
<svg version="1.1" xmlns="http://www.w3.org/2000/svg" viewBox="0 0 25 25">
<circle id="XMLID_19_" cx="12.5" cy="12.5" r="12.5"/>
<path id="XMLID_15_" d="M7.5,9.3L6,9.2c-0.6,0-1.3,0.2-1.7,0.6c-0.5,0.4-0.7,1-0.7,1.7c0,0.6,0.3,1.2,0.7,1.7
c0.5,0.4,1.1,0.7,1.7,0.6l1.3-0.1L7.3,14C7.4,12.4,7.6,10.9,7.5,9.3z"/>
<path id="XMLID_14_" d="M20.6,8.5c-0.1-0.2-0.4-0.2-0.5-0.1c-0.2,0.1-0.2,0.4-0.1,0.5c0.5,0.8,0.8,1.7,0.8,2.6
c0,1-0.3,1.9-0.8,2.6c-0.1,0.2-0.1,0.4,0.1,0.5c0.1,0,0.1,0.1,0.2,0.1c0.1,0,0.2-0.1,0.3-0.2c0.6-0.9,0.9-2,0.9-3.1
C21.5,10.5,21.2,9.4,20.6,8.5z"/>
<path id="XMLID_13_" d="M19.3,9.6c-0.1-0.2-0.4-0.2-0.5-0.1c-0.2,0.1-0.2,0.4-0.1,0.5c0.3,0.4,0.5,1,0.5,1.5
c0,0.6-0.2,1.1-0.5,1.5c-0.1,0.2-0.1,0.4,0.1,0.5c0.1,0,0.1,0.1,0.2,0.1c0.1,0,0.2-0.1,0.3-0.2c0.4-0.6,0.6-1.3,0.6-2
C19.9,10.9,19.7,10.2,19.3,9.6z"/>
<path id="XMLID_24_" d="M17.8,5.7c-0.1,0-0.3,0.1-0.4,0.2c0,0-1.3,1.7-4.7,2.8c-0.2,0.1-0.5,0.2-0.9,0.2
c-0.2,0-0.2,0-0.2,0c-0.1-0.2-0.3-0.3-0.5-0.3H7.9c-0.3,0-0.6,0.3-0.6,0.6v0.2c0,0.1-0.1,0.1-0.1,0.1c0,0-0.1,0-0.1,0
c-0.4,0-0.8,0.4-0.8,0.8v2.2c0,0.4,0.3,0.8,0.8,0.8c0,0,0,0,0.1,0c0,0,0.1,0,0.1,0.1v0.2c0,0.3,0.3,0.6,0.6,0.6c0,0,0.2,0,0.3,0
c0.1,0,0.1,0.1,0.1,0.1l0.9,4.1c0.1,0.4,0.5,0.7,0.9,0.7h1c0.2,0,0.4-0.1,0.5-0.2c0.1-0.2,0.2-0.4,0.1-0.6l-0.9-4
c0,0,0-0.1,0.1-0.1c0,0,0.2,0,0.2,0c0.2,0,0.4-0.1,0.5-0.3c0-0.1,0.2-0.1,0.2-0.1c0.3,0.1,0.6,0.1,0.9,0.2c3.3,1,4.6,2.7,4.7,2.8
c0.1,0.2,0.2,0.2,0.4,0.2c0,0,0,0,0,0c0.1,0,0.2-0.1,0.3-0.2c0-0.1,0.1-0.2,0.1-0.3V6.2C18.1,5.7,17.8,5.7,17.8,5.7z"/>
</svg>
