<?xml version="1.0" encoding="utf-8"?>
<!-- Generator: Adobe Illustrator 19.0.0, SVG Export Plug-In . SVG Version: 6.00 Build 0)  -->
<svg version="1.1" id="圖層_1" xmlns="http://www.w3.org/2000/svg" xmlns:xlink="http://www.w3.org/1999/xlink" x="0px" y="0px"
	 viewBox="0 0 26 26" enable-background="new 0 0 26 26" xml:space="preserve">
<g id="XMLID_104_">
	<circle id="XMLID_132_" fill-rule="evenodd" clip-rule="evenodd" fill="#00C300" cx="13" cy="13" r="13"/>
	<g id="XMLID_105_">
		<g id="XMLID_51_">
			<path id="XMLID_52_" fill="#FFFFFF" d="M21.5,12.8c0-3.8-3.8-6.9-8.5-6.9c-4.7,0-8.5,3.1-8.5,6.9c0,3.4,3,6.3,7.1,6.8
				c0.3,0.1,0.7,0.2,0.7,0.4c0.1,0.2,0.1,0.6,0,0.8c0,0-0.1,0.6-0.1,0.7c0,0.2-0.2,0.8,0.7,0.5c0.9-0.4,4.9-2.9,6.7-4.9h0
				C20.9,15.7,21.5,14.3,21.5,12.8z M9.7,15.1H8c-0.2,0-0.4-0.2-0.4-0.4v-3.4c0-0.2,0.2-0.4,0.4-0.4c0.2,0,0.4,0.2,0.4,0.4v2.9h1.2
				c0.2,0,0.4,0.2,0.4,0.4C10.1,14.9,9.9,15.1,9.7,15.1z M11.4,14.6c0,0.2-0.2,0.4-0.4,0.4c-0.2,0-0.4-0.2-0.4-0.4v-3.4
				c0-0.2,0.2-0.4,0.4-0.4c0.2,0,0.4,0.2,0.4,0.4V14.6z M15.5,14.6c0,0.2-0.1,0.4-0.3,0.4c0,0-0.1,0-0.1,0c-0.1,0-0.3-0.1-0.4-0.2
				L13,12.5v2.1c0,0.2-0.2,0.4-0.4,0.4c-0.2,0-0.4-0.2-0.4-0.4v-3.4c0-0.2,0.1-0.4,0.3-0.4c0,0,0.1,0,0.1,0c0.1,0,0.3,0.1,0.4,0.2
				l1.7,2.4v-2.1c0-0.2,0.2-0.4,0.4-0.4c0.2,0,0.4,0.2,0.4,0.4V14.6z M18.2,12.5c0.2,0,0.4,0.2,0.4,0.4c0,0.2-0.2,0.4-0.4,0.4H17
				v0.8h1.2c0.2,0,0.4,0.2,0.4,0.4c0,0.2-0.2,0.4-0.4,0.4h-1.7c-0.2,0-0.4-0.2-0.4-0.4v-1.7c0,0,0,0,0,0v-1.7c0-0.2,0.2-0.4,0.4-0.4
				h1.7c0.2,0,0.4,0.2,0.4,0.4s-0.2,0.4-0.4,0.4H17v0.8H18.2z"/>
		</g>
	</g>
</g>
</svg>
