<?xml version="1.0" encoding="utf-8"?>
<svg version="1.1" xmlns="http://www.w3.org/2000/svg" width="0" viewBox="-29.5 54.5 14 14">
	<path id="XMLID_20_" class="st0" d="M-16.4,65.4l-2-2c-0.4-0.4-1.1-0.4-1.5,0l-1,1c0,0-0.1,0-0.1-0.1c-0.7-0.3-1.5-0.8-2.5-1.7
		c-0.9-0.9-1.4-1.8-1.7-2.5c0-0.1-0.1-0.1-0.1-0.2l0.7-0.7l0.3-0.3c0.4-0.4,0.4-1.1,0-1.5l-2-2c-0.4-0.4-1.1-0.4-1.5,0l-0.5,0.7
		l0,0c-0.2,0.2-0.3,0.5-0.5,0.8c-0.1,0.3-0.1,0.6-0.2,0.8c-0.3,2.2,0.7,4.2,3.4,6.9c3.7,3.7,6.8,3.5,6.9,3.4c0.3,0,0.6-0.1,0.8-0.2
		c0.3-0.1,0.6-0.3,0.8-0.5l0,0l0.6-0.6C-16,66.4-16,65.8-16.4,65.4z"/>
</svg>
