<?xml version="1.0" encoding="utf-8"?>
<!-- Generator: Adobe Illustrator 19.0.0, SVG Export Plug-In . SVG Version: 6.00 Build 0)  -->
<svg version="1.1" id="圖層_1" xmlns="http://www.w3.org/2000/svg" xmlns:xlink="http://www.w3.org/1999/xlink" x="0px" y="0px"
	 viewBox="0 0 26 26" enable-background="new 0 0 26 26" xml:space="preserve">
<g id="XMLID_117_">
	<circle id="XMLID_143_" fill-rule="evenodd" clip-rule="evenodd" fill="#F65E0C" cx="13" cy="13" r="13"/>
	<g id="social-network16.psd">
		<g id="Forma_1_35_">
			<g id="XMLID_60_">
				<path id="XMLID_61_" fill-rule="evenodd" clip-rule="evenodd" fill="#FFFFFF" d="M16,6.5c-0.3,0-0.5,0.2-0.5,0.5
					c0,0.3,0.2,0.5,0.5,0.5c1.9,0,3.5,1.6,3.5,3.5c0,0.3,0.2,0.5,0.5,0.5c0.3,0,0.5-0.2,0.5-0.5c0,0,0,0,0,0
					C20.5,8.5,18.5,6.5,16,6.5z M10.4,14.1c-1,0.2-1.6,1-1.5,1.8c0.2,0.8,1.1,1.3,2.1,1.1c1-0.2,1.6-1,1.5-1.8
					C12.3,14.4,11.4,13.9,10.4,14.1z M16.1,8.6c-0.3-0.1-0.6,0.1-0.6,0.4c-0.1,0.3,0.1,0.6,0.4,0.6c0.8,0.2,1.4,0.8,1.5,1.5
					c0.1,0.3,0.3,0.5,0.6,0.4c0.3-0.1,0.5-0.3,0.4-0.6C18.2,9.8,17.2,8.9,16.1,8.6z M16.5,13.1c-0.2-0.1-0.3-0.1-0.2-0.4
					c0.2-0.6,0.3-1.1,0-1.5c-0.5-0.7-1.8-0.7-3.3,0c0,0-0.5,0.2-0.3-0.2c0.2-0.8,0.2-1.4-0.2-1.7c-0.8-0.8-3,0-4.8,1.9
					c-1.4,1.4-2.2,2.9-2.2,4.2c0,2.5,3.1,4.1,6.2,4.1c4,0,6.7-2.5,6.7-4.4C18.3,14,17.4,13.3,16.5,13.1z M11.7,18.4
					c-2.4,0.2-4.5-0.9-4.7-2.5c-0.2-1.6,1.7-3.1,4.1-3.3c2.4-0.2,4.5,0.9,4.7,2.5C15.9,16.6,14.1,18.1,11.7,18.4z"/>
			</g>
		</g>
	</g>
</g>
</svg>
