<?xml version="1.0" encoding="utf-8"?>
<!-- Generator: Adobe Illustrator 19.0.0, SVG Export Plug-In . SVG Version: 6.00 Build 0)  -->
<svg version="1.1" id="圖層_1" xmlns="http://www.w3.org/2000/svg" xmlns:xlink="http://www.w3.org/1999/xlink" x="0px" y="0px"
	 viewBox="0 0 26 26" enable-background="new 0 0 26 26" xml:space="preserve">
<g id="XMLID_126_">
	<circle id="XMLID_174_" fill-rule="evenodd" clip-rule="evenodd" fill="#DC2A25" cx="13" cy="13" r="13"/>
	<g id="icon_90_">
		<g id="XMLID_93_">
			<path id="XMLID_94_" fill-rule="evenodd" clip-rule="evenodd" fill="#FFFFFF" d="M9.7,11h1V8.4l1.1-3.6h-1l-0.6,2.5h-0.1L9.5,4.8
				h-1l1.1,3.7V11z M15.5,11c0.2,0,0.3,0,0.5-0.1c0.2-0.1,0.3-0.2,0.5-0.4V11h0.8V6.4h-0.8v3.5c-0.1,0.1-0.2,0.2-0.3,0.2
				c-0.1,0.1-0.2,0.1-0.2,0.1c-0.1,0-0.1,0-0.2-0.1c0,0-0.1-0.1-0.1-0.2V6.4h-0.8v3.8c0,0.3,0,0.5,0.1,0.6C15.2,11,15.3,11,15.5,11z
				 M11.7,9.8c0,0.4,0.1,0.7,0.3,0.9c0.2,0.2,0.5,0.3,0.9,0.3c0.4,0,0.7-0.1,0.9-0.3c0.2-0.2,0.3-0.5,0.3-0.9V7.5
				c0-0.3-0.1-0.6-0.3-0.9c-0.2-0.2-0.5-0.3-0.9-0.3c-0.4,0-0.7,0.1-0.9,0.3c-0.2,0.2-0.3,0.5-0.3,0.8V9.8z M12.6,7.4
				c0-0.1,0-0.2,0.1-0.2c0.1-0.1,0.1-0.1,0.3-0.1c0.1,0,0.2,0,0.3,0.1c0.1,0.1,0.1,0.1,0.1,0.2v2.5c0,0.1,0,0.2-0.1,0.3
				c-0.1,0.1-0.2,0.1-0.3,0.1c-0.1,0-0.2,0-0.3-0.1c-0.1-0.1-0.1-0.2-0.1-0.3V7.4z M19.9,13.9c0-1.1-0.9-2-2-2
				c-1.6-0.1-3.2-0.1-4.9-0.1c-1.7,0-3.3,0-4.9,0.1c-1.1,0-2,0.9-2,2C6,14.8,6,15.6,6,16.5c0,0.9,0,1.7,0.1,2.6c0,1.1,0.9,2,2,2
				c1.6,0.1,3.2,0.1,4.9,0.1c1.7,0,3.3,0,4.9-0.1c1.1,0,2-0.9,2-2c0.1-0.9,0.1-1.7,0.1-2.6C20,15.6,20,14.8,19.9,13.9z M9,19.4h-1
				v-5.3h-1v-0.9H10v0.9H9V19.4z M12.4,19.4h-0.8v-0.5c-0.2,0.2-0.3,0.3-0.5,0.4c-0.2,0.1-0.3,0.1-0.5,0.1c-0.2,0-0.3-0.1-0.4-0.2
				C10.1,19.2,10,19,10,18.7v-3.8h0.8v3.5c0,0.1,0,0.2,0.1,0.2c0,0,0.1,0.1,0.2,0.1c0.1,0,0.1,0,0.2-0.1c0.1-0.1,0.2-0.1,0.3-0.2
				v-3.5h0.8V19.4z M15.7,18.5c0,0.3-0.1,0.6-0.2,0.7c-0.1,0.2-0.3,0.3-0.6,0.3c-0.2,0-0.3,0-0.4-0.1c-0.1-0.1-0.3-0.2-0.4-0.3v0.4
				h-0.9v-6.2h0.9v2c0.1-0.1,0.2-0.2,0.4-0.3c0.1-0.1,0.3-0.1,0.4-0.1c0.3,0,0.5,0.1,0.6,0.3c0.1,0.2,0.2,0.5,0.2,0.9V18.5z
				 M18.8,17.3h-1.6v0.9c0,0.2,0,0.4,0.1,0.5c0.1,0.1,0.2,0.1,0.3,0.1c0.1,0,0.2,0,0.3-0.1c0.1-0.1,0.1-0.3,0.1-0.5v-0.3h0.9v0.3
				c0,0.5-0.1,0.8-0.3,1.1c-0.2,0.2-0.5,0.4-1,0.4c-0.4,0-0.7-0.1-0.9-0.4c-0.2-0.3-0.3-0.6-0.3-1v-2c0-0.4,0.1-0.7,0.4-1
				c0.2-0.2,0.5-0.4,0.9-0.4c0.4,0,0.7,0.1,0.9,0.3c0.2,0.2,0.3,0.6,0.3,1V17.3z M14.5,15.5c-0.1,0-0.1,0-0.2,0
				c-0.1,0-0.1,0.1-0.2,0.1v2.8c0.1,0.1,0.1,0.1,0.2,0.2c0.1,0,0.1,0,0.2,0c0.1,0,0.2,0,0.2-0.1c0-0.1,0.1-0.2,0.1-0.3V16
				c0-0.2,0-0.3-0.1-0.4C14.7,15.6,14.6,15.5,14.5,15.5z M17.6,15.6c-0.1,0-0.2,0-0.3,0.1c-0.1,0.1-0.1,0.2-0.1,0.4v0.5H18v-0.5
				c0-0.2,0-0.3-0.1-0.4C17.8,15.6,17.7,15.6,17.6,15.6z"/>
		</g>
	</g>
</g>
</svg>
