<?xml version="1.0" encoding="utf-8"?>
<svg version="1.1" xmlns="http://www.w3.org/2000/svg" viewBox="-17.5 42 45 40">
<style type="text/css">
	.st0{fill:#FADC7D;}
	.st1{fill:#FFFFFF;}
</style>
<circle class="st0" cx="5" cy="62" r="20"/>

<path class="st1" d="M6.7,64.9c-0.1,0-0.1,0-0.2,0.1c-0.1,0-0.1,0.1-0.2,0.2v3.3c0.1,0.1,0.2,0.1,0.2,0.2
c0.1,0,0.2,0.1,0.2,0.1c0.1,0,0.2,0,0.3-0.1c0.1-0.1,0.1-0.2,0.1-0.4v-2.7c0-0.2,0-0.3-0.1-0.4C6.9,65,6.8,64.9,6.7,64.9z
M3.6,58.4c0,0.4,0.1,0.8,0.4,1.1c0.3,0.3,0.6,0.4,1,0.4s0.8-0.1,1-0.4c0.3-0.3,0.4-0.6,0.4-1.1v-2.7c0-0.4-0.1-0.7-0.4-1
s-0.6-0.4-1-0.4s-0.8,0.1-1.1,0.4c-0.3,0.2-0.4,0.6-0.4,1v2.7H3.6z M4.6,55.6c0-0.1,0-0.2,0.1-0.3c0.1-0.1,0.2-0.1,0.3-0.1
c0.1,0,0.2,0,0.3,0.1c0.1,0.1,0.1,0.2,0.1,0.3v2.8c0,0.1,0,0.3-0.1,0.3c-0.1,0.1-0.2,0.1-0.3,0.1c-0.1,0-0.2,0-0.3-0.1
c-0.1-0.1-0.1-0.2-0.1-0.3V55.6z M7.9,59.8c0.2,0,0.4-0.1,0.6-0.2s0.4-0.3,0.6-0.5v0.6h1v-5.2h-1v4c-0.1,0.1-0.2,0.2-0.3,0.3
c-0.1,0.1-0.2,0.1-0.3,0.1c-0.1,0-0.2,0-0.2-0.1s-0.1-0.1-0.1-0.3v-4h-1v4.4c0,0.3,0.1,0.5,0.2,0.7C7.5,59.7,7.7,59.8,7.9,59.8z
M1.2,59.7h1.1v-2.9l1.3-4.1H2.5l-0.7,2.8H1.7L1,52.6h-1.1l1.3,4.3C1.2,56.9,1.2,59.7,1.2,59.7z M12.9,63c0-1.3-1-2.3-2.3-2.3
c-1.8-0.1-3.7-0.1-5.6-0.1s-3.8,0-5.6,0.1c-1.3,0-2.3,1-2.3,2.3C-3,64-3,65-3,66s0,2,0.1,3c0,1.3,1,2.3,2.3,2.3
c1.8,0.1,3.7,0.1,5.6,0.1s3.8,0,5.6-0.1c1.3,0,2.3-1,2.3-2.3c0.1-1,0.1-2,0.1-3S13,64,12.9,63z M0.5,69.4h-1.1v-6h-1.1v-1h3.4v1
H0.6L0.5,69.4L0.5,69.4z M4.4,69.4h-1v-0.6C3.2,69,3,69.2,2.8,69.3c-0.2,0.1-0.4,0.2-0.6,0.2s-0.4-0.1-0.5-0.2
c-0.1-0.2-0.2-0.4-0.2-0.7v-4.4h1v4c0,0.1,0,0.2,0.1,0.3c0,0.1,0.1,0.1,0.2,0.1s0.2,0,0.3-0.1c0.1-0.1,0.2-0.2,0.3-0.3v-4h1
C4.4,64.2,4.4,69.4,4.4,69.4z M8.1,68.3c0,0.4-0.1,0.7-0.2,0.9c-0.2,0.2-0.4,0.3-0.7,0.3c-0.2,0-0.4,0-0.5-0.1
c-0.1-0.1-0.3-0.2-0.4-0.4v0.4h-1v-7.1h1v2.3c0.1-0.2,0.3-0.3,0.4-0.4s0.3-0.1,0.4-0.1c0.3,0,0.5,0.1,0.7,0.3
C8,64.6,8,64.9,8,65.4v2.9H8.1z M11.7,66.9H9.8v1c0,0.3,0,0.5,0.1,0.6s0.2,0.2,0.3,0.2c0.2,0,0.3,0,0.3-0.1
c0.1-0.1,0.1-0.3,0.1-0.6v-0.4h1V68c0,0.5-0.1,0.9-0.4,1.2c-0.2,0.3-0.6,0.4-1.1,0.4c-0.4,0-0.8-0.1-1-0.4
c-0.2-0.3-0.4-0.7-0.4-1.2v-2.3c0-0.5,0.1-0.8,0.4-1.1c0.3-0.3,0.6-0.4,1.1-0.4c0.4,0,0.8,0.1,1,0.4c0.2,0.3,0.4,0.6,0.4,1.1v1.2
H11.7z M10.3,64.9c-0.2,0-0.3,0-0.3,0.1c-0.1,0.1-0.1,0.3-0.1,0.5V66h0.9v-0.5c0-0.2,0-0.4-0.1-0.5C10.5,65,10.4,64.9,10.3,64.9z
"/>

</svg>
