<?xml version="1.0" encoding="utf-8"?>
<svg version="1.1" xmlns="http://www.w3.org/2000/svg" viewBox="-17.5 42 45 40">
<style type="text/css">
	.st0{fill:#FADC7D;}
	.st1{fill:#FFFFFF;}
</style>
<circle class="st0" cx="5" cy="62" r="20"/>
<path class="st1" d="M14,58.3h-2.3V56h-0.8v2.4H8.6v0.8h2.3v2.3h0.8v-2.4H14V58.3z M5.7,64.1L5.7,64.1
c-0.4-0.3-1.2-1-1.2-1.4c0-0.5,0.1-0.7,0.9-1.3S6.7,60,6.7,59c0-1.2-0.5-2.3-1.5-2.7h1.5L7.3,56c0,0-3.1-0.5-4.2-0.5
C1,55.5-1,57.1-1,58.9s1.4,3.3,3.6,3.3c0.1,0,0.3,0,0.4,0c-0.1,0.3-0.2,0.6-0.2,0.9c0,0.5,0.3,0.9,0.6,1.3c-0.3,0-0.5,0-0.8,0
C0,64.4-2,66-2,67.7c0,1.7,2.2,2.7,4.8,2.7c3,0,4.6-1.7,4.6-3.3C7.4,65.8,7,65,5.7,64.1z M3.2,61.8c-1.2,0-2.3-1.3-2.6-2.9
c-0.2-1.6,0.6-2.7,1.8-2.7c1.2,0,2.3,1.3,2.6,2.8C5.2,60.6,4.4,61.9,3.2,61.8z M2.8,69.7c-1.8,0-3.1-1.1-3.1-2.5
c0-1.3,1.6-2.4,3.4-2.4c0.4,0,0.8,0.1,1.2,0.2c1,0.7,1.7,1,1.9,1.8c0,0.2,0.1,0.3,0.1,0.5C6.2,68.6,5.3,69.7,2.8,69.7z"/>
</svg>
