<?xml version="1.0" encoding="utf-8"?>
<svg version="1.1" xmlns="http://www.w3.org/2000/svg" viewBox="-17.5 42 45 40">
<style type="text/css">
	.st0{fill:#FADC7D;}
	.st1{fill:#FFFFFF;}
</style>
<circle class="st0" cx="5" cy="62" r="20"/>

<path class="st1" d="M0.9,63.8c-1.6,0.3-2.6,1.6-2.4,2.9c0.3,1.3,1.7,2.1,3.3,1.8s2.6-1.6,2.4-2.9
C3.9,64.3,2.4,63.5,0.9,63.8z M9.8,51.6C9.3,51.6,9,52,9,52.4c0,0.5,0.4,0.8,0.8,0.8c3.1,0,5.5,2.5,5.5,5.5
c0,0.5,0.4,0.8,0.8,0.8c0.5,0,0.8-0.4,0.8-0.8l0,0C17,54.9,13.8,51.6,9.8,51.6z M10.7,62.1c-0.3-0.1-0.6-0.2-0.4-0.6
c0.4-1,0.4-1.8,0-2.4c-0.8-1.1-2.9-1-5.2,0c0,0-0.8,0.3-0.6-0.3c0.4-1.2,0.3-2.2-0.3-2.8c-1.3-1.3-4.7,0.1-7.7,3.1
C-5.7,61.3-7,63.7-7,65.8c0,4,5,6.6,9.9,6.6c6.4,0,10.6-4,10.6-7C13.5,63.5,12,62.5,10.7,62.1z M2.9,70.6
c-3.9,0.4-7.2-1.4-7.5-4s2.7-5,6.6-5.4s7.2,1.4,7.5,3.9C9.7,67.8,6.8,70.2,2.9,70.6z M9.9,55c-0.5-0.1-0.9,0.2-1,0.7
s0.2,0.9,0.7,1c1.2,0.3,2.2,1.2,2.4,2.4c0.1,0.5,0.5,0.8,1,0.7c0.5-0.1,0.8-0.5,0.7-1C13.3,56.9,11.8,55.4,9.9,55z"/>
</svg>
