<?xml version="1.0" encoding="utf-8"?>
<svg version="1.1" xmlns="http://www.w3.org/2000/svg" viewBox="-17.5 42 45 40">
<style type="text/css">
	.st0{fill:#FADC7D;}
	.st1{fill:#FFFFFF;}
</style>
<circle class="st0" cx="5" cy="62" r="20"/>

<path class="st1" d="M15.5,60.5c0-4.7-4.7-8.5-10.5-8.5s-10.5,3.8-10.5,8.5c0,4.2,3.7,7.7,8.8,8.4
c0.3,0.1,0.8,0.2,0.9,0.5c0.1,0.3,0.1,0.7,0,0.9c0,0-0.1,0.7-0.1,0.9c0,0.3-0.2,1,0.9,0.6c1.1-0.5,6-3.6,8.2-6.1l0,0
C14.8,64.1,15.5,62.4,15.5,60.5z M0.9,63.3h-2.1c-0.3,0-0.6-0.2-0.6-0.6v-4.2c0-0.3,0.2-0.6,0.6-0.6c0.3,0,0.6,0.2,0.6,0.6v3.6
h1.5c0.3,0,0.6,0.2,0.6,0.6C1.4,63.1,1.2,63.3,0.9,63.3z M3,62.8c0,0.3-0.2,0.6-0.6,0.6c-0.3,0-0.6-0.2-0.6-0.6v-4.2
C1.8,58.3,2,58,2.4,58C2.7,58,3,58.2,3,58.6V62.8z M8.1,62.8c0,0.2-0.2,0.4-0.4,0.5c-0.1,0-0.1,0-0.2,0c-0.2,0-0.3-0.1-0.4-0.2
L5,60.2v2.6c0,0.3-0.2,0.6-0.6,0.6c-0.3,0-0.6-0.2-0.6-0.6v-4.2c0-0.2,0.2-0.4,0.4-0.5c0.1,0,0.1,0,0.2,0c0.2,0,0.3,0.1,0.4,0.2
l2.1,2.9v-2.6c0-0.3,0.2-0.6,0.6-0.6c0.3,0,0.6,0.2,0.6,0.6V62.8z M11.4,60.1c0.3,0,0.6,0.2,0.6,0.6c0,0.3-0.2,0.6-0.6,0.6H9.9v1
h1.5c0.3,0,0.6,0.2,0.6,0.6c0,0.3-0.2,0.6-0.6,0.6H9.3c-0.3,0-0.6-0.2-0.6-0.6v-2.1l0,0l0,0v-2.1c0-0.3,0.2-0.6,0.6-0.6h2.1
c0.3,0,0.6,0.2,0.6,0.6c0,0.3-0.2,0.6-0.6,0.6H9.9v1h1.5V60.1z"/>

</svg>
