<?xml version="1.0" encoding="utf-8"?>
<!-- Generator: Adobe Illustrator 19.0.0, SVG Export Plug-In . SVG Version: 6.00 Build 0)  -->
<svg version="1.1" id="圖層_1" xmlns="http://www.w3.org/2000/svg" xmlns:xlink="http://www.w3.org/1999/xlink" x="0px" y="0px"
	 viewBox="-13.1 42 45 40" style="enable-background:new -13.1 42 45 40;" xml:space="preserve">
<style type="text/css">
	.st0{fill:#FF8D45;}
	.st1{fill:#FFFFFF;}
</style>
<g id="XMLID_1260_">
	<path id="XMLID_1271_" class="st0" d="M31.8,62l-5-2.9C25.4,49.4,17.1,42,7,42c-11,0-20,9-20,20s9,20,20,20
		c10.1,0,18.4-7.4,19.8-17.1L31.8,62z"/>
	<g id="icon_25_">
		<g id="XMLID_15_">
			<path id="XMLID_16_" class="st1" d="M12.5,65.7c-0.9,0-1.8,0.5-2.2,1.3l-8-4.1c0.2-0.4,0.3-0.8,0.3-1.2c0-0.2,0-0.4-0.1-0.6
				l7.8-3.9c0.5,0.8,1.3,1.3,2.2,1.3c1.5,0,2.7-1.2,2.7-2.7s-1.2-2.7-2.7-2.7s-2.7,1.2-2.7,2.7c0,0.3,0.1,0.6,0.1,0.8l-7.7,3.9
				c-0.4-0.8-1.3-1.4-2.3-1.4c-1.5,0-2.7,1.2-2.7,2.7s1.2,2.7,2.7,2.7c0.8,0,1.5-0.4,2-0.9l8.1,4.1c-0.1,0.3-0.1,0.5-0.1,0.8
				c0,1.5,1.2,2.7,2.7,2.7s2.7-1.2,2.7-2.7C15.2,66.8,14,65.7,12.5,65.7z"/>
		</g>
	</g>
</g>
</svg>
