<?xml version="1.0" encoding="utf-8"?>
<!-- Generator: Adobe Illustrator 19.0.0, SVG Export Plug-In . SVG Version: 6.00 Build 0)  -->
<svg version="1.1" id="圖層_1" xmlns="http://www.w3.org/2000/svg" xmlns:xlink="http://www.w3.org/1999/xlink" x="0px" y="0px"
	 viewBox="-27 49 25 25" style="enable-background:new -27 49 25 25;" xml:space="preserve">
<style type="text/css">
	.st0{fill:#3D9BDE;}
</style>
<g id="birthday20.psd">
	<g id="Forma_1_3_">
		<g id="XMLID_104_">
			<path id="XMLID_105_" class="st0" d="M-8.3,57.7h-5.3v-1.5h-1.9v1.4h-5.2c-2.4,0.1-4.3,2-4.3,4.4c0,1.5,0.8,2.8,1.9,3.5V72h17.2
				v-6.5C-4.8,64.7-4,63.4-4,62C-4,59.6-5.9,57.7-8.3,57.7z M-8.3,64.4c-0.7,0-1.2-0.3-1.7-0.7l-1.4-1.4l-1.4,1.4
				c-0.4,0.4-1,0.7-1.6,0.7c-0.7,0-1.2-0.3-1.7-0.7l-1.4-1.4l-1.4,1.4c-0.4,0.4-1,0.7-1.6,0.7c-1.3,0-2.4-1-2.4-2.4s1-2.4,2.4-2.4
				h12.4c1.3,0,2.4,1,2.4,2.4S-7,64.4-8.3,64.4z M-14.5,55.3c0.8,0,1.4-0.7,1.4-1.4c0-0.3-0.1-0.5-0.2-0.8l-1.2-2.1l-1.2,2.1
				c-0.1,0.2-0.2,0.5-0.2,0.8C-15.9,54.6-15.3,55.3-14.5,55.3z"/>
		</g>
	</g>
</g>
</svg>
