<?xml version="1.0" encoding="utf-8"?>
<!-- Generator: Adobe Illustrator 19.0.0, SVG Export Plug-In . SVG Version: 6.00 Build 0)  -->
<svg version="1.1" id="圖層_1" xmlns="http://www.w3.org/2000/svg" xmlns:xlink="http://www.w3.org/1999/xlink" x="0px" y="0px"
	 viewBox="-23 49.3 25 25" style="enable-background:new -23 49.3 25 25;" xml:space="preserve">
<style type="text/css">
	.st0{fill:#3D9BDE;}
</style>
<g id="gender.psd">
	<g id="Forma_1_1_">
		<g id="XMLID_83_">
			<path id="XMLID_84_" class="st0" d="M1.9,54.8c-0.1-0.1-0.2-0.1-0.3-0.1l-5,1.4c-0.1,0-0.2,0.1-0.2,0.2s0,0.2,0.1,0.3l0.9,0.8
				l-0.8,0.8c-0.8-0.5-1.7-0.9-2.7-1.1c-0.3-0.8-0.8-1.6-1.4-2.2c-1.4-1.4-3.3-2.2-5.2-2.2c-1.8,0-3.5,0.7-4.8,1.9
				c-2.4,2.3-2.9,6-1.2,8.7l-1,0.9l-1.2-1.2c-0.1-0.1-0.3-0.1-0.4,0l-1.6,1.5c-0.1,0.1-0.1,0.1-0.1,0.2s0,0.2,0.1,0.2l1.2,1.2
				l-1.2,1.2c-0.1,0.1-0.1,0.3,0,0.4l1.5,1.6c0.1,0.1,0.1,0.1,0.2,0.1l0,0c0.1,0,0.2,0,0.2-0.1l1.2-1.2l1.2,1.2
				c0.1,0.1,0.1,0.1,0.2,0.1s0.1,0,0.2-0.1l1.6-1.5c0.1-0.1,0.1-0.1,0.1-0.2s0-0.2-0.1-0.2l-1.2-1.2l1-0.9c0.8,0.6,1.8,1,2.8,1.2
				c0.3,0.9,0.9,1.8,1.6,2.5c1.3,1.3,3.1,2,4.9,2c1.9,0,3.6-0.7,4.9-2.1c1.3-1.3,2-3.1,2-4.9c0,0,0,0,0-0.1c0-1.4-0.4-2.7-1.1-3.8
				l0.8-0.8l0.8,0.8C0,60.1,0,60.1,0.1,60.1h0.1c0.1,0,0.2-0.1,0.2-0.2L2,55C2,55,2,54.8,1.9,54.8z M-14.3,63.7
				C-14.3,63.8-14.3,63.8-14.3,63.7C-14.3,63.8-14.3,63.8-14.3,63.7c0,0.2,0,0.2,0,0.3c-0.7-0.2-1.3-0.6-1.8-1.2
				c-1.8-1.8-1.7-4.8,0.2-6.5c0.9-0.8,2-1.3,3.2-1.3c1.3,0,2.5,0.5,3.4,1.5c0.2,0.2,0.4,0.5,0.5,0.7c-1.3,0.3-2.4,0.9-3.4,1.8
				C-13.5,60.2-14.3,62-14.3,63.7z M-12,63.8c0-1.2,0.5-2.3,1.4-3.1C-10,60-9,59.5-8,59.5c0.1,1.3-0.4,2.7-1.5,3.6
				c-0.7,0.7-1.6,1.1-2.5,1.2C-12,64.2-12,64.1-12,63.8z M-2.7,64.2c0,1.2-0.6,2.4-1.5,3.3c-0.9,0.8-2,1.3-3.2,1.3
				c-1.3,0-2.5-0.5-3.4-1.5c-0.2-0.2-0.4-0.5-0.5-0.7c1.3-0.3,2.4-0.9,3.4-1.8c1.4-1.4,2.2-3.2,2.2-5c0.6,0.2,1.2,0.6,1.7,1.1
				c0.9,0.9,1.4,2,1.4,3.3C-2.7,64.1-2.7,64.1-2.7,64.2z"/>
		</g>
	</g>
</g>
</svg>
