<?xml version="1.0" encoding="utf-8"?>
<!-- Generator: Adobe Illustrator 19.0.0, SVG Export Plug-In . SVG Version: 6.00 Build 0)  -->
<svg version="1.1" id="圖層_1" xmlns="http://www.w3.org/2000/svg" xmlns:xlink="http://www.w3.org/1999/xlink" x="0px" y="0px"
	 viewBox="-23.1 49.7 25 25" style="enable-background:new -23.1 49.7 25 25;" xml:space="preserve">
<style type="text/css">
	.st0{fill:#3D9BDE;}
</style>
<g id="XMLID_755_">
	<g id="Forma_1_10_">
		<g id="XMLID_42_">
			<ellipse id="XMLID_43_" class="st0" cx="-14.5" cy="55.1" rx="4.8" ry="4.8"/>
		</g>
	</g>
	<g id="silhouette78.psd_3_">
		<g id="Forma_1_12_">
			<g id="XMLID_60_">
				<path id="XMLID_61_" class="st0" d="M1.7,72.5l-0.6-4.8c-0.2-1.7-1.6-2.9-3.3-2.9h-4.6c-1.7,0-3.1,1.2-3.3,2.9l-0.6,4.8
					c0,0.3,0.1,0.8,0.3,1c0.2,0.3,0.6,0.5,0.9,0.5h10c0.3,0,0.7-0.2,0.9-0.5C1.6,73.2,1.7,72.8,1.7,72.5z M-4.5,63.7
					c2,0,3.5-1.6,3.5-3.5c0-2-1.6-3.5-3.5-3.5S-8,58.2-8,60.1C-8,62.1-6.5,63.7-4.5,63.7z"/>
			</g>
		</g>
	</g>
	<g id="XMLID_860_">
		<path id="XMLID_899_" class="st0" d="M-12,73.4l0.7-6c0.2-2.1,1.8-3.6,3.7-3.6h0.2c-0.8-1.4-2.3-2.3-4-2.3h-6.2
			c-2.3,0-4.2,1.7-4.5,3.9l-0.9,6.5c-0.1,0.5,0.1,1,0.4,1.4c0.3,0.3,0.8,0.7,1.2,0.7h9.4C-12,73.8-12,73.6-12,73.4z"/>
	</g>
</g>
</svg>
