<?xml version="1.0" encoding="utf-8"?>
<!-- Generator: Adobe Illustrator 19.0.0, SVG Export Plug-In . SVG Version: 6.00 Build 0)  -->
<svg version="1.1" id="圖層_1" xmlns="http://www.w3.org/2000/svg" xmlns:xlink="http://www.w3.org/1999/xlink" x="0px" y="0px"
	 viewBox="0 0 49 65" enable-background="new 0 0 49 65" xml:space="preserve">
<g id="XMLID_994_">
	<g id="XMLID_883_">
		<path id="XMLID_885_" fill="#FD8544" d="M24.5,0C11,0,0,11,0,24.5C0,31,2.5,36.9,6.7,41.3L24.5,65l17.8-23.7
			C46.5,36.9,49,31,49,24.5C49,11,38,0,24.5,0z M24.5,35.9c-6.9,0-12.5-5.6-12.5-12.5c0-6.9,5.6-12.5,12.5-12.5S37,16.4,37,23.3
			C37,30.3,31.4,35.9,24.5,35.9z"/>
	</g>
	<g id="XMLID_850_">
		<path id="XMLID_854_" fill="#D34A0D" d="M24.5,10.8c-6.9,0-12.5,5.6-12.5,12.5c0,6.9,5.6,12.5,12.5,12.5S37,30.3,37,23.3
			C37,16.4,31.4,10.8,24.5,10.8z M24.5,32.2c-4.9,0-8.8-3.9-8.8-8.8s3.9-8.8,8.8-8.8s8.8,3.9,8.8,8.8S29.4,32.2,24.5,32.2z"/>
	</g>
</g>
</svg>
