<?xml version="1.0" encoding="utf-8"?>
<!-- Generator: Adobe Illustrator 19.0.0, SVG Export Plug-In . SVG Version: 6.00 Build 0)  -->
<svg version="1.1" id="圖層_1" xmlns="http://www.w3.org/2000/svg" xmlns:xlink="http://www.w3.org/1999/xlink" x="0px" y="0px"
	 viewBox="-31 49.7 25 25" style="enable-background:new -31 49.7 25 25;" xml:space="preserve">
<style type="text/css">
	.st0{fill:#3D9BDE;}
</style>
<g id="silhouette78.psd">
	<g id="Forma_1">
		<g id="XMLID_30_">
			<path id="XMLID_31_" class="st0" d="M-10.1,71.9l-0.8-6.6c-0.3-2.3-2.2-3.9-4.5-3.9h-6.2c-2.3,0-4.2,1.7-4.5,3.9l-0.9,6.6
				c-0.1,0.5,0.1,1,0.4,1.4c0.3,0.3,0.8,0.7,1.2,0.7h13.7c0.5,0,0.9-0.3,1.2-0.7C-10.2,73-10.1,72.4-10.1,71.9z M-18.5,59.9
				c2.7,0,4.8-2.2,4.8-4.8c0-2.7-2.2-4.8-4.8-4.8c-2.7,0-4.9,2.2-4.9,4.8C-23.4,57.8-21.2,59.9-18.5,59.9z"/>
		</g>
	</g>
</g>
</svg>
