<?xml version="1.0" encoding="utf-8"?><svg version="1.1" xmlns="http://www.w3.org/2000/svg" viewBox="-17.5 42 45 40"><style>circle{fill:#9DE1F0}path{fill:#fff;transition-duration:0.2s}svg:hover path{fill:#367ECF}</style><circle cx="5" cy="62" r="20"/> <path d="M6,55.6H0.3c-0.3,0.3-0.6,0.5-0.7,0.6h5.6L5.1,58h0.7v0.9H5v0.9h0.4v0.9H4.9 c-0.1,0.5-0.3,0.8-0.6,1C4,61.9,3.3,62,2.4,62L2,61.1c0.2,0,0.4,0,0.6,0c0.5,0,0.9-0.1,0.9-0.4h-5.2l0.3-1.8h-1.2V58h1.3l0.1-1.3 c-0.3,0.2-0.6,0.4-0.9,0.5l-0.8-1.1c1.1-0.5,2-1.3,2.9-2.4L1.4,54c-0.1,0.1-0.2,0.3-0.4,0.5h5V55.6z M2.8,67.7 c-1.1,0.7-2.6,1.3-4.4,1.9l-0.9-1.2c1.6-0.3,3-0.9,4.2-1.5L2.8,67.7z M12.3,66.2L11,66.9c-0.1-0.1-0.3-0.4-0.7-0.8l-4.4,0.4v1.8 c0,0.4-0.1,0.8-0.4,1c-0.3,0.3-1.1,0.4-2.4,0.4l-0.4-1.3c0.9,0,1.4,0,1.5-0.1c0.1-0.1,0.2-0.2,0.2-0.4v-1.3l-5.8,0.2l-0.2-1.1 c1.7-0.2,3.4-0.7,5.3-1.5c-1.4,0.1-2.7,0.2-3.9,0.2l-0.3-0.9c2.2-0.2,4.2-0.9,5.8-2l1.3,0.6c-0.7,0.4-1.5,0.8-2.4,1.2l1.9-0.1 c1.2-0.6,2.1-1,2.6-1.2l1.4,0.8c-2.9,1.3-5.1,2.3-6.7,2.7c2.1-0.1,4-0.2,5.9-0.4c-0.4-0.3-0.6-0.5-0.8-0.6l1.3-0.8 C10.7,64.4,11.5,65.2,12.3,66.2z M1.5,59.8c-0.2-0.1-0.4-0.3-0.8-0.5l0.6-0.4H0.1L0,59.8H1.5z M1.6,58c-0.2-0.2-0.4-0.4-0.6-0.5 l0.5-0.4H0.3L0.2,58H1.6z M3.6,58.9H2c0.2,0.1,0.4,0.3,0.7,0.5l-0.5,0.4h1.4V58.9z M3.7,57.2H2.1c0.2,0.1,0.4,0.3,0.7,0.6L2.4,58 h1.3L3.7,57.2z M13.1,60.6l-0.8,1.2c-1.1-0.3-2.1-0.8-3.1-1.5c-0.8,0.6-1.7,1-2.6,1.3l-0.8-1.2c0.8-0.2,1.6-0.5,2.4-1 c-0.4-0.5-0.8-1-1.1-1.7l1.2-0.6c0.4,0.6,0.7,1.1,1,1.4c0.6-0.7,1-1.4,1.1-2.3H7.8c-0.5,0.6-0.9,1.1-1.5,1.5l-0.9-1 c0.9-0.7,1.7-1.7,2.4-3l1.4,0.4C9,54.5,8.8,54.8,8.7,55h4.1v1.3h-0.9c-0.3,1.4-0.8,2.4-1.5,3.1C11,59.9,11.9,60.3,13.1,60.6z  M12.8,68.5l-0.9,1.1c-1.6-0.8-3.1-1.4-4.5-1.8l0.9-1.1C10,67.3,11.5,67.9,12.8,68.5z"/> </svg> 