<?xml version="1.0" encoding="utf-8"?><svg version="1.1" xmlns="http://www.w3.org/2000/svg" viewBox="-17.5 42 45 40"><style>circle{fill:#9DE1F0}path{fill:#fff;transition-duration:0.2s}svg:hover path{fill:#367ECF}</style><circle cx="5" cy="62" r="20"/><path d="M4.8,56H0c-0.6,0.7-1.3,1.1-1.9,1.5l-1-1c1.1-0.6,2-1.5,2.9-2.8l1.4,0.5L1,54.8h3.7L4.8,56 L4.8,56z M4.5,62.5h-4.9v7H-2V57.9h6.4v4.6H4.5z M2.9,59.7v-0.6h-3.3v0.6H2.9z M2.9,61.4v-0.6h-3.3v0.6H2.9z M3.2,57.4l-1.7,0.3 c-0.2-0.5-0.3-0.9-0.6-1.3l1.6-0.3C2.8,56.6,3,57,3.2,57.4z M8.8,68.2H1.4v-4.8h7.4V68.2z M7.3,65.1v-0.6H2.9v0.6H7.3z M7.3,67 v-0.7H2.9V67H7.3z M12.9,56H7.2c-0.4,0.5-1,1-1.7,1.5l-1.3-0.9c1.2-0.8,2.2-1.8,3-3l1.4,0.5c-0.1,0.1-0.2,0.3-0.4,0.6h4.7 C12.9,54.7,12.9,56,12.9,56z M12.3,68.1c0,1-0.7,1.4-2,1.4c-0.2,0-0.4,0-0.6,0L9.2,68c0.3,0,0.7,0.1,0.9,0.1 c0.2,0,0.3-0.1,0.4-0.1c0.1-0.1,0.2-0.2,0.2-0.3v-5.1H5.8V58h6.4v10.1H12.3z M10.7,59.7v-0.6H7.4v0.6H10.7z M10.7,61.4v-0.6H7.4 v0.6H10.7z M10.6,57.4l-1.5,0.3C9,57.4,8.7,57,8.4,56.6l1.6-0.4C10.3,56.6,10.5,57,10.6,57.4z"/></svg>