<?xml version="1.0" encoding="utf-8"?>
<!-- Generator: Adobe Illustrator 19.0.0, SVG Export Plug-In . SVG Version: 6.00 Build 0)  -->
<svg version="1.1" id="圖層_1" xmlns="http://www.w3.org/2000/svg" xmlns:xlink="http://www.w3.org/1999/xlink" x="0px" y="0px"
	 viewBox="-13.1 42 45 40" style="enable-background:new -13.1 42 45 40;" xml:space="preserve">
<style type="text/css">
	.st0{fill:#3D9BDE;}
	.st1{fill:#F3F1E9;}
	.st2{fill:#636363;}
	.st3{font-family:'YenRound-Heavy';}
	.st4{font-size:8.64px;}
	.st5{fill:#60C2D8;}
	.st6{fill:#FFFFFF;}
	.st7{fill:#0797B7;}
	.st8{fill:#9DE1F0;}
</style>
<g id="XMLID_336_">
	<path id="XMLID_780_" class="st0" d="M31.8,62l-5-2.9C25.4,49.4,17.1,42,7,42c-11,0-20,9-20,20s9,20,20,20
		c10.1,0,18.4-7.4,19.8-17.1L31.8,62z"/>
	<g id="XMLID_337_">
		<g id="圓角矩形_1_拷貝">
			<g id="XMLID_76_">
				<path id="XMLID_77_" class="st1" d="M7.8,50H-2.6C-3.9,50-5,51.1-5,52.4v10.3c0,1.3,1.1,2.4,2.4,2.4H7.8c1.3,0,2.4-1.1,2.4-2.4
					V52.4C10.2,51.1,9.1,50,7.8,50z"/>
			</g>
		</g>
		<text id="XMLID_773_" transform="matrix(0.9994 0 0 1 -1.6401 61.0703)" class="st2 st3 st4">簡</text>
		<g id="圓角矩形_1">
			<g id="XMLID_72_">
				<path id="XMLID_73_" class="st5" d="M16.6,58.9H6.2c-1.3,0-2.4,1.1-2.4,2.4v10.3c0,1.3,1.1,2.4,2.4,2.4h10.4
					c1.3,0,2.4-1.1,2.4-2.4V61.3C19,59.9,17.9,58.9,16.6,58.9z"/>
			</g>
		</g>
		<text id="XMLID_689_" transform="matrix(0.9994 0 0 1 7 69.71)" class="st6 st3 st4">繁</text>
		<g id="多邊形_2">
			<g id="XMLID_68_">
				<polygon id="XMLID_69_" class="st5" points="-0.7,62.4 -3.3,65.1 1.8,65.1 				"/>
			</g>
		</g>
		<g id="矩形_4">
			<g id="XMLID_64_">
				<rect id="XMLID_65_" x="-2.3" y="65.1" class="st5" width="3" height="3"/>
			</g>
		</g>
		<g id="矩形_4_拷貝">
			<g id="XMLID_60_">
				<polygon id="XMLID_61_" class="st7" points="-2.3,65.1 -2.3,68.2 0.8,68.2 				"/>
			</g>
		</g>
		<g id="多邊形_2_拷貝">
			<g id="XMLID_56_">
				<polygon id="XMLID_57_" class="st8" points="3.8,67.1 3.8,72.3 6.5,69.7 				"/>
			</g>
		</g>
		<g id="矩形_4_拷貝_3">
			<g id="XMLID_52_">
				<rect id="XMLID_53_" x="0.8" y="68.2" class="st8" width="3" height="3"/>
			</g>
		</g>
		<g id="矩形_4_拷貝_2">
			<g id="XMLID_48_">
				<polygon id="XMLID_49_" class="st8" points="-2.3,68.2 0.8,71.2 0.8,68.2 				"/>
			</g>
		</g>
		<g id="圓角矩形_1_拷貝_2">
			<g id="XMLID_44_">
				<path id="XMLID_45_" class="st1" d="M7.8,50H-2.6C-3.9,50-5,51.1-5,52.4v10.3c0,1.3,1.1,2.4,2.4,2.4H7.8c1.3,0,2.4-1.1,2.4-2.4
					V52.4C10.2,51.1,9.1,50,7.8,50z"/>
			</g>
		</g>
		<g id="XMLID_526_">
			<path id="XMLID_225_" class="st2" d="M2.5,55H0.2c-0.3,0.3-0.6,0.6-0.9,0.7l-0.5-0.5c0.5-0.3,1-0.7,1.4-1.4L0.9,54l-0.2,0.3h1.8
				V55z M2.4,58.1H0v3.4h-0.8v-5.6h3.1v2.2H2.4z M1.6,56.8v-0.3H0v0.3H1.6z M1.6,57.6v-0.3H0v0.3H1.6z M1.7,55.7l-0.8,0.2
				c-0.1-0.2-0.2-0.4-0.3-0.6l0.8-0.1C1.6,55.3,1.7,55.5,1.7,55.7z M4.5,60.8H0.9v-2.3h3.6V60.8z M3.7,59.4v-0.3H1.6v0.3H3.7z
				 M3.7,60.3v-0.4H1.6v0.4H3.7z M6.4,55H3.7c-0.2,0.2-0.5,0.5-0.8,0.7l-0.6-0.4c0.6-0.4,1-0.8,1.4-1.4l0.7,0.2
				c0,0.1-0.1,0.2-0.2,0.3h2.2V55z M6.1,60.8c0,0.5-0.3,0.7-1,0.7c-0.1,0-0.2,0-0.3,0l-0.2-0.7c0.2,0,0.3,0,0.5,0
				c0.1,0,0.1,0,0.2-0.1c0.1,0,0.1-0.1,0.1-0.2V58H3v-2.2h3.1V60.8z M5.4,56.8v-0.3H3.8v0.3H5.4z M5.4,57.6v-0.3H3.8v0.3H5.4z
				 M5.3,55.7l-0.7,0.2c-0.1-0.1-0.2-0.3-0.3-0.6l0.8-0.2C5.2,55.3,5.3,55.5,5.3,55.7z"/>
		</g>
		<g id="圓角矩形_1_拷貝_3">
			<g id="XMLID_40_">
				<path id="XMLID_41_" class="st5" d="M16.6,58.9H6.2c-1.3,0-2.4,1.1-2.4,2.4v10.3c0,1.3,1.1,2.4,2.4,2.4h10.4
					c1.3,0,2.4-1.1,2.4-2.4V61.3C19,59.9,17.9,58.9,16.6,58.9z"/>
			</g>
		</g>
		<g id="XMLID_445_">
			<path id="XMLID_243_" class="st6" d="M11.7,63.4H9c-0.2,0.1-0.3,0.3-0.3,0.3h2.7v0.9h0.3V65h-0.4v0.4h0.2v0.4h-0.2
				c0,0.2-0.1,0.4-0.3,0.5c-0.2,0.1-0.5,0.1-0.9,0.1L10,65.9c0.1,0,0.2,0,0.3,0c0.3,0,0.4-0.1,0.4-0.2H8.2l0.1-0.9H7.7v-0.4h0.6
				v-0.6C8.1,63.9,8,64,7.9,64l-0.4-0.5c0.5-0.2,1-0.6,1.4-1.2l0.7,0.2c0,0.1-0.1,0.1-0.2,0.2h2.3V63.4z M10.2,69.3
				c-0.5,0.3-1.2,0.6-2.1,0.9l-0.4-0.6c0.8-0.2,1.4-0.4,2-0.7L10.2,69.3z M14.8,68.5l-0.6,0.4c0,0-0.2-0.2-0.3-0.4l-2.1,0.2v0.8
				c0,0.2-0.1,0.4-0.2,0.5s-0.5,0.2-1.2,0.2l-0.2-0.6c0.4,0,0.7,0,0.7-0.1c0.1,0,0.1-0.1,0.1-0.2v-0.6l-2.8,0.1l-0.1-0.5
				c0.8-0.1,1.6-0.3,2.5-0.7c-0.7,0.1-1.3,0.1-1.9,0.1l-0.1-0.5c1.1-0.1,2-0.4,2.8-1l0.6,0.3c-0.3,0.2-0.7,0.4-1.2,0.6h0.9
				c0.6-0.3,1-0.5,1.3-0.6l0.7,0.4c-1.4,0.6-2.5,1.1-3.2,1.3c1,0,1.9-0.1,2.8-0.2c-0.2-0.2-0.3-0.3-0.4-0.3l0.6-0.4
				C14,67.7,14.4,68.1,14.8,68.5z M9.6,65.5c-0.1-0.1-0.2-0.1-0.4-0.2l0.3-0.2H8.9l-0.1,0.4C8.8,65.5,9.6,65.5,9.6,65.5z M9.6,64.6
				c-0.1-0.1-0.2-0.2-0.3-0.2l0.3-0.2H9v0.4C9,64.6,9.6,64.6,9.6,64.6z M10.6,65H9.8c0.1,0.1,0.2,0.1,0.3,0.2l-0.3,0.2h0.7L10.6,65z
				 M10.7,64.2H9.9c0.1,0.1,0.2,0.2,0.3,0.3L10,64.6h0.6L10.7,64.2z M15.2,65.8l-0.4,0.6c-0.5-0.1-1-0.4-1.5-0.7
				c-0.4,0.3-0.8,0.5-1.3,0.6l-0.4-0.6c0.4-0.1,0.8-0.3,1.1-0.5c-0.2-0.2-0.4-0.5-0.6-0.8l0.6-0.3c0.2,0.3,0.3,0.5,0.5,0.7
				c0.3-0.3,0.5-0.7,0.6-1.1h-1.3c-0.2,0.3-0.5,0.5-0.7,0.7L11.5,64c0.5-0.3,0.8-0.8,1.1-1.4l0.7,0.2c-0.1,0.2-0.2,0.3-0.2,0.4H15
				v0.6h-0.5c-0.2,0.7-0.4,1.2-0.7,1.5C14.2,65.5,14.6,65.7,15.2,65.8z M15,69.7l-0.4,0.6c-0.7-0.4-1.5-0.7-2.2-0.8l0.4-0.5
				C13.7,69.1,14.4,69.4,15,69.7z"/>
		</g>
		<g id="多邊形_2_拷貝_2">
			<g id="XMLID_36_">
				<polygon id="XMLID_37_" class="st5" points="-0.7,62.4 -3.3,65.1 1.8,65.1 				"/>
			</g>
		</g>
		<g id="矩形_4_拷貝_4">
			<g id="XMLID_58_">
				<rect id="XMLID_59_" x="-2.3" y="65.1" class="st5" width="3" height="3"/>
			</g>
		</g>
		<g id="矩形_4_拷貝_5">
			<g id="XMLID_62_">
				<polygon id="XMLID_63_" class="st7" points="-2.3,65.1 -2.3,68.2 0.8,68.2 				"/>
			</g>
		</g>
		<g id="多邊形_2_拷貝_3">
			<g id="XMLID_66_">
				<polygon id="XMLID_67_" class="st8" points="3.8,67.1 3.8,72.3 6.5,69.7 				"/>
			</g>
		</g>
		<g id="矩形_4_拷貝_6">
			<g id="XMLID_70_">
				<rect id="XMLID_71_" x="0.8" y="68.2" class="st8" width="3" height="3"/>
			</g>
		</g>
		<g id="矩形_4_拷貝_7">
			<g id="XMLID_74_">
				<polygon id="XMLID_75_" class="st8" points="-2.3,68.2 0.8,71.2 0.8,68.2 				"/>
			</g>
		</g>
	</g>
</g>
</svg>
